<svg width="160" height="160" viewBox="0 0 160 160" fill="none" xmlns="http://www.w3.org/2000/svg">
<path d="M0.0108392 38.3987C0.0108392 17.1855 17.206 0 38.4069 0H121.604C142.816 0 160 17.1963 160 38.3987V121.601C160 142.814 142.805 160 121.604 160H38.2115C17.1083 160 0 142.89 0 121.786V38.3879L0.0108392 38.3987Z" fill="url(#paint0_linear_684_33652)"/>
<path d="M9.24676 43.1967C9.24676 24.437 24.4554 9.22733 43.2138 9.22733H116.814C135.573 9.22733 150.781 24.437 150.781 43.1967V116.802C150.781 135.562 135.573 150.772 116.814 150.772H43.0401C24.3685 150.772 9.23589 135.638 9.23589 116.965V43.1858L9.24676 43.1967Z" fill="black"/>
<path d="M18.4718 47.9956C18.4718 31.6786 31.6939 18.4556 48.0098 18.4556H112.014C128.33 18.4556 141.552 31.6786 141.552 47.9956V112.004C141.552 128.321 128.33 141.544 112.014 141.544H47.8686C31.6396 141.544 18.4826 128.386 18.4826 112.145V47.9956H18.4718Z" fill="white"/>
<path d="M66.5252 86.1412C72.5505 75.7043 70.8268 63.428 62.6751 58.7213C54.5235 54.0146 43.0308 58.6599 37.0055 69.0968C30.9801 79.5337 32.7038 91.81 40.8555 96.5166C49.0071 101.223 60.4999 96.578 66.5252 86.1412Z" fill="black"/>
<path d="M60.0751 76.7232C63.6184 76.7232 66.4907 73.8505 66.4907 70.307C66.4907 66.7635 63.6184 63.891 60.0751 63.891C56.5319 63.891 53.6595 66.7635 53.6595 70.307C53.6595 73.8505 56.5319 76.7232 60.0751 76.7232Z" fill="white"/>
<path d="M119.506 96.6035C127.658 91.8968 129.382 79.6206 123.356 69.1837C117.331 58.7468 105.838 54.1015 97.6867 58.8082C89.5351 63.5149 87.8113 75.7912 93.8366 86.2281C99.862 96.6649 111.355 101.31 119.506 96.6035Z" fill="black"/>
<path d="M100.291 76.8203C103.834 76.8203 106.707 73.9478 106.707 70.4043C106.707 66.8608 103.834 63.9882 100.291 63.9882C96.7477 63.9882 93.8753 66.8608 93.8753 70.4043C93.8753 73.9478 96.7477 76.8203 100.291 76.8203Z" fill="white"/>
<path d="M80.1794 103.916C80.1794 103.916 75.5984 103.731 73.9592 104.904C72.32 106.076 72.4286 107.889 72.4286 107.889C72.4286 107.889 72.2114 109.746 72.7542 110.951C73.297 112.156 76.4777 111.95 78.0409 114.631C78.0409 114.631 79.4738 115.12 80.1794 114.978" fill="black"/>
<path d="M80.1794 103.916C80.1794 103.916 84.7607 103.731 86.3999 104.904C88.0391 106.076 87.9305 107.889 87.9305 107.889C87.9305 107.889 88.1476 109.745 87.6049 110.95C87.0621 112.156 83.8814 111.949 82.3182 114.631C82.3182 114.631 80.8851 115.12 80.1794 114.978" fill="black"/>
<defs>
<linearGradient id="paint0_linear_684_33652" x1="80" y1="0" x2="80" y2="178.98" gradientUnits="userSpaceOnUse">
<stop stop-color="#5EA6FF"/>
<stop offset="1" stop-color="#5EA6FF" stop-opacity="0.4"/>
</linearGradient>
</defs>
</svg>
