<svg width="89" height="89" viewBox="0 0 89 89" fill="none" xmlns="http://www.w3.org/2000/svg">
<rect x="0.66748" y="0.66748" width="88" height="88" rx="24" fill="white"/>
<path d="M65.4575 42.614C65.4575 54.024 57.1741 64.7107 45.8575 67.8373C45.0875 68.0473 44.2474 68.0473 43.4774 67.8373C32.1608 64.7107 23.8774 54.024 23.8774 42.614V32.3707C23.8774 30.4573 25.3241 28.2873 27.1208 27.564L40.1174 22.2441C43.0341 21.0541 46.3241 21.0541 49.2408 22.2441L62.2374 27.564C64.0108 28.2873 65.4808 30.4573 65.4808 32.3707L65.4575 42.614Z" fill="#121212"/>
<path d="M36.6675 40.668L32.6675 44.668L36.6675 48.668" fill="#121212"/>
<path d="M36.6675 40.668L32.6675 44.668L36.6675 48.668" stroke="white" stroke-width="3" stroke-miterlimit="10" stroke-linecap="round" stroke-linejoin="round"/>
<path d="M52.6675 40.668L56.6675 44.668L52.6675 48.668" fill="#121212"/>
<path d="M52.6675 40.668L56.6675 44.668L52.6675 48.668" stroke="white" stroke-width="3" stroke-miterlimit="10" stroke-linecap="round" stroke-linejoin="round"/>
<path d="M46.6675 40.0078L42.6675 49.3279" stroke="white" stroke-width="3" stroke-miterlimit="10" stroke-linecap="round" stroke-linejoin="round"/>
</svg>
