<svg width="222" height="221" viewBox="0 0 222 221" fill="none" xmlns="http://www.w3.org/2000/svg">
<path d="M0.0150538 53.0382C0.0150538 23.7374 23.8734 0 53.2896 0H168.725C198.157 0 222 23.7524 222 53.0382V167.962C222 197.263 198.142 221 168.725 221H53.0185C23.7378 221 0 197.367 0 168.217V53.0232L0.0150538 53.0382Z" fill="url(#paint0_linear_998_114209)"/>
<path d="M12.83 59.6658C12.83 33.754 33.932 12.7456 59.9592 12.7456H162.08C188.107 12.7456 209.209 33.754 209.209 59.6658V161.334C209.209 187.245 188.107 208.254 162.08 208.254H59.7182C33.8115 208.254 12.8149 187.35 12.8149 161.559V59.6508L12.83 59.6658Z" fill="black"/>
<path d="M25.6299 66.2937C25.6299 43.7559 43.9754 25.4916 66.6137 25.4916H155.42C178.058 25.4916 196.404 43.7559 196.404 66.2937V154.706C196.404 177.244 178.058 195.508 155.42 195.508H66.418C43.9002 195.508 25.6449 177.334 25.6449 154.901V66.2937H25.6299Z" fill="white"/>
<path d="M92.3039 118.982C100.664 104.566 98.2723 87.6096 86.9619 81.1085C75.6515 74.6074 59.7055 81.0237 51.3453 95.4397C42.9852 109.856 45.3767 126.812 56.6872 133.313C67.9976 139.814 83.9437 133.398 92.3039 118.982Z" fill="black"/>
<path d="M165.815 133.433C177.125 126.932 179.517 109.976 171.157 95.5597C162.797 81.1437 146.851 74.7275 135.54 81.2286C124.23 87.7297 121.838 104.686 130.198 119.102C138.559 133.518 154.505 139.934 165.815 133.433Z" fill="black"/>
<path d="M111.249 143.534C111.249 143.534 104.893 143.279 102.618 144.898C100.344 146.518 100.495 149.022 100.495 149.022C100.495 149.022 100.193 151.586 100.946 153.251C101.7 154.915 106.113 154.63 108.282 158.334C108.282 158.334 110.27 159.009 111.249 158.814" fill="black"/>
<path d="M111.249 143.534C111.249 143.534 117.606 143.279 119.88 144.899C122.154 146.518 122.004 149.022 122.004 149.022C122.004 149.022 122.305 151.587 121.552 153.251C120.799 154.915 116.386 154.631 114.217 158.334C114.217 158.334 112.228 159.009 111.249 158.814" fill="black"/>
<path d="M83.5744 118.179C88.4907 118.179 92.4761 114.211 92.4761 109.317C92.4761 104.422 88.4907 100.455 83.5744 100.455C78.6581 100.455 74.6727 104.422 74.6727 109.317C74.6727 114.211 78.6581 118.179 83.5744 118.179Z" fill="white"/>
<path d="M139.374 118.314C144.29 118.314 148.276 114.346 148.276 109.452C148.276 104.557 144.29 100.589 139.374 100.589C134.458 100.589 130.472 104.557 130.472 109.452C130.472 114.346 134.458 118.314 139.374 118.314Z" fill="white"/>
<defs>
<linearGradient id="paint0_linear_998_114209" x1="111" y1="0" x2="111" y2="247.216" gradientUnits="userSpaceOnUse">
<stop stop-color="#5EA6FF"/>
<stop offset="1" stop-color="#5EA6FF" stop-opacity="0.4"/>
</linearGradient>
</defs>
</svg>
