<svg width="1440" height="800" viewBox="0 0 1440 800" fill="none" xmlns="http://www.w3.org/2000/svg">
<g clip-path="url(#clip0_1163_143062)">
<path d="M701.41 463.029C661.625 435.045 667.356 397.62 585.763 351.092C504.171 304.563 481.186 281.278 468.769 250.28C423.926 138.343 541.933 100.244 487.987 78.666C444.83 61.4034 58.444 81.4757 -81.1406 95.8612V858.519H1292.12L1309.98 100.244C1307.51 87.432 1227.25 106.313 1163.32 126.543C1083.41 151.83 1004.18 463.029 962.709 504.5C921.239 545.971 856.504 504.5 819.416 525.067C782.328 545.634 775.248 500.117 748.612 504.5C721.976 508.883 741.195 491.013 701.41 463.029Z" fill="#D5FFAA"/>
<path d="M718.945 607.671C750.647 613.346 805.958 569.716 817.396 560.468L817.451 560.424C827.96 551.927 866.589 520.694 912.475 527.089C1052.36 546.584 972.49 360.532 1268.18 273.207C1289.08 295.123 1268.18 660.942 1255.03 675.777C1241.88 690.612 1264.47 702.076 1255.03 728.037C1231.69 792.229 1255.03 843.346 1255.03 862.901C1255.03 882.457 548.342 847.392 548.342 890.886C548.342 930.334 416.175 921.935 436.067 890.886L-92.601 906.028C-81.3623 669.116 -96.3098 302.233 -96.3098 252.64C-96.3097 193.637 -118.113 113.168 -96.3098 81.0252C-78.665 69.7865 99.3136 69.7591 179.825 81.0253C278.613 94.8491 682.757 78.7778 734.117 97.8835C683.206 127.554 512.141 70.0011 475.515 115.079C436.067 163.63 436.067 252.64 475.515 292.425C514.963 332.21 567.897 355.812 597.567 463.029C627.237 570.246 668.371 598.616 718.945 607.671Z" fill="#C1FDA0"/>
<path d="M972.157 777.936C1016.66 788.388 1029.14 811.99 980.923 844.02L1267.51 875.376L1309.99 685.217C1310.67 615.2 1276.09 328.824 1239.19 321.083C1170.07 306.585 1095.56 414.14 1046.67 441.787C1015.8 459.245 983.792 530.068 959.345 542.935C908.096 569.908 855.161 540.494 817.399 566.537C709.845 640.712 715.24 622.505 666.014 613.739C661.968 612.053 655.77 612.312 661.968 613.739C672.083 617.448 709.866 623.497 735.807 641.386C764.081 660.885 747.547 682.156 735.807 685.554C710.183 692.972 694.673 701.738 686.244 718.596C677.815 735.454 742.887 755.009 783.684 756.021C824.48 757.032 927.651 767.484 972.157 777.936Z" fill="#A4F4A2"/>
<path d="M703.956 635.432C750.969 643.849 832.994 579.146 849.956 565.432C865.423 552.927 920.937 523.218 989.103 532.718C1196.54 561.628 1079.96 268.931 1518.46 139.432C1549.46 171.932 1518.46 714.432 1498.96 736.432C1479.46 758.432 1512.96 775.432 1498.96 813.932C1464.34 909.127 1498.96 984.932 1498.96 1013.93C1498.96 1042.93 450.956 990.932 450.956 1055.43C450.956 1113.93 254.956 1101.48 284.456 1055.43L-499.544 1077.89C-482.877 726.553 -505.044 182.476 -505.044 108.932C-505.044 21.4316 -537.377 -97.902 -505.044 -145.569C-478.877 -162.235 -214.94 -162.276 -95.5438 -145.569C50.9562 -125.068 650.29 -148.902 726.456 -120.568C650.956 -76.5684 397.271 -161.917 342.956 -95.0684C284.456 -23.0684 284.456 108.932 342.956 167.932C401.456 226.932 479.956 261.932 523.956 420.932C567.956 579.932 628.956 622.004 703.956 635.432Z" fill="url(#paint0_linear_1163_143062)"/>
<path d="M612.897 639.671C657.897 655.671 732.74 643.229 728.897 664.702C726.397 678.671 1570.02 628.17 1503.4 639.671C1520.4 681.671 1522.9 681.671 1503.4 703.671C1483.9 725.671 1517.4 742.671 1503.4 781.171C1468.78 876.366 1503.4 952.171 1503.4 981.171C1503.4 1010.17 455.397 958.171 455.397 1022.67C455.397 1081.17 259.397 1068.72 288.897 1022.67L-495.103 1045.13C-478.436 693.793 -517.403 4.57089 -500.603 76.1709C-483.803 147.771 -492.936 -96.6624 -460.603 -144.329C-434.436 -160.996 -116.703 -274.329 -105.103 -154.329C-93.5028 -34.3293 -40.7694 98.7923 35.3973 127.126C169.397 265.671 289.619 181.504 337.397 253.171C361.397 289.171 331.644 374.336 365.397 469.671C399.151 565.006 487.218 579.171 522.897 579.171C572.897 579.171 567.897 623.671 612.897 639.671Z" fill="url(#paint1_linear_1163_143062)"/>
<path d="M1096.9 953.171C1168.4 905.671 1149.9 870.671 1083.9 855.171C1017.9 839.671 864.901 824.171 804.401 822.671C743.901 821.171 647.401 792.171 659.901 767.171C672.401 742.171 695.401 729.171 733.401 718.171C750.811 713.131 775.331 681.587 733.401 652.671C703.937 639.092 708.569 640.852 693.569 635.352C686.455 633.715 669.553 627.006 665.056 625.215C664.985 625.195 664.914 625.174 664.843 625.154C663.487 624.589 663.742 624.692 665.056 625.215C711.366 638.621 695.144 651.503 854.4 541.671C910.4 503.05 988.901 546.671 1064.9 506.671C1101.16 487.589 1148.62 382.561 1194.4 356.671C1266.9 315.671 1377.4 156.171 1479.9 177.671C1534.62 189.149 1585.9 613.837 1584.9 717.671L1521.9 999.671L1096.9 953.171Z" fill="#8BDFA5"/>
<path d="M661.852 689.617C706.852 705.617 720.852 696.087 741.852 694.587C666.018 704.753 1641.85 737.587 1641.85 755.587C1641.85 773.587 1663.85 800.138 1663.85 854.087C1663.85 928.587 1641.85 991.586 1641.85 1020.59C1641.85 1049.59 591.352 1018.09 570.352 1020.59C553.552 1022.59 328.352 1094.63 379.852 1020.59L-373.648 1054.04C-356.982 702.708 -438.345 -3.12045 -421.545 68.4795C-404.745 140.08 -245.482 9.25312 -213.148 -38.4136C-186.982 -55.0803 -88.7482 -70.4133 -77.1482 49.5867C-65.5482 169.587 75.185 342.708 151.352 371.041C199.831 400.705 252.819 452.003 280.352 533.617C336.352 699.617 520.352 673.617 570.352 673.617C620.352 673.617 616.852 673.617 661.852 689.617Z" fill="url(#paint2_linear_1163_143062)"/>
<path d="M1083.89 855.173C1149.89 870.673 1168.39 905.673 1096.89 953.173L1521.89 999.673L1584.89 717.673C1585.89 613.839 1573.69 370.073 1520.89 351.673C1454.89 328.673 1430.89 407.173 1382.89 428.673C1334.89 450.173 1321.39 452.673 1221.39 464.173C1121.39 475.673 1070.63 573.002 1038.89 595.673C951.395 658.173 888.895 660.173 746.895 635.673C707.659 628.903 823.395 685.173 785.395 696.173C747.395 707.173 635.895 731.673 623.395 756.673C610.895 781.673 724.894 834.673 785.394 836.173C845.894 837.673 1017.89 839.673 1083.89 855.173Z" fill="#8BDFA5"/>
<path d="M1107.96 -304.955L1092.1 -303.348L1195.54 700.793L1211.4 699.186L1107.96 -304.955Z" fill="#B1FA90"/>
<path d="M364.398 956.173C428.398 939.84 681.791 886.943 696.898 881.673C739.898 866.673 593.898 852.673 534.898 816.173C475.898 779.673 366.898 768.673 396.898 741.673C426.898 714.673 626.898 681.173 680.898 678.173C734.898 675.173 747.12 659.145 696.898 637.173C690.104 634.201 684.348 631.754 679.455 629.733C663.265 625.886 650.097 621.011 642.41 614.406C653.833 622.754 644.014 615.094 679.455 629.733C744.328 645.148 857.717 644.064 861.398 671.673C865.398 701.673 672.398 719.673 659.898 765.173C651.283 796.533 906.43 825.893 1003.9 836.673C1220.9 860.673 1166.4 903.673 1104.4 940.173C1061.2 962.173 1043.73 1009.67 1040.4 1030.67L364.398 956.173Z" fill="url(#paint3_linear_1163_143062)"/>
<path fill-rule="evenodd" clip-rule="evenodd" d="M559.78 912.427C628.703 897.443 689.718 884.178 696.898 881.673C719.479 873.797 689.942 866.195 648.254 855.467C610.554 845.766 562.916 833.506 534.898 816.173C531.377 813.995 527.678 811.908 523.841 809.902C564.752 826.209 606.751 841.384 626.398 845.673C634.471 847.436 642.46 849.133 650.28 850.795C711.232 863.749 761.898 874.516 761.898 896.673C761.898 906.922 739.966 916.415 717.633 926.081C685.488 939.994 652.511 954.267 682.898 971.673L617.398 980.673L579.038 979.828L364.398 956.173C397.978 947.603 483.698 928.968 559.78 912.427ZM474.909 789.612C466.898 786.82 458.953 784.192 451.334 781.673C410.495 768.168 379.024 757.761 396.898 741.673C426.898 714.673 626.898 681.173 680.898 678.173C723.38 675.813 740.005 665.39 720.713 650.354C809.137 665.933 715.686 679.617 648.398 688.173C561.898 699.173 457.898 723.517 432.898 733.673C410.395 742.815 400.998 754.44 438.898 773.173C448.251 777.796 460.734 783.475 474.909 789.612Z" fill="#C4FEA3"/>
<path fill-rule="evenodd" clip-rule="evenodd" d="M559.78 912.423C628.703 897.439 689.718 884.174 696.898 881.669C719.479 873.793 689.942 866.192 648.254 855.463C630.869 850.99 611.372 845.972 592.659 840.164C602.993 842.911 612.983 845.43 622.399 847.669C725.398 872.169 727.898 884.669 690.398 892.169C652.898 899.669 489.398 940.669 481.898 957.669L453.34 965.971L388.594 958.836L386.158 950.888C427.315 941.222 496.844 926.106 559.78 912.423ZM478.066 712.336C439.125 721.842 407.466 732.159 396.898 741.669C388.947 748.826 390.76 754.858 398.819 760.539C393.673 753.679 394.225 747.417 402.398 742.169C419.914 730.925 451.271 720.522 478.066 712.336Z" fill="#E2FFB2"/>
<path fill-rule="evenodd" clip-rule="evenodd" d="M397.048 741.54C512.036 737.601 530.31 745.377 554.021 755.467C566.681 760.853 580.89 766.899 612.195 772.174C640.82 776.997 661.99 779.988 677.98 781.631C665.184 776.271 658.365 770.754 659.898 765.174C666.616 740.723 725.457 724.214 777.841 709.516C794.995 704.703 811.457 700.084 825.169 695.444L823.695 677.674L727.714 658.037C733.149 668.896 715.7 676.241 680.898 678.174C626.988 681.169 427.558 714.564 397.048 741.54Z" fill="url(#paint4_linear_1163_143062)"/>
<path d="M864.896 864.143C918.469 876.724 933.486 905.134 875.448 943.691L1220.43 981.436L1271.57 752.531C1272.38 668.248 1263.29 495.947 1220.43 481.011C1166.86 462.341 1149.4 529.308 1110.44 546.76C1071.48 564.212 1059.71 588.158 978.537 597.493C897.365 606.827 851.097 630.367 832.427 655.937C813.757 681.506 786.159 701.393 754.096 705.451C722.033 709.51 686.866 745.778 655.472 752.531C305.938 827.718 368.341 833.138 358.194 853.431C348.048 873.724 588.911 836.544 638.02 837.762C687.129 838.979 811.322 851.561 864.896 864.143Z" fill="#3D91FA"/>
<rect width="10.5524" height="828.525" transform="matrix(-0.988739 0.149648 0.149648 0.988739 866.177 -3.70117)" fill="#85D6B3"/>
<rect width="10.5524" height="721.619" transform="matrix(-0.994599 0.103794 0.103794 0.994599 1051.82 -31.8398)" fill="#85D6B3"/>
<path d="M1050.82 0.128906L1040.3 0.869388L1052.26 170.934L1090.94 720.709L1101.46 719.969L1050.82 0.128906Z" fill="#85D6B3"/>
<path d="M957.839 1.38692L951.56 1.38691L963.927 165.253L963.927 170.935L989.634 463.154L991.14 481.417L1010.86 720.565L1031.23 718.885L1016.12 568.271L1013.44 551.631C990.112 322.995 986.28 286.358 957.839 1.38692Z" fill="#72BDDF"/>
<path d="M941.596 514.625L931.145 516.273" stroke="#A4F4A2" stroke-width="0.811719"/>
<path d="M1011.3 530.446L994.941 531.984" stroke="#85D6B3" stroke-width="0.811719"/>
<path d="M1003.4 452.051L988.434 453.547" stroke="#85D6B3" stroke-width="0.811719"/>
<path d="M980.15 224.64L968.395 225.727" stroke="#85D6B3" stroke-width="0.811719"/>
<path d="M924.729 402.871L914.277 404.52" stroke="#A4F4A2" stroke-width="0.811719"/>
<path d="M908.073 293.508L897.621 295.156" stroke="#A4F4A2" stroke-width="0.811719"/>
<path d="M889.733 161.73L879.281 163.379" stroke="#A4F4A2" stroke-width="0.811719"/>
<path d="M1108.71 513.745L1098.21 514.924" stroke="#B1FA90" stroke-width="0.811719"/>
<path d="M1070.88 286.903L1060.38 288.029" stroke="#B1FA90" stroke-width="0.811719"/>
<path d="M1060.05 126.182L1049.55 127.309" stroke="#B1FA90" stroke-width="0.811719"/>
<path d="M1088.45 536.964L1077.95 538.143" stroke="#B1FA90" stroke-width="0.811719"/>
<path d="M1084.01 276.165L1073.51 277.344" stroke="#B1FA90" stroke-width="0.811719"/>
<path d="M1068.92 118.033L1058.42 119.211" stroke="#B1FA90" stroke-width="0.811719"/>
<path d="M1095.14 382.284L1084.64 383.463" stroke="#B1FA90" stroke-width="0.811719"/>
<path d="M1079.26 404.245L1068.76 405.424" stroke="#B1FA90" stroke-width="0.811719"/>
<path fill-rule="evenodd" clip-rule="evenodd" d="M606.523 762.911C615.813 761.543 624.488 760.39 631.88 759.407C642.121 758.046 649.902 757.012 653.448 756.185C661.884 754.217 678.891 744.456 696.776 734.191C704.707 729.64 712.81 724.989 720.415 720.875C735.514 712.707 756.197 708.464 773.905 704.831C785.233 702.507 795.342 700.433 801.993 697.741C813.324 693.155 823.918 679.768 833.814 667.262C838.805 660.955 843.619 654.872 848.261 650.255C879.163 619.522 936.571 605.598 979.047 597.434C978.877 597.453 978.708 597.473 978.538 597.492C897.366 606.827 851.098 630.367 832.428 655.936C813.759 681.505 786.16 701.393 754.097 705.451C736.267 707.708 717.307 719.253 698.683 730.594C683.817 739.646 669.165 748.567 655.473 752.531C646.674 755.078 632.754 757.791 617.116 760.838C613.657 761.512 610.114 762.202 606.523 762.911Z" fill="#A1F49A"/>
<path d="M1227.69 860.491C1298.71 873.073 1336.05 927.052 1393.68 932.734C1392.89 802.453 1388.54 546.518 1377.5 565.025C1363.7 588.159 1352.33 434.338 1251.27 475.33C1150.22 516.322 1161.21 513.076 1120.59 563.402C1093.4 597.088 1080.81 612.511 1015.47 627.527C950.127 642.544 917.252 720.063 889.654 733.051C862.055 746.038 834.505 787.842 805.235 787.842C755.314 797.989 709.046 800.018 726.904 806.106C744.762 812.194 909.541 862.926 992.336 862.926C1075.13 862.926 1156.66 847.909 1227.69 860.491Z" fill="url(#paint5_linear_1163_143062)"/>
<circle cx="519.828" cy="153.764" r="8.5" fill="#DDFFDF"/>
<path d="M732.507 622.491L735.252 621.119C735.38 620.66 735.005 619.554 734.31 619.8C734.31 619.508 734.001 619.059 733.504 619.326C732.671 619.774 732.215 620.121 732.434 620.78C732.083 621.692 732.041 622.711 732.507 622.491Z" fill="#8BDFA5"/>
<path d="M732.179 619.9C732.014 620.12 732.198 620.303 732.509 620.303C732.588 620.248 732.735 620.109 732.691 619.992C732.636 619.846 732.344 619.681 732.179 619.9Z" fill="#8BDFA5"/>
<path d="M733.341 619.049C733.021 619.168 733.295 619.415 733.597 619.415C733.64 619.449 733.727 619.479 733.734 619.333C733.744 619.15 733.661 618.93 733.341 619.049Z" fill="#8BDFA5"/>
</g>
<path fill-rule="evenodd" clip-rule="evenodd" d="M-205.367 -207.271L-217.688 -208.369L-275.723 442.975C-344.053 430.095 -427.575 396.658 -463.688 380.113C-470.189 451.63 -483.573 597.615 -485.095 609.413C-486.987 624.076 -365.67 674.949 -335.284 687.69L-334.766 687.908C-314.016 696.609 -188.491 686.946 -104.121 680.451C-68.5634 677.713 -40.3154 675.539 -30.301 675.539C-7.05334 675.539 17.7718 685.68 44.6399 696.656L44.6404 696.656C56.8089 701.627 69.3964 706.77 82.4462 711.218C104.144 718.615 98.8339 729.207 94.5783 737.695C90.6233 745.584 87.5794 751.655 107.974 751.655C119.19 751.655 139.587 755.44 164.17 760.002C232.385 772.661 332.84 791.303 358.843 751.655C370.969 733.167 355.069 730.202 324.071 724.421C321.053 723.858 317.892 723.269 314.601 722.636C291.942 718.278 281.7 711.438 270.011 703.63C266.702 701.419 263.276 699.131 259.42 696.8L350.07 -102.164L354.325 -130.407L353.292 -130.562L353.313 -130.749L348.216 -131.327L342.094 -132.249L342.06 -132.026L341.023 -132.143L337.806 -103.783L219.714 680.17C203.342 675.978 189.318 675.209 182.824 675.539L279.397 -117.497H263.698L169.98 668.879C163.533 666.449 154.938 661.958 145.534 655.244L262.95 -124.216L250.719 -126.058L134.35 646.458C114.615 629.481 93.7028 603.294 82.4462 566.598C75.5392 544.081 70.3571 522.808 65.6652 503.547L65.2945 502.025L127.476 -195.85L115.156 -196.948L56.0701 466.184C48.0392 438.237 38.8639 418.025 22.0289 409.608C6.53757 401.862 -35.3087 411.721 -84.593 423.332C-141.253 436.68 -207.743 452.345 -255.32 446.239C-258.008 445.894 -260.734 445.506 -263.493 445.08L-205.367 -207.271ZM231.682 683.758L299.63 232.68L247.696 690.409C245.986 689.576 244.189 688.742 242.29 687.908C238.737 686.346 235.186 684.97 231.682 683.758Z" fill="url(#paint6_linear_1163_143062)"/>
<path fill-rule="evenodd" clip-rule="evenodd" d="M278.187 -107.516H272.267L179.977 676.481C179.977 676.957 180.452 677.337 180.928 677.433C181.656 677.578 183.031 677.523 185.028 677.443C195.315 677.031 222.097 675.959 261.869 698.29C256.459 694.897 250.267 691.395 242.298 687.894C217.18 676.857 192.188 675.049 182.832 675.525L278.187 -107.516Z" fill="url(#paint7_linear_1163_143062)"/>
<path fill-rule="evenodd" clip-rule="evenodd" d="M257.878 -124.98L140.016 655.56L152.457 659.876C150.213 658.465 147.897 656.915 145.529 655.225L262.942 -124.218L257.878 -124.98ZM211.348 321.751L273.045 -117.512H263.698L211.348 321.751Z" fill="url(#paint8_linear_1163_143062)"/>
<path d="M266.053 645.433L253.227 644.748" stroke="#8CE4A8" stroke-width="0.951452"/>
<path d="M239.397 635.306L226.57 634.621" stroke="#8CE4A8" stroke-width="0.951452"/>
<path d="M271.212 592.804L258.523 590.809" stroke="#8CE4A8" stroke-width="0.951452"/>
<path d="M278.406 531.466L265.609 530.357" stroke="#8CE4A8" stroke-width="0.951452"/>
<path d="M251.586 551.135L238.828 549.648" stroke="#8CE4A8" stroke-width="0.951452"/>
<path d="M185.094 650.376L172.336 648.889" stroke="#A0F2BA" stroke-width="0.951452"/>
<path d="M197.469 551.428L184.711 549.941" stroke="#A0F2BA" stroke-width="0.951452"/>
<path d="M209.836 448.671L197.078 447.184" stroke="#A0F2BA" stroke-width="0.951452"/>
<path d="M164.73 522.35L153.312 521.398" stroke="#A0F2BA" stroke-width="0.951452"/>
<path d="M180.34 415.37L169.484 413.883" stroke="#A0F2BA" stroke-width="0.951452"/>
<path d="M69.5815 446.231L58.1641 445.279" stroke="#6CC2C8" stroke-width="0.951452"/>
<path d="M81.9487 311.127L70.5312 310.176" stroke="#6CC2C8" stroke-width="0.951452"/>
<path d="M90.519 215.028L79.1016 214.076" stroke="#6CC2C8" stroke-width="0.951452"/>
<path d="M103.838 60.4065L91.4688 59.4551" stroke="#6CC2C8" stroke-width="0.951452"/>
<path d="M197.473 296.44L186.617 294.953" stroke="#A0F2BA" stroke-width="0.951452"/>
<path d="M222.204 336.397L209.445 334.91" stroke="#7BCED0" stroke-width="0.951452"/>
<path d="M235.524 231.741L222.766 230.254" stroke="#7BCED0" stroke-width="0.951452"/>
<path d="M256.454 49.9401L243.695 48.4531" stroke="#57ADE8" stroke-width="0.951452"/>
<path d="M234.183 52.7974L222.766 50.8945" stroke="#65BADF" stroke-width="0.951452"/>
<path d="M214.206 185.053L202.789 183.15" stroke="#80D3CE" stroke-width="0.951452"/>
<path d="M287.852 309.758L275.094 308.271" stroke="#8CE4A8" stroke-width="0.951452"/>
<path d="M306.888 161.801L296.984 160.314" stroke="#76CBBE" stroke-width="0.951452"/>
<path d="M269.774 429.645L257.016 428.158" stroke="#8CE4A8" stroke-width="0.951452"/>
<path d="M291.551 416.044L278.797 414.52" stroke="#8CE4A8" stroke-width="0.951452"/>
<path d="M303.905 308.647L291.18 306.898" stroke="#8CE4A8" stroke-width="0.951452"/>
<path d="M316.017 189.809L303.648 188.857" stroke="#76CBBE" stroke-width="0.951452"/>
<path d="M342.164 -155.244L371.951 -152.59L296.882 689.914L267.096 687.26L342.164 -155.244Z" fill="#94EB92"/>
<path fill-rule="evenodd" clip-rule="evenodd" d="M-29.7424 -204.578L-42.0625 -205.676L-100.098 445.668C-168.428 432.788 -251.95 399.352 -288.063 382.806C-294.564 454.324 -307.948 600.308 -309.47 612.106C-311.362 626.769 -190.045 677.642 -159.659 690.384L-159.141 690.601C-138.391 699.303 -12.8664 689.639 71.5039 683.144C107.062 680.407 135.31 678.232 145.324 678.232C168.572 678.232 193.397 688.374 220.265 699.35L220.265 699.35C232.434 704.321 245.021 709.463 258.071 713.912C278.062 720.727 292.907 720.062 311.843 719.214C332.56 718.286 358.176 717.139 400.789 725.329C412.927 727.662 545.939 734.241 470.534 719.74C449.664 715.726 445.557 711.374 440.372 705.879L440.371 705.878C438.813 704.226 437.157 702.471 434.92 700.592L525.695 -99.4711L529.95 -127.714L528.917 -127.869L528.938 -128.055L523.841 -128.634L517.719 -129.556L517.685 -129.332L516.648 -129.45L513.431 -101.09L395.339 682.863C378.967 678.672 364.943 677.902 358.449 678.232L455.022 -114.803H439.323L345.605 671.572C339.158 669.143 330.563 664.651 321.159 657.938L438.575 -121.523L426.344 -123.365L309.975 649.151C290.24 632.174 269.328 605.987 258.071 569.291C251.164 546.774 245.982 525.501 241.29 506.24L240.919 504.719L303.101 -193.157L290.781 -194.255L231.695 468.878C223.664 440.93 214.489 420.719 197.654 412.301C182.163 404.556 140.316 414.414 91.032 426.025C34.3725 439.374 -32.1177 455.038 -79.6946 448.932C-82.3831 448.587 -85.1091 448.2 -87.8679 447.773L-29.7424 -204.578ZM407.307 686.452L475.255 235.374L423.316 693.146C421.687 692.319 419.895 691.471 417.915 690.601C414.362 689.04 410.811 687.663 407.307 686.452Z" fill="url(#paint9_linear_1163_143062)"/>
<path fill-rule="evenodd" clip-rule="evenodd" d="M453.812 -104.822H447.892L355.602 679.175C355.602 679.65 356.077 680.031 356.553 680.126C357.281 680.272 358.656 680.216 360.653 680.137C370.94 679.725 397.722 678.652 437.494 700.983C432.084 697.59 425.892 694.089 417.923 690.587C392.805 679.55 367.813 677.742 358.457 678.218L453.812 -104.822Z" fill="url(#paint10_linear_1163_143062)"/>
<path fill-rule="evenodd" clip-rule="evenodd" d="M433.503 -122.285L315.641 658.255L328.082 662.571C325.838 661.16 323.522 659.611 321.154 657.92L438.567 -121.522L433.503 -122.285ZM386.973 324.446L448.67 -114.817H439.323L386.973 324.446Z" fill="url(#paint11_linear_1163_143062)"/>
<path d="M441.678 648.126L428.852 647.441" stroke="#8CE4A8" stroke-width="0.951452"/>
<path d="M415.022 637.999L402.195 637.314" stroke="#8CE4A8" stroke-width="0.951452"/>
<path d="M446.837 595.498L434.148 593.502" stroke="#8CE4A8" stroke-width="0.951452"/>
<path d="M454.031 534.16L441.234 533.051" stroke="#8CE4A8" stroke-width="0.951452"/>
<path d="M427.211 553.829L414.453 552.342" stroke="#8CE4A8" stroke-width="0.951452"/>
<path d="M360.719 653.069L347.961 651.582" stroke="#A0F2BA" stroke-width="0.951452"/>
<path d="M373.094 554.122L360.336 552.635" stroke="#A0F2BA" stroke-width="0.951452"/>
<path d="M385.461 451.364L372.703 449.877" stroke="#A0F2BA" stroke-width="0.951452"/>
<path d="M340.355 525.043L328.938 524.092" stroke="#A0F2BA" stroke-width="0.951452"/>
<path d="M355.965 418.063L345.109 416.576" stroke="#A0F2BA" stroke-width="0.951452"/>
<path d="M245.206 448.924L233.789 447.973" stroke="#6CC2C8" stroke-width="0.951452"/>
<path d="M257.574 313.821L246.156 312.869" stroke="#6CC2C8" stroke-width="0.951452"/>
<path d="M266.144 217.721L254.727 216.77" stroke="#6CC2C8" stroke-width="0.951452"/>
<path d="M279.463 63.0999L267.094 62.1484" stroke="#6CC2C8" stroke-width="0.951452"/>
<path d="M373.098 299.133L362.242 297.646" stroke="#A0F2BA" stroke-width="0.951452"/>
<path d="M397.829 339.09L385.07 337.604" stroke="#7BCED0" stroke-width="0.951452"/>
<path d="M411.149 234.434L398.391 232.947" stroke="#7BCED0" stroke-width="0.951452"/>
<path d="M432.079 52.6334L419.32 51.1465" stroke="#57ADE8" stroke-width="0.951452"/>
<path d="M409.808 55.4908L398.391 53.5879" stroke="#65BADF" stroke-width="0.951452"/>
<path d="M389.831 187.747L378.414 185.844" stroke="#80D3CE" stroke-width="0.951452"/>
<path d="M463.477 312.452L450.719 310.965" stroke="#8CE4A8" stroke-width="0.951452"/>
<path d="M482.513 164.495L472.609 163.008" stroke="#76CBBE" stroke-width="0.951452"/>
<path d="M445.399 432.339L432.641 430.852" stroke="#8CE4A8" stroke-width="0.951452"/>
<path d="M467.176 418.737L454.422 417.213" stroke="#8CE4A8" stroke-width="0.951452"/>
<path d="M479.53 311.34L466.805 309.592" stroke="#8CE4A8" stroke-width="0.951452"/>
<path d="M491.642 192.502L479.273 191.551" stroke="#76CBBE" stroke-width="0.951452"/>
<path fill-rule="evenodd" clip-rule="evenodd" d="M663.293 42.3984H661.28L629.852 640.97C629.852 641.333 630.014 641.624 630.176 641.696C630.537 641.858 631.511 641.948 632.887 642.075C635.01 642.271 638.091 642.555 641.364 643.33C636.671 641.062 632.76 640.637 630.821 640.858L663.293 42.3984Z" fill="url(#paint12_linear_1163_143062)"/>
<path fill-rule="evenodd" clip-rule="evenodd" d="M660.543 37.2461L620.406 633.8L624.64 637.097C623.879 636.022 623.093 634.842 622.29 633.555L662.274 37.8314L660.543 37.2461ZM644.703 378.597L665.708 42.9589H662.526L644.703 378.597Z" fill="url(#paint13_linear_1163_143062)"/>
<path d="M663.322 626.054L658.953 625.531" stroke="#8CE4A8" stroke-width="0.324009"/>
<path d="M644.181 475.677L639.836 474.541" stroke="#A0F2BA" stroke-width="0.324009"/>
<path d="M603.552 297.108L599.664 296.381" stroke="#6CC2C8" stroke-width="0.324009"/>
<path d="M652.931 309.879L648.586 308.742" stroke="#7BCED0" stroke-width="0.324009"/>
<path d="M680.345 285.475L676.133 284.748" stroke="#76CBBE" stroke-width="0.324009"/>
<path d="M632.031 -16L642.175 -13.9715L616.611 629.937L606.468 627.909L632.031 -16Z" fill="#8DE9A9"/>
<path d="M619.078 631.882C605.632 622.303 600.286 628.769 591.376 628.769C582.465 628.769 577.767 630.685 564.969 628.769C552.171 626.853 557.679 638.348 557.679 638.348L599.22 689.118C625.626 688.001 664.291 654.106 669.087 652.956C675.081 651.52 659.647 640.982 650.737 638.348C641.827 635.714 632.525 641.461 619.078 631.882Z" fill="url(#paint14_linear_1163_143062)"/>
<path d="M-186.501 814.501C-274.001 830.001 -320.001 896.501 -391.001 903.501C-390.021 743.001 -384.661 427.701 -371.061 450.501C-354.061 479.001 -340.061 289.501 -215.561 340.001C-91.0608 390.501 -104.608 386.502 -54.5614 448.501C-21.0614 490.001 -5.56146 509.001 74.9385 527.501C155.439 546.001 195.939 641.501 229.939 657.501C263.939 673.501 297.879 725.001 333.939 725.001C395.439 737.501 452.439 740.001 430.439 747.501C408.439 755.001 205.439 817.501 103.439 817.501C1.43869 817.501 -99.0007 799.001 -186.501 814.501Z" fill="url(#paint15_linear_1163_143062)"/>
<path d="M983.633 -332.766L952.326 -329.976L1031.23 555.516L1062.53 552.726L983.633 -332.766Z" fill="#8BDFA5"/>
<path fill-rule="evenodd" clip-rule="evenodd" d="M1373.41 -140.567L1386.36 -141.721L1442 482.701C1492.95 494.211 1547.13 504.264 1588.02 499.016C1662.82 489.416 1765.19 448.683 1807.02 429.516C1813.86 504.683 1827.92 658.116 1829.52 670.516C1831.51 685.927 1704 739.396 1672.07 752.788L1671.52 753.016C1649.72 762.162 1517.79 752.005 1429.11 745.179H1429.11L1429.11 745.178L1429.09 745.177L1429.08 745.176C1391.72 742.3 1362.05 740.016 1351.52 740.016C1327.09 740.016 1301 750.675 1272.76 762.211C1259.97 767.436 1246.74 772.84 1233.02 777.516C1195.08 790.45 1144.13 790.001 1102.29 789.632C1095.6 789.573 1089.15 789.516 1083.02 789.516C1063.57 789.516 1043.17 792.668 1022.48 797.385L1026.47 823.875L1013.61 825.811L1009.79 800.452C991.82 805.028 973.733 810.532 955.965 815.94L955.964 815.94L955.949 815.945C951.451 817.314 946.974 818.676 942.524 820.016C922.878 825.931 939.701 807.439 967.339 796.079L858.528 -85.4068L871.43 -86.9994L979.898 791.703C982.879 790.85 985.929 790.111 989.024 789.516C996.211 788.134 1002.21 786.514 1007.42 784.7L881.192 -53.2711L894.047 -55.2075L1019.77 779.412C1025.63 776.392 1030.62 773.06 1035.89 769.54C1043.72 764.308 1052.17 758.662 1065.02 753.016C1077.71 747.444 1090.36 744.11 1101.17 742.205L1028.57 -72.5352L1026.02 -93.484H1026.71L1023.58 -128.567L1036.53 -129.721L1039.76 -93.484H1042.52L1141.02 733.016C1164.02 724.349 1213.02 690.716 1233.02 625.516C1240.28 601.85 1245.73 579.492 1250.66 559.248C1262.71 509.776 1271.69 472.934 1296.52 460.516C1312.81 452.375 1356.79 462.737 1408.59 474.94C1415.17 476.491 1421.88 478.072 1428.67 479.648L1373.41 -140.567ZM1127.52 740.016L1077.22 326.911L1114.07 740.466C1119.82 739.937 1124.46 739.86 1127.52 740.016ZM799.141 -61.6104L786.224 -60.1448L886.447 823.188L899.364 821.722L799.141 -61.6104Z" fill="url(#paint16_linear_1163_143062)"/>
<path fill-rule="evenodd" clip-rule="evenodd" d="M866.506 -28.041H872.727L969.727 795.959C969.727 796.459 969.227 796.859 968.727 796.959C967.961 797.112 966.516 797.054 964.418 796.97C953.615 796.538 925.502 795.412 883.756 818.824C889.418 815.277 895.899 811.618 904.227 807.959C930.627 796.359 956.894 794.459 966.727 794.959L866.506 -28.041Z" fill="url(#paint17_linear_1163_143062)"/>
<path d="M877.941 755.639L891.422 754.92" stroke="#8CE4A8"/>
<path d="M872.516 700.328L885.852 698.23" stroke="#8CE4A8"/>
<path d="M864.957 635.863L878.406 634.697" stroke="#8CE4A8"/>
<path d="M963.02 760.842L976.43 759.279" stroke="#A0F2BA"/>
<path d="M950.02 656.842L963.43 655.279" stroke="#A0F2BA"/>
<path d="M937.02 548.842L950.43 547.279" stroke="#A0F2BA"/>
<path d="M984.43 626.279L996.43 625.279" stroke="#A0F2BA"/>
<path d="M968.02 513.842L979.43 512.279" stroke="#A0F2BA"/>
<path d="M1084.43 546.279L1096.43 545.279" stroke="#6CC2C8"/>
<path d="M1071.43 404.279L1083.43 403.279" stroke="#6CC2C8"/>
<path d="M1062.43 303.279L1074.43 302.279" stroke="#6CC2C8"/>
<path d="M1048.43 141.279L1061.43 140.279" stroke="#6CC2C8"/>
<path d="M950.02 388.842L961.43 387.279" stroke="#A0F2BA"/>
<path d="M924.02 430.842L937.43 429.279" stroke="#7BCED0"/>
<path d="M910.02 320.842L923.43 319.279" stroke="#7BCED0"/>
<path d="M888.028 130.28L901.438 128.717" stroke="#57ADE8"/>
<path d="M911.43 133.279L923.43 131.279" stroke="#65BADF"/>
<path d="M932.43 282.279L944.43 280.279" stroke="#80D3CE"/>
<path d="M855.02 402.842L868.43 401.279" stroke="#8CE4A8"/>
<path d="M835.02 257.842L845.43 256.279" stroke="#76CBBE"/>
<path d="M874.02 528.842L887.43 527.279" stroke="#8CE4A8"/>
<path d="M851.142 514.555L864.547 512.953" stroke="#8CE4A8"/>
<path d="M838.157 401.673L851.531 399.836" stroke="#8CE4A8"/>
<path d="M825.43 287.279L838.43 286.279" stroke="#76CBBE"/>
<path d="M1036.86 529.027C1034.43 522.281 1027.42 512.295 1015.81 509.867C1012.57 508.96 1001.24 503.12 990.986 508.518C980.731 513.915 983.159 524.439 986.668 532.266C983.429 539.282 986.398 544.41 990.986 548.188C982.134 552.074 988.917 564.02 993.414 569.507C992.245 568.878 989.906 568.374 989.906 571.396C989.906 575.174 1001.24 581.921 1007.18 581.921C1011.93 581.921 1017.07 576.704 1019.05 574.095C1022.56 574.455 1031.03 574.041 1036.86 569.507C1044.15 563.84 1049.28 543.33 1036.86 529.027Z" fill="#72BDDF"/>
<path d="M978.242 520.29C978.242 516.781 979.592 515.702 984.179 516.781C984.989 516.781 984.989 518.67 984.989 521.369C984.989 524.068 987.148 524.338 984.989 525.417C982.83 526.497 978.242 523.798 978.242 520.29Z" fill="#72BDDF"/>
<path d="M1001.45 506.796C1000.37 506.796 995.514 508.146 994.974 506.796C992.545 506.229 991.736 500.589 995.514 499.24C999.292 497.891 1003.34 500.319 1003.61 502.748C1003.88 505.177 1002.53 506.796 1001.45 506.796Z" fill="#72BDDF"/>
<path d="M1023.31 543.768C1034.37 542.959 1037.34 535.672 1036.8 528.925C1035.45 520.02 1023.31 510.305 1017.1 510.305C1012.14 510.305 1008.74 519.48 1007.66 524.068C1007.75 526.767 1007.22 532.65 1004.42 534.593C1001.61 536.536 998.21 534.683 996.861 533.513C992.111 535.024 988.225 533.243 986.876 532.164C982.342 540.152 988.045 546.287 991.464 548.356C993.173 550.785 997.401 555.103 1000.64 552.944C1010.89 559.42 1012.24 544.578 1023.31 543.768Z" fill="#72BDDF"/>
<path d="M1007.8 553.474C1009.69 546.997 1015.36 551.045 1023.99 556.173L1030.6 566.861C1028.44 579.814 1017.25 583.16 1014.01 583.16C1009.96 583.16 1001.45 579.275 1001.45 575.496C1001.45 571.286 1005.95 569.919 1009.28 569.289C1007.75 565.511 1006.29 558.656 1007.8 553.474Z" fill="#72BDDF"/>
<path d="M1294.66 729.76C1303.22 714.288 1300.32 673.008 1267.5 651.131C1262.11 646.187 1252.92 629.668 1227.72 630.055C1212.85 630.284 1199.73 641.293 1193.81 654.264C1191.19 660.02 1186.12 662.411 1187.24 666.88C1189.34 675.292 1191.18 678.446 1196.7 681.914C1185.01 704.742 1183.58 696.839 1188.76 708.681C1167.77 707.516 1169.18 737.365 1172.51 752.434C1170.86 750.063 1166.82 746.785 1163.84 752.65C1160.13 759.98 1175.49 784.216 1187 790.055C1196.22 794.726 1211.33 789.663 1217.74 786.548C1224.19 790.696 1241.04 798.226 1256.81 795.162C1276.52 791.332 1304.68 769.719 1294.66 729.76Z" fill="#1879F2"/>
<path d="M1200.84 626.586C1206.87 621.907 1210.53 622.787 1214.79 632.11C1215.87 633.502 1212.62 636.021 1207.99 639.619C1203.35 643.218 1205.76 647.288 1201.03 645.017C1196.29 642.747 1194.81 631.264 1200.84 626.586Z" fill="#1879F2"/>
<path d="M1254.98 648.476C1253.54 646.621 1244.75 640.072 1246.34 637.346C1244.08 632.415 1252.69 623.503 1260.05 628.197C1267.41 632.89 1268.63 643.085 1264.82 646.788C1261 650.491 1256.42 650.331 1254.98 648.476Z" fill="#1879F2"/>
<path d="M1251.19 753.017C1273.45 762.327 1286.38 751.109 1291.97 737.488C1298.11 718.882 1284.1 688.09 1272.05 681.986C1262.42 677.103 1246.8 691.561 1240.19 699.401C1237.71 704.725 1230.92 715.627 1223.56 716.637C1216.2 717.647 1211.43 710.707 1209.96 707.111C1199.26 705.373 1193.47 698.095 1191.91 694.674C1175.26 705.714 1180.29 723.226 1184.89 730.602C1185.82 736.995 1189.78 749.53 1198.18 748.526C1211.71 771.178 1228.93 743.706 1251.19 753.017Z" fill="#1879F2"/>
<path d="M1223.97 743.784C1228.08 729.696 1240.4 738.501 1259.19 749.655L1273.56 772.903C1268.86 801.08 1244.51 808.357 1237.47 808.357C1228.66 808.357 1210.16 799.906 1210.16 791.688C1210.16 782.528 1219.94 779.556 1227.18 778.186C1223.86 769.968 1220.68 755.055 1223.97 743.784Z" fill="#1879F2"/>
<path d="M-36.0902 663.532C-49.3651 639.292 -48.3158 576.521 -3.43083 545.572C3.84362 538.429 15.6376 513.904 51.3853 516.363C72.4787 517.813 92.3 539.731 101.64 559.96C105.785 568.937 104.434 584.968 103.182 591.704C100.825 604.383 107.73 614.904 100.175 619.787C84.4462 623.243 97.9899 632.081 98.6566 645.808C128.325 645.586 142.297 684.435 138.694 707.182C140.856 703.685 146.342 698.984 150.989 708.152C156.798 719.612 136.831 755.454 120.939 763.509C108.226 769.953 86.4313 761.108 77.1233 755.88C68.2858 761.731 44.9675 771.973 22.3941 766.129C-5.82258 758.824 -47.3289 723.759 -36.0902 663.532Z" fill="#1879F2"/>
<path d="M108.663 535.013C103.15 526.044 98.0043 525.404 87.9715 535.373C85.9016 536.645 88.8699 541.475 93.1106 548.374C97.3513 555.274 92.2558 559.356 99.4716 558.723C106.687 558.091 114.176 543.982 108.663 535.013Z" fill="#1879F2"/>
<path d="M28.1243 536.985C30.8841 535.289 45.4235 531.105 44.683 526.808C50.0015 521.541 43.2089 505.85 31.4293 508.337C19.6497 510.824 13.1171 523.395 16.2438 530.029C19.3704 536.662 25.3646 538.681 28.1243 536.985Z" fill="#1879F2"/>
<path d="M18.5479 685.108C-12.1673 697.952 -29.9988 682.476 -37.7074 663.685C-46.1779 638.016 -26.8525 595.535 -10.2382 587.114C3.05315 580.377 24.6034 600.324 33.7171 611.14C37.1376 618.486 46.5159 633.525 56.6646 634.918C66.8133 636.312 73.4009 626.738 75.4261 621.777C90.19 619.379 88.4034 611.14 100.208 611.14C123.181 626.371 116.354 644.009 110.011 654.185C108.731 663.005 103.272 680.298 91.6747 678.913C73.0121 710.163 49.2631 672.264 18.5479 685.108Z" fill="#1879F2"/>
<path d="M56.1136 672.369C50.4446 652.932 33.4378 665.08 7.52258 680.467L-12.2978 712.541C-5.819 751.414 27.7688 761.453 37.487 761.453C49.6348 761.453 75.166 749.794 75.166 738.456C75.166 725.819 61.6685 721.719 51.6804 719.829C56.2695 708.491 60.6487 687.918 56.1136 672.369Z" fill="#1879F2"/>
<path d="M438.363 648.803C439.277 648.191 442.157 646.968 446.363 646.968C449.106 646.74 452.687 649.014 454.135 650.18C454.82 648.039 457.06 644.765 460.535 648.803C464.009 652.841 460.154 655.992 457.792 657.063C459.163 660.122 461.632 667.526 460.535 672.665C468.082 681.25 473.638 685.524 474.92 688.087C476.874 691.995 476.874 693.623 476.874 698.182C482.41 702.74 485.666 705.02 490.224 712.834C492.51 712.987 495.377 709.848 499.993 712.834C505.528 716.416 500.54 721.449 497.714 724.289C494.639 727.379 489.247 727.162 480.13 726.185C474.743 725.607 471.132 725.319 467.809 725.028C468.184 725.301 468.408 725.674 468.408 726.185C468.408 729.397 465.443 731.747 454.135 730.092C443.01 728.464 438.796 725.053 431.939 723.905C425.082 722.758 415.734 710.293 420.306 691.25C418.706 681.154 422.82 674.73 427.849 666.241C427.849 663.671 429.677 657.369 430.592 654.539C428.839 653.469 426.386 650.455 430.592 646.968C434.797 643.48 437.525 646.738 438.363 648.803Z" fill="#76CBBE"/>
<path fill-rule="evenodd" clip-rule="evenodd" d="M433.15 645.56C435.569 646.864 437.474 648.691 437.474 650.317C437.771 650.228 438.106 650.12 438.474 650.001C442.137 648.819 449.05 646.589 454.081 651.619C456.034 648.038 459.942 647.061 459.616 652.596C459.356 657.025 456.686 656.829 455.383 656.178C457.337 659 460.919 666.207 459.616 672.459L459.763 672.627C464.375 677.897 473.618 688.459 473.618 692.647V698.183C477.959 700.679 487.098 707.235 488.922 713.487C495.955 710.361 500.318 716.092 501.621 719.348L501.817 719.204C502.904 717.034 502.924 714.731 499.993 712.834C496.825 710.785 494.481 711.62 492.583 712.297C491.715 712.606 490.941 712.882 490.224 712.834C486.054 705.686 482.974 703.169 478.243 699.303C477.801 698.943 477.346 698.57 476.874 698.182C476.874 693.623 476.874 691.995 474.92 688.087C474.257 686.762 472.451 684.978 469.818 682.378C467.359 679.95 464.179 676.81 460.535 672.665C461.632 667.526 459.163 660.122 457.792 657.063C460.154 655.992 464.009 652.841 460.535 648.803C457.06 644.765 454.82 648.039 454.134 650.18C452.687 649.014 449.106 646.74 446.363 646.968C442.157 646.968 439.277 648.191 438.363 648.803C437.709 647.193 435.907 644.857 433.15 645.56Z" fill="#C1FD9F"/>
<path d="M300.162 798.517L395.043 -12.1806L370.867 -86.0585L264.431 767.143L300.162 798.517Z" fill="#1879F2"/>
<path d="M319.521 636.862L282.841 633.289" stroke="#51A4E5" stroke-width="0.871482"/>
<path d="M347.779 393.739L311.099 390.166" stroke="#51A4E5" stroke-width="0.871482"/>
<path d="M-31.0939 1073.96L58.1141 -191.564L15.2823 -304.537L-88.8197 1027.81L-31.0939 1073.96Z" fill="#1879F2"/>
<path d="M13.8264 442.07L-43.3809 439.152" stroke="#51A4E5" stroke-width="1.35454"/>
<path d="M1517.65 -321.1L1690.61 999.833L1612.68 968.106L1480.5 958.377C1478.88 943.18 1475.92 937.64 1460.85 893.44C1450.89 864.233 1405.53 779.655 1378.69 759.2C1347.48 772.513 1282.47 776.55 1262.64 779.391C1270.16 771.022 1320.94 752.893 1340.88 747.326C1313.96 752.547 1237.11 757.909 1215.81 754.12C1236.75 746.963 1284.53 723.546 1321.18 733.67C1283.37 720.429 1223.98 666.562 1199.01 641.283C1211.39 644.993 1256.28 667.509 1336.77 727.887C1321.87 710.975 1287.77 665.538 1272.59 644.934C1294.68 658.414 1346.18 696.774 1375.39 742.369C1367.55 715.318 1374.32 686.77 1378.69 675.877C1385.86 685.339 1388.34 695.181 1391 747.326C1430.29 779.391 1456.96 839.479 1480.5 875.432L1429.56 565.222C1428.11 594.435 1394.52 622.546 1383.51 631.651L1385.27 596.225L1340.88 609.867C1341.16 600.593 1346.58 578.68 1366.04 565.222C1341.55 574.387 1314.73 575.242 1259.42 577.961C1284.34 549.148 1331.39 514.876 1365.73 516.58C1284.12 487.616 1221.58 433.848 1200.52 410.584C1218.72 410.759 1268.35 417.335 1321.29 442.238C1304.61 434.376 1267.66 396.964 1251.25 379.227L1338.41 417.426C1338.36 403.765 1324.09 375.739 1354.07 332.971C1380.47 353.46 1393.17 380.74 1399.04 405.065L1295.29 -332.133L1517.65 -321.1Z" fill="#1879F2"/>
<path fill-rule="evenodd" clip-rule="evenodd" d="M1401.51 422.55C1402.2 406.55 1399.05 365.951 1389.76 296.496C1388.14 284.397 1385.97 268.133 1383.36 248.603C1365.24 112.654 1326.02 -181.596 1303.78 -331.711L1295.29 -332.133L1401.51 422.55Z" fill="url(#paint18_linear_1163_143062)"/>
<path fill-rule="evenodd" clip-rule="evenodd" d="M1205.69 416.031C1203.76 414.071 1202.04 412.248 1200.53 410.581C1217.43 410.743 1261.43 416.425 1310.02 437.178C1283.23 429.226 1233.62 415.772 1215.57 415.697C1211.78 415.681 1208.51 415.806 1205.69 416.031Z" fill="#A1F49A"/>
<path fill-rule="evenodd" clip-rule="evenodd" d="M1274.53 577.752C1271.93 577.88 1269.25 578.011 1266.5 578.144C1263.7 578.281 1260.82 578.421 1257.86 578.566C1277.3 556.096 1310.19 530.306 1340.02 520.848C1309.38 534.642 1274.93 564.148 1265.03 577.281L1274.53 577.752Z" fill="#78C3D0"/>
<path d="M1248.52 379.094C1286.96 397.21 1365.26 437.774 1370.96 455.103C1366.38 437.392 1307.51 398.341 1296.95 394.063C1261.6 379.743 1262.69 379.797 1248.52 379.094Z" fill="#A1F49A"/>
<path d="M1454.31 497.224C1454.61 497.317 1454.9 497.416 1455.18 497.522C1454.89 497.42 1454.6 497.321 1454.31 497.224C1442.14 493.476 1417.18 501.012 1410.93 519.366C1411.82 511.914 1414.31 506.242 1417.99 502.196C1404.69 501.949 1377.8 497.563 1329.44 543.186C1373.08 490.637 1405.98 495.464 1423.38 497.857C1431.4 493.225 1442.44 493.28 1454.31 497.224Z" fill="#78C3D0"/>
<path d="M1542.18 160.849L1375.52 182.877" stroke="url(#paint19_linear_1163_143062)" stroke-width="1.5932"/>
<path d="M123.981 235.453C3.81813 235.453 -72.275 123.877 -213.086 65.7921L-233.328 -9.89388C-208.393 -9.89388 -116.807 18.0924 -62.5942 42.0303C5.1713 71.9528 149.503 166.807 415.285 7.51413C460.508 -19.5899 456.046 -7.59034 433.326 7.51413C194.387 166.367 -11.9901 96.5947 -59.514 65.7921C-88.7187 46.8631 -120.084 36.9078 -136.555 32.0453C-106.262 50.758 -19.9418 128.542 31.5734 159.767C247.191 290.457 435.526 -12.2874 598.78 -50.3774C649.97 -52.4309 721.739 -59.0643 672.266 -50.3774C570.617 -32.5291 468.034 54.0343 415.285 96.5947L413.437 98.0858C335.528 160.951 243.2 235.453 123.981 235.453Z" fill="#3D91FA"/>
<path fill-rule="evenodd" clip-rule="evenodd" d="M1382.18 -77.4382C1385.64 -83.0237 1388.72 -87.9871 1391.4 -92.1992L1406.99 -82.283C1404.43 -78.249 1401.44 -73.4271 1398.04 -67.9533C1383.08 -43.8289 1360.27 -7.04451 1331.43 30.7398C1296.1 77.0372 1251.05 125.777 1199.04 155.365C1146.64 185.17 1086.68 195.733 1023.19 164.383C960.408 133.384 895.704 62.1091 831.195 -67.7184L847.746 -75.9423C911.552 52.4705 973.938 119.453 1031.37 147.812C1088.1 175.821 1141.48 166.845 1189.9 139.301C1238.7 111.538 1281.95 65.1168 1316.74 19.5274C1344.97 -17.4549 1367.18 -53.2697 1382.18 -77.4382Z" fill="#1168D5"/>
<path fill-rule="evenodd" clip-rule="evenodd" d="M1213.47 146.568C1208.72 149.656 1203.91 152.594 1199.04 155.364C1146.65 185.169 1086.69 195.732 1023.2 164.382C963.043 134.68 901.126 68.0046 839.305 -51.7219L842.99 -52.4805C887.433 32.0064 956.959 151.696 1070.49 175.898C1116.12 185.626 1167.67 169.989 1213.47 146.568Z" fill="#64B2DE"/>
<path fill-rule="evenodd" clip-rule="evenodd" d="M770.556 134.76C947.458 107.09 1094.88 0.445877 1196.29 -87.515L1207.83 -74.2185C1105.75 14.3239 955.206 123.693 773.276 152.15C590.605 180.722 377.992 127.484 152.844 -105.772L165.508 -117.996C387.31 111.792 594.395 162.314 770.556 134.76Z" fill="url(#paint20_linear_1163_143062)"/>
<path fill-rule="evenodd" clip-rule="evenodd" d="M1098.28 11.9062C1008.45 74.8508 898.274 132.598 773.276 152.149C677.851 167.075 574.254 159.675 464.968 115.95C532.17 140.384 611.064 157.072 696.901 154.335C867.817 148.887 1005.47 76.1581 1098.28 11.9062Z" fill="#64ACF7"/>
<path d="M289.582 153.229C293.834 151.167 298.691 144.171 296.539 138.155C295.018 133.904 290.186 136.391 285.548 136.391C273.489 123.405 267.939 134.459 246.126 134.459C233.766 131.529 226.475 130.369 214.989 129.652C200.054 128.721 180.695 129.83 161.266 142.02C141.555 154.388 139.236 179.124 138.077 188.013C137.319 193.822 156.459 195.138 161.266 195.138C169.508 199.225 187.429 201.878 202.235 198.835C240.667 190.937 240.497 192.651 256.947 178.133C260.426 176.2 279.379 158.176 289.582 153.229Z" fill="#1B7CF2"/>
<path d="M248.05 138.706C246.89 135.614 245.808 128.967 250.755 127.111C256.166 124.792 256.166 130.203 260.804 134.841C265.442 139.479 260.804 150.688 259.645 143.731C258.717 138.165 251.528 138.062 248.05 138.706Z" fill="#1B7CF2"/>
<path d="M242.65 225.665C242.65 202.862 254.245 183.924 254.631 176.967C257.527 167.333 256.57 163.078 253.116 147.73L253.085 147.594C249.607 132.134 232.553 129.646 207.648 129.646C215.378 133.898 218.084 180.664 218.084 189.94C218.084 199.216 228.966 231.496 226.804 238.806C223.881 248.687 242.65 248.468 242.65 225.665Z" fill="#1B7CF2"/>
<path d="M176.562 258.429C175.016 247.221 188.93 215.915 189.317 200.455C192.795 162.192 181.2 151.757 165.741 158.713C150.281 165.67 146.029 169.922 136.754 176.106C127.478 182.29 132.502 190.792 143.324 192.338C143.324 199.682 156.078 217.074 156.078 229.055C156.078 241.037 151.054 243.742 154.919 251.472C158.784 259.202 178.108 269.637 176.562 258.429Z" fill="#1B7CF2"/>
<path d="M1157.78 732.096C1218.89 766.027 1363.54 835.003 1453.23 839.454L1618.86 847.672L1546.94 456.689C1524.86 472.642 1480.04 543.639 1477.39 700.007C1434.55 585.365 1335.19 515.653 1290.87 495.127C1278 539.879 1275.42 652.011 1368 742.526C1286.27 711.365 1193.8 722.589 1157.78 732.096Z" fill="#3D91FA"/>
<path fill-rule="evenodd" clip-rule="evenodd" d="M1367.35 742.294C1293.8 714.458 1211.69 720.815 1169.91 729.286C1203.17 725.807 1281.72 722.165 1371.63 747.28C1370.92 745.821 1369.39 744.115 1367.35 742.294Z" fill="#E2FFB2"/>
<path fill-rule="evenodd" clip-rule="evenodd" d="M1366.4 545.723C1337.05 520.603 1309.21 503.637 1290.84 495.126C1287.47 506.828 1284.81 523.138 1284.37 542.464C1286.02 526.518 1288.44 511.967 1292.21 501.639C1317.51 511.905 1343.49 528.422 1366.4 545.723Z" fill="#C4FEA3"/>
<path d="M1319.13 204.423C1325.63 170.774 1351.62 98.4148 1403.61 78.1706L1480.7 19.9286C1490.42 43.672 1476.1 13.6417 1477.32 78.9335C1478.73 155.249 1449.89 202.214 1441.84 213.758C1437.45 207.547 1429.5 184.341 1432.23 140.757C1429.49 162.813 1388.54 248.472 1367.67 289.969C1374.26 250.944 1392.01 163.099 1410.36 123.92C1397.13 142.06 1344.03 185.147 1319.13 204.423Z" fill="#1168D5"/>
<path d="M394.704 907.591C366.135 944.896 314.379 949.565 246.957 937.254L41.1506 880.639C-72.4495 751.112 -46.2812 606.927 -31.6109 607.099C-16.9406 607.27 14.0145 655.063 27.6582 678.938C25.5681 663.33 20.5359 625.366 17.1276 598.376C32.1623 610.013 71.2607 705.048 88.9305 751.111C95.2503 660.33 132.841 597.602 258.19 522.172C258.484 551.492 221.069 666.547 202.325 720.409C219.832 702.85 261.196 666.892 286.593 663.534C283.419 684.038 240.569 753.465 219.54 785.615L258.175 772.432C254.885 777.584 246.644 790.81 240.002 802.498C260.93 778.879 323.599 699.419 392.444 671.328C394.671 741.393 362.8 824.011 320.048 870.887C350.397 874.385 394.704 907.591 394.704 907.591Z" fill="#1168D5"/>
<path fill-rule="evenodd" clip-rule="evenodd" d="M20.4936 600.232C37.2061 620.235 72.6995 706.686 89.2938 749.945C89.4201 749.721 89.5471 749.496 89.6745 749.27L86.7361 758.792C68.6048 710.751 29.9853 613.23 20.5571 607.472C19.7481 606.978 19.1061 606.501 18.6133 606.04C18.4342 604.639 18.2578 603.256 18.0846 601.894C18.6472 601.287 19.4822 600.733 20.4936 600.232ZM241.205 533.529L252.771 527.166C253.221 541.322 229.017 633.216 212.24 691.229C231.852 632.653 258.803 545.908 258.553 521.005C253.285 523.701 247.454 527.975 241.205 533.529Z" fill="#C4FEA3"/>
<path d="M51.1318 191.935C51.537 205.502 50.2944 235.477 42.0829 246.845C9.40334 204.755 -18.2871 95.9555 -8.3063 40.7979C-2.99831 11.4638 -16.6166 -10.3099 43.1629 8.31457C92.4879 50.2881 189.742 135.678 184.159 141.451C178.576 147.224 147.923 141.574 133.294 138.027C140.29 143.063 157.287 155.332 169.307 164.122C159.025 165.73 106.514 145.561 81.5435 135.275C93.9415 175.302 116.791 262.022 109.007 288.685C97.2298 277.78 65.5164 219.641 51.1318 191.935Z" fill="#1168D5"/>
<g clip-path="url(#clip1_1163_143062)">
<circle cx="1361" cy="313.5" r="5" fill="#E0FFE1"/>
<circle cx="1404.5" cy="371" r="2.5" fill="#E0FFE1"/>
<circle cx="1379.5" cy="392" r="1.5" fill="#E0FFE1"/>
<circle cx="1389" cy="378.5" r="1" fill="#E0FFE1"/>
<circle cx="1389" cy="351.5" r="1" fill="#E0FFE1"/>
<ellipse cx="357.5" cy="734.5" rx="4.5" ry="4" fill="#E0FFE1"/>
<circle cx="428.5" cy="675" r="2.5" fill="#E0FFE1"/>
<circle cx="1123.5" cy="680" r="2.5" fill="#E0FFE1"/>
<circle cx="399" cy="637.5" r="2" fill="#E0FFE1"/>
<ellipse cx="273" cy="591" rx="2" ry="2.5" fill="#E0FFE1"/>
<circle cx="382" cy="616.5" r="2" fill="#E0FFE1"/>
<circle cx="932" cy="387.5" r="2" fill="#E0FFE1"/>
<circle cx="195" cy="561.5" r="2" fill="#E0FFE1"/>
<ellipse cx="451.5" cy="597.5" rx="4.5" ry="4" fill="#E0FFE1"/>
<ellipse cx="83.5" cy="402.5" rx="4.5" ry="4" fill="#DDFFDF"/>
<circle cx="154.5" cy="343" r="2.5" fill="#DDFFDF"/>
<circle cx="849.5" cy="348" r="2.5" fill="#DDFFDF"/>
<circle cx="97" cy="295.5" r="2" fill="#DDFFDF"/>
<ellipse cx="15" cy="225" rx="2" ry="2.5" fill="#DDFFDF"/>
<circle cx="108" cy="284.5" r="2" fill="#DDFFDF"/>
<circle cx="658" cy="55.5" r="2" fill="#DDFFDF"/>
<ellipse cx="278.5" cy="328.5" rx="4.5" ry="4" fill="#DDFFDF"/>
</g>
<path d="M624.528 642.669C625.336 640.426 627.668 637.108 631.524 636.301C632.601 635.999 633.365 632.715 638.57 635.454C643.775 638.193 640.942 642.794 639.776 645.395C640.576 647.128 643.926 650.904 641.249 652.866C643.926 653.801 644.624 654.444 643.926 655.786C643.06 657.451 638.647 656.991 636.674 656.991C635.096 656.991 632.989 657.368 632.331 656.501C631.165 656.621 626.466 657.629 624.528 656.122C622.107 654.239 620.403 647.422 624.528 642.669Z" fill="#86DBB3"/>
<path d="M639.641 633.958C638.691 633.282 638.139 633.439 637.548 634.89C637.392 635.109 637.903 635.473 638.634 635.993C639.365 636.513 639.022 637.149 639.73 636.773C640.439 636.396 640.592 634.634 639.641 633.958Z" fill="#86DBB3"/>
<path d="M631.516 637.644C631.724 637.351 633.025 636.296 632.764 635.89C633.078 635.123 631.707 633.817 630.613 634.58C629.52 635.343 629.398 636.908 630.004 637.449C630.61 637.99 631.308 637.936 631.516 637.644Z" fill="#86DBB3"/>
<path d="M629.033 647.565C625.355 647.296 624.369 644.874 624.548 642.632C624.996 639.672 629.033 636.443 631.096 636.443C632.746 636.443 633.876 639.493 634.235 641.018C634.205 641.915 634.378 643.87 635.311 644.516C636.244 645.161 637.374 644.546 637.822 644.157C639.401 644.659 639.804 643.953 640.253 643.594C644.195 647.565 641.619 650.612 639.616 649.09C639.048 649.897 637.643 651.332 636.567 650.615C633.158 652.767 632.71 647.834 629.033 647.565Z" fill="#86DBB3"/>
<path d="M630.109 647.155C629.481 645.002 627.597 646.348 624.727 648.052L622.532 651.604C623.25 655.909 626.969 657.021 628.046 657.021C629.391 657.021 632.219 655.73 632.219 654.474C632.219 653.074 630.724 652.62 629.618 652.411C630.126 651.155 630.611 648.877 630.109 647.155Z" fill="#86DBB3"/>
<defs>
<linearGradient id="paint0_linear_1163_143062" x1="506.095" y1="413.731" x2="399.813" y2="604.341" gradientUnits="userSpaceOnUse">
<stop stop-color="#97DF8B"/>
<stop offset="1" stop-color="#C1FFC0"/>
</linearGradient>
<linearGradient id="paint1_linear_1163_143062" x1="506.097" y1="496.201" x2="415.727" y2="625.799" gradientUnits="userSpaceOnUse">
<stop stop-color="#8BDFA5"/>
<stop offset="1" stop-color="#99FF90"/>
</linearGradient>
<linearGradient id="paint2_linear_1163_143062" x1="-257.148" y1="357.086" x2="508.852" y2="686.586" gradientUnits="userSpaceOnUse">
<stop stop-color="#7ECEC1"/>
<stop offset="1" stop-color="#A8FFA6"/>
</linearGradient>
<linearGradient id="paint3_linear_1163_143062" x1="746.592" y1="599.168" x2="746.592" y2="1030.67" gradientUnits="userSpaceOnUse">
<stop offset="0.341853" stop-color="#B4FC8B"/>
<stop offset="1" stop-color="#D5FFAA"/>
</linearGradient>
<linearGradient id="paint4_linear_1163_143062" x1="558.927" y1="725.322" x2="562.836" y2="809.751" gradientUnits="userSpaceOnUse">
<stop stop-color="#E2FFB2" stop-opacity="0.05"/>
<stop offset="1" stop-color="#E2FFB2" stop-opacity="0.88"/>
</linearGradient>
<linearGradient id="paint5_linear_1163_143062" x1="859.62" y1="700.582" x2="832.427" y2="815.035" gradientUnits="userSpaceOnUse">
<stop offset="0.258518" stop-color="#56B7E3"/>
<stop offset="1" stop-color="#64ACF7" stop-opacity="0"/>
</linearGradient>
<linearGradient id="paint6_linear_1163_143062" x1="-61.0988" y1="-208.369" x2="-61.0988" y2="775.626" gradientUnits="userSpaceOnUse">
<stop offset="0.472064" stop-color="#4299F4"/>
<stop offset="1" stop-color="#8CE0A5"/>
</linearGradient>
<linearGradient id="paint7_linear_1163_143062" x1="229.082" y1="-107.516" x2="229.082" y2="698.29" gradientUnits="userSpaceOnUse">
<stop stop-color="#A0F1B9" stop-opacity="0"/>
<stop offset="0.919411" stop-color="#A0F1B9"/>
</linearGradient>
<linearGradient id="paint8_linear_1163_143062" x1="206.53" y1="-124.98" x2="185.188" y2="362.994" gradientUnits="userSpaceOnUse">
<stop stop-color="#A0F1B9" stop-opacity="0"/>
<stop offset="1" stop-color="#A0F1B9"/>
</linearGradient>
<linearGradient id="paint9_linear_1163_143062" x1="110.229" y1="-205.676" x2="110.229" y2="728.853" gradientUnits="userSpaceOnUse">
<stop offset="0.472064" stop-color="#4299F4"/>
<stop offset="1" stop-color="#8CE0A5"/>
</linearGradient>
<linearGradient id="paint10_linear_1163_143062" x1="404.707" y1="-104.822" x2="404.707" y2="700.983" gradientUnits="userSpaceOnUse">
<stop stop-color="#A0F1B9" stop-opacity="0"/>
<stop offset="0.919411" stop-color="#A0F1B9"/>
</linearGradient>
<linearGradient id="paint11_linear_1163_143062" x1="382.155" y1="-122.285" x2="360.813" y2="365.689" gradientUnits="userSpaceOnUse">
<stop stop-color="#A0F1B9" stop-opacity="0"/>
<stop offset="1" stop-color="#A0F1B9"/>
</linearGradient>
<linearGradient id="paint12_linear_1163_143062" x1="646.572" y1="42.3984" x2="646.572" y2="657.516" gradientUnits="userSpaceOnUse">
<stop stop-color="#A0F1B9" stop-opacity="0"/>
<stop offset="0.919411" stop-color="#A0F1B9"/>
</linearGradient>
<linearGradient id="paint13_linear_1163_143062" x1="643.057" y1="37.2461" x2="606.729" y2="407.343" gradientUnits="userSpaceOnUse">
<stop stop-color="#A0F1B9" stop-opacity="0"/>
<stop offset="1" stop-color="#A0F1B9"/>
</linearGradient>
<linearGradient id="paint14_linear_1163_143062" x1="605.376" y1="602.904" x2="597.971" y2="637.751" gradientUnits="userSpaceOnUse">
<stop stop-color="#72C3FD"/>
<stop offset="1" stop-color="#64ACF7" stop-opacity="0"/>
</linearGradient>
<linearGradient id="paint15_linear_1163_143062" x1="208.842" y1="581.73" x2="188.819" y2="780.286" gradientUnits="userSpaceOnUse">
<stop offset="0.258518" stop-color="#55B6E2"/>
<stop offset="0.873115" stop-color="#89DDA9"/>
</linearGradient>
<linearGradient id="paint16_linear_1163_143062" x1="1219.66" y1="-141.721" x2="1219.66" y2="868.418" gradientUnits="userSpaceOnUse">
<stop offset="0.472064" stop-color="#4299F4"/>
<stop offset="1" stop-color="#8CE0A5"/>
</linearGradient>
<linearGradient id="paint17_linear_1163_143062" x1="918.116" y1="-28.041" x2="918.116" y2="818.824" gradientUnits="userSpaceOnUse">
<stop stop-color="#A0F1B9" stop-opacity="0"/>
<stop offset="0.919411" stop-color="#A0F1B9"/>
</linearGradient>
<linearGradient id="paint18_linear_1163_143062" x1="1366.94" y1="-328.577" x2="1329.85" y2="418.995" gradientUnits="userSpaceOnUse">
<stop stop-color="#3D91FA"/>
<stop offset="1" stop-color="#BEFD9A"/>
</linearGradient>
<linearGradient id="paint19_linear_1163_143062" x1="1334.63" y1="204.142" x2="1474.88" y2="205.804" gradientUnits="userSpaceOnUse">
<stop stop-color="#98DEB7"/>
<stop offset="1" stop-color="#1879F2"/>
</linearGradient>
<linearGradient id="paint20_linear_1163_143062" x1="174.137" y1="-30.0375" x2="1167.3" y2="-51.1593" gradientUnits="userSpaceOnUse">
<stop stop-color="#3D91FA"/>
<stop offset="0.617901" stop-color="#1168D5"/>
<stop offset="1" stop-color="#378CF5"/>
</linearGradient>
<clipPath id="clip0_1163_143062">
<rect width="1883" height="1041" fill="white" transform="translate(-511.672 -229.736)"/>
</clipPath>
<clipPath id="clip1_1163_143062">
<rect width="1471" height="977.5" fill="white" transform="translate(-16 -239)"/>
</clipPath>
</defs>
</svg>
