<svg width="80" height="80" viewBox="0 0 80 80" fill="none" xmlns="http://www.w3.org/2000/svg">
<rect x="0.5" y="0.5" width="79" height="79" rx="39.5" fill="white" fill-opacity="0.05"/>
<path d="M17.0031 28.0396C17.0031 21.9408 21.9467 17 28.042 17H51.9611C58.0595 17 63 21.9439 63 28.0396V51.9604C63 58.0592 58.0564 63 51.9611 63H27.9858C21.9186 63 17 58.081 17 52.0134V28.0365L17.0031 28.0396Z" fill="url(#paint0_linear_370_28019)"/>
<path d="M19.6584 29.419C19.6584 24.0256 24.0309 19.6529 29.424 19.6529H50.5842C55.9772 19.6529 60.3497 24.0256 60.3497 29.419V50.5807C60.3497 55.9741 55.9772 60.3468 50.5842 60.3468H29.374C24.006 60.3468 19.6553 55.9959 19.6553 50.6275V29.4159L19.6584 29.419Z" fill="black"/>
<path d="M22.3106 30.7987C22.3106 26.1076 26.112 22.306 30.8028 22.306H49.2041C53.8949 22.306 57.6962 26.1076 57.6962 30.7987V49.2012C57.6962 53.8924 53.8949 57.694 49.2041 57.694H30.7622C26.0964 57.694 22.3138 53.9111 22.3138 49.2418V30.7987H22.3106Z" fill="white"/>
<path d="M36.126 41.7656C37.8583 38.765 37.3627 35.2355 35.0191 33.8824C32.6755 32.5292 29.3714 33.8647 27.6391 36.8653C25.9068 39.8659 26.4023 43.3954 28.7459 44.7485C31.0895 46.1017 34.3937 44.7662 36.126 41.7656Z" fill="black"/>
<path d="M34.2716 39.0579C35.2903 39.0579 36.1161 38.232 36.1161 37.2133C36.1161 36.1945 35.2903 35.3687 34.2716 35.3687C33.2529 35.3687 32.4271 36.1945 32.4271 37.2133C32.4271 38.232 33.2529 39.0579 34.2716 39.0579Z" fill="white"/>
<path d="M51.3581 44.7735C53.7017 43.4203 54.1972 39.8909 52.465 36.8903C50.7327 33.8897 47.4285 32.5542 45.0849 33.9074C42.7413 35.2605 42.2458 38.79 43.978 41.7906C45.7103 44.7912 49.0145 46.1267 51.3581 44.7735Z" fill="black"/>
<path d="M45.8336 39.0858C46.8523 39.0858 47.6781 38.26 47.6781 37.2412C47.6781 36.2225 46.8523 35.3966 45.8336 35.3966C44.815 35.3966 43.9891 36.2225 43.9891 37.2412C43.9891 38.26 44.815 39.0858 45.8336 39.0858Z" fill="white"/>
<path d="M40.0516 46.8758C40.0516 46.8758 38.7345 46.8228 38.2633 47.1598C37.792 47.4969 37.8232 48.0182 37.8232 48.0182C37.8232 48.0182 37.7608 48.5519 37.9168 48.8983C38.0729 49.2448 38.9873 49.1855 39.4368 49.9564C39.4368 49.9564 39.8487 50.0969 40.0516 50.0563" fill="black"/>
<path d="M40.0516 46.8758C40.0516 46.8758 41.3687 46.8227 41.84 47.1598C42.3112 47.4969 42.28 48.0181 42.28 48.0181C42.28 48.0181 42.3424 48.5518 42.1864 48.8983C42.0303 49.2447 41.1159 49.1854 40.6665 49.9564C40.6665 49.9564 40.2545 50.0969 40.0516 50.0563" fill="black"/>
<rect x="0.5" y="0.5" width="79" height="79" rx="39.5" stroke="#41434D"/>
<defs>
<linearGradient id="paint0_linear_370_28019" x1="48.8" y1="70.4" x2="49.2" y2="-9.8" gradientUnits="userSpaceOnUse">
<stop stop-color="#5EA6FF"/>
<stop offset="1" stop-color="#5EA6FF" stop-opacity="0.4"/>
</linearGradient>
</defs>
</svg>
