<svg width="187" height="25" viewBox="0 0 187 25" fill="none" xmlns="http://www.w3.org/2000/svg">
<path d="M0.00162742 5.76702C0.00162742 2.58105 2.58336 0 5.76651 0H18.2579C21.4427 0 24.0228 2.58268 24.0228 5.76702V18.2631C24.0228 21.449 21.4411 24.0301 18.2579 24.0301H5.73717C2.56869 24.0301 0 21.4604 0 18.2908V5.7654L0.00162742 5.76702Z" fill="url(#paint0_linear_661_82555)"/>
<path d="M1.38833 6.48762C1.38833 3.67015 3.67179 1.38583 6.48822 1.38583H17.5388C20.3552 1.38583 22.6387 3.67015 22.6387 6.48762V17.5423C22.6387 20.3598 20.3552 22.6441 17.5388 22.6441H6.46215C3.65875 22.6441 1.3867 20.3712 1.3867 17.5668V6.48599L1.38833 6.48762Z" fill="black"/>
<path d="M2.7734 7.20837C2.7734 4.75775 4.75859 2.77181 7.2083 2.77181H16.8181C19.2678 2.77181 21.253 4.75775 21.253 7.20837V16.8217C21.253 19.2723 19.2678 21.2583 16.8181 21.2583H7.18711C4.75044 21.2583 2.77503 19.2821 2.77503 16.8429V7.20837H2.7734Z" fill="white"/>
<path d="M9.98826 12.9374C10.8929 11.3699 10.6341 9.52612 9.4102 8.81924C8.18629 8.11235 6.46075 8.81002 5.55609 10.3775C4.65144 11.945 4.91023 13.7888 6.13414 14.4956C7.35805 15.2025 9.0836 14.5049 9.98826 12.9374Z" fill="black"/>
<path d="M9.01983 11.5229C9.55182 11.5229 9.98308 11.0915 9.98308 10.5593C9.98308 10.0271 9.55182 9.59567 9.01983 9.59567C8.48783 9.59567 8.05657 10.0271 8.05657 10.5593C8.05657 11.0915 8.48783 11.5229 9.01983 11.5229Z" fill="white"/>
<path d="M17.943 14.5087C19.1669 13.8018 19.4257 11.9581 18.521 10.3906C17.6164 8.82307 15.8908 8.12541 14.6669 8.83229C13.443 9.53918 13.1842 11.3829 14.0889 12.9504C14.9935 14.5179 16.7191 15.2156 17.943 14.5087Z" fill="black"/>
<path d="M15.0579 11.5375C15.5899 11.5375 16.0212 11.1061 16.0212 10.5739C16.0212 10.0417 15.5899 9.61026 15.0579 9.61026C14.5259 9.61026 14.0947 10.0417 14.0947 10.5739C14.0947 11.1061 14.5259 11.5375 15.0579 11.5375Z" fill="white"/>
<path d="M12.0383 15.6069C12.0383 15.6069 11.3505 15.5792 11.1044 15.7553C10.8583 15.9314 10.8746 16.2037 10.8746 16.2037C10.8746 16.2037 10.842 16.4825 10.9235 16.6635C11.005 16.8445 11.4826 16.8135 11.7173 17.2162C11.7173 17.2162 11.9324 17.2896 12.0383 17.2684" fill="black"/>
<path d="M12.0383 15.6069C12.0383 15.6069 12.7262 15.5792 12.9723 15.7553C13.2184 15.9313 13.2021 16.2036 13.2021 16.2036C13.2021 16.2036 13.2347 16.4825 13.1532 16.6634C13.0717 16.8444 12.5942 16.8134 12.3595 17.2162C12.3595 17.2162 12.1443 17.2896 12.0383 17.2684" fill="black"/>
<path d="M38.0051 23.8714C42.6252 23.8714 45.795 20.9014 46.3011 17.1537H41.3096C41.0062 18.7402 39.7587 19.6511 38.0051 19.6511C35.8459 19.6511 34.1945 17.7951 34.1945 15.0607C34.1945 12.3262 35.8476 10.5368 38.0051 10.5368C39.7247 10.5368 40.9738 11.55 41.2771 13.1365H46.2346C45.7625 8.98445 42.7939 6.31819 37.9727 6.31819C32.8124 6.31819 29.1705 9.9977 29.1705 15.0607C29.1705 20.1237 32.8465 23.8714 38.0067 23.8714H38.0051Z" fill="white"/>
<path d="M56.5605 23.8711C61.0118 23.8711 63.9124 21.5426 64.5872 17.9297H59.6297C59.2582 19.0436 58.1795 19.7856 56.5264 19.7856C54.536 19.7856 52.9851 18.6035 52.5812 16.2409H64.6878C65.4973 10.7054 62.0565 6.3163 56.2896 6.3163C51.298 6.3163 47.6562 9.96171 47.6562 15.0588C47.6562 20.1559 51.0628 23.8695 56.5589 23.8695L56.5605 23.8711ZM52.7499 12.6978C53.256 10.9084 54.4354 10.0315 56.2912 10.0315C58.147 10.0315 59.461 11.1113 59.5291 12.6978H52.7499Z" fill="white"/>
<path d="M74.5202 24.1701C76.5106 24.1701 78.3989 23.3599 79.3089 22.1112V24.2446H84.2943L84.3005 0H79.3089V8.67592C78.3989 7.42722 76.5106 6.61695 74.5202 6.61695C69.5286 6.61695 66.2242 9.99281 66.2242 15.3935C66.2242 20.7943 69.5286 24.1701 74.5202 24.1701ZM71.2482 15.3935C71.2482 12.6591 72.9012 10.8356 75.2615 10.8356C77.6218 10.8356 79.3089 12.6591 79.3089 15.3935C79.3089 18.128 77.6559 19.9515 75.2615 19.9515C72.8671 19.9515 71.2482 18.0955 71.2482 15.3935Z" fill="white"/>
<path d="M94.4918 23.8711C98.9431 23.8711 101.844 21.5426 102.518 17.9296H97.561C97.1895 19.0436 96.1107 19.7856 94.4577 19.7856C92.4672 19.7856 90.9164 18.6035 90.5125 16.2409H102.619C103.429 10.7054 99.9878 6.31629 94.2208 6.31629C89.2293 6.31629 85.5874 9.9617 85.5874 15.0588C85.5874 20.1559 88.9941 23.8695 94.4902 23.8695L94.4918 23.8711ZM90.6812 12.6978C91.1873 10.9084 92.3667 10.0315 94.2225 10.0315C96.0783 10.0315 97.3923 11.1113 97.4604 12.6978H90.6812Z" fill="white"/>
<path d="M119.911 23.9014C123.827 23.9014 126.63 21.6067 126.63 18.4347C126.63 11.5845 117.547 13.8117 117.547 11.0783C117.547 10.336 118.29 9.89727 119.303 9.89727C120.721 9.89727 121.734 10.6397 122.004 11.8882H126.461C126.022 8.47999 123.456 6.35407 119.303 6.35407C115.454 6.35407 113.091 8.58123 113.091 11.382C113.091 17.7598 122.072 15.7014 122.072 18.6034C122.072 19.5483 121.261 20.1219 119.911 20.1219C118.29 20.1219 117.412 19.3121 117.243 17.8948H112.787C112.989 21.3705 115.589 23.9014 119.911 23.9014Z" fill="#5EA6FF"/>
<path d="M135.849 23.9014C136.794 23.9014 137.604 23.7664 138.415 23.4289V19.2783C137.841 19.4808 137.098 19.582 136.524 19.582C135.207 19.582 134.329 18.7722 134.329 17.1861V10.6734H138.212V6.62403H134.329V2.57465H129.366V6.62403H126.699V10.6734H129.366V17.6586C129.366 21.708 132.168 23.9014 135.849 23.9014Z" fill="#5EA6FF"/>
<path d="M147.77 23.9014C153.003 23.9014 156.819 20.2569 156.819 15.094C156.819 9.96476 153.037 6.35407 147.77 6.35407C142.537 6.35407 138.722 9.96476 138.722 15.094C138.722 20.2232 142.503 23.9014 147.77 23.9014ZM143.752 15.094C143.752 12.3606 145.373 10.5722 147.77 10.5722C150.167 10.5722 151.822 12.3944 151.822 15.094C151.822 17.8273 150.167 19.6833 147.77 19.6833C145.373 19.6833 143.752 17.8273 143.752 15.094Z" fill="#5EA6FF"/>
<path d="M158.368 23.6314H163.365V17.3886C163.365 12.7318 165.492 10.9771 167.754 10.9771C168.531 10.9771 169.273 11.0783 170.084 11.382V6.69152C169.51 6.42156 168.902 6.35407 168.193 6.35407C166.235 6.35407 164.31 7.23143 163.365 8.54748V6.62403H158.368V23.6314Z" fill="#5EA6FF"/>
<path d="M178.746 23.9014C183.202 23.9014 186.106 21.573 186.781 17.9623H181.818C181.447 19.0759 180.366 19.8182 178.712 19.8182C176.72 19.8182 175.167 18.6372 174.762 16.275H186.883C187.693 10.7409 184.249 6.35407 178.476 6.35407C173.479 6.35407 169.832 9.99851 169.832 15.094C169.832 20.2232 173.242 23.9014 178.746 23.9014ZM174.93 12.7318C175.437 10.9434 176.619 10.066 178.476 10.066C180.4 10.066 181.649 11.1458 181.717 12.7318H174.93Z" fill="#5EA6FF"/>
<path d="M105.31 21.7628C105.31 20.4081 106.408 19.3099 107.762 19.3099C109.115 19.3099 110.213 20.4081 110.213 21.7628C110.213 23.1175 109.115 24.2156 107.762 24.2156C106.408 24.2156 105.31 23.1175 105.31 21.7628Z" fill="#5EA6FF"/>
<defs>
<linearGradient id="paint0_linear_661_82555" x1="129.274" y1="28.1449" x2="129.301" y2="-14.1262" gradientUnits="userSpaceOnUse">
<stop stop-color="#5EA6FF"/>
<stop offset="1" stop-color="#5EA6FF" stop-opacity="0.4"/>
</linearGradient>
</defs>
</svg>
