<svg width="41" height="40" viewBox="0 0 41 40" fill="none" xmlns="http://www.w3.org/2000/svg">
<rect x="0.5" width="40" height="40" rx="20" fill="white" fill-opacity="0.05"/>
<path fill-rule="evenodd" clip-rule="evenodd" d="M15.3218 17.8712L20.5006 12.6924L25.6838 17.8756L28.697 14.8624L20.5006 6.66602L12.3086 14.858L15.3218 17.8712ZM7.16602 20L10.1784 16.9876L13.1908 20L10.1784 23.0124L7.16602 20ZM20.5011 27.3102L15.3223 22.1314L12.3047 25.1401L12.3091 25.1446L20.5011 33.3366L28.6975 25.1401L25.6843 22.127L20.5011 27.3102ZM27.8086 20.002L30.821 16.9895L33.8334 20.002L30.821 23.0144L27.8086 20.002ZM20.5009 16.9434L23.5585 20.0009L20.5009 23.0629L17.4434 20.0054V19.9965L17.9803 19.4595L18.2421 19.2021L20.5009 16.9434Z" fill="#F3BA2F"/>
</svg>
