<svg width="41" height="40" viewBox="0 0 41 40" fill="none" xmlns="http://www.w3.org/2000/svg">
<rect x="0.5" width="40" height="40" rx="20" fill="#5442D1"/>
<path d="M19.6825 9.02602C21.9357 8.88397 24.2271 9.32508 26.2512 10.312C29.2376 11.7474 31.613 14.3417 32.7358 17.3996C33.2323 18.7528 33.4996 20.1808 33.4996 21.6163V26.947C33.4996 27.1638 33.5073 27.3881 33.4538 27.5974C33.3316 28.1357 32.9421 28.6067 32.4227 28.8385C32.0637 29.003 31.6512 29.0254 31.2693 28.9656C30.4368 28.8161 29.7952 28.0535 29.7876 27.2311C29.7799 25.5788 29.7876 23.9265 29.7876 22.2667C29.8028 21.7957 29.8028 21.2948 29.5432 20.8836C29.1231 20.121 28.0996 19.7547 27.2823 20.0836C26.5873 20.3229 26.0832 21.0107 26.0755 21.7359C26.0679 23.4181 26.0755 25.0928 26.0755 26.7675C26.0755 27.0816 26.0908 27.403 25.9991 27.7021C25.8235 28.2927 25.3194 28.7712 24.716 28.9357C23.9216 29.1525 23.0127 28.8086 22.6079 28.0909C22.3329 27.6572 22.3558 27.1339 22.3635 26.6554C22.3558 24.9882 22.3711 23.3209 22.3558 21.6537C22.3406 20.8088 21.6302 20.0462 20.7671 19.9341C20.2096 19.8519 19.6214 20.0313 19.2166 20.4201C18.85 20.7565 18.6438 21.2425 18.6438 21.7359V26.5956C18.6361 27.0068 18.6896 27.4255 18.5292 27.8068C18.2848 28.5021 17.5668 29.0105 16.8107 28.988C16.0392 29.0329 15.2831 28.5095 15.0387 27.7993C14.9012 27.4479 14.9317 27.0741 14.9317 26.7003C14.9317 25.0255 14.9394 23.3508 14.9317 21.6686C14.9241 20.8387 14.2672 20.0836 13.4347 19.9341C12.6862 19.7771 11.8536 20.1509 11.4717 20.8163C11.3113 21.0929 11.2273 21.4144 11.2273 21.7284V27.1713C11.235 27.7021 10.9829 28.2254 10.5705 28.5619C9.94415 29.1002 8.9283 29.1301 8.2638 28.6366C7.7826 28.3152 7.5 27.7694 7.5 27.2012V21.6911C7.50764 19.6051 8.0423 17.5267 9.05814 15.695C9.89068 14.1997 11.0287 12.8614 12.3959 11.7998C14.4582 10.1624 17.0398 9.18302 19.6825 9.02602Z" fill="white"/>
</svg>
