<svg width="41" height="40" viewBox="0 0 41 40" fill="none" xmlns="http://www.w3.org/2000/svg">
<rect x="0.5" width="40" height="40" rx="20" fill="#00DCFA"/>
<path d="M24.1846 8C19.9635 8 16.3778 11.2473 15.9259 15.4262C11.7468 15.8776 8.5 19.4638 8.5 23.6848C8.5 28.273 12.2271 32 16.8154 32C21.036 32 24.6366 28.7527 25.0741 24.5738C29.2532 24.1224 32.5 20.5362 32.5 16.3152C32.5 11.727 28.7729 8 24.1846 8ZM30.5519 17.2468C30.1421 20.0283 27.9117 22.2586 25.1307 22.6679V17.2468H30.5519ZM10.4481 22.7532C10.8574 19.9573 13.0883 17.727 15.8693 17.3177V22.7388H10.4481V22.7532ZM23.182 24.6303C22.9569 26.1576 22.1898 27.5529 21.0209 28.5613C19.8519 29.5696 18.3592 30.1237 16.8154 30.1224C15.2715 30.1239 13.7786 29.5698 12.6095 28.5614C11.4404 27.553 10.6732 26.1577 10.4481 24.6303H23.182ZM23.253 17.2473V22.7388H17.747V17.2473H23.253ZM30.5519 15.3691H17.8174C18.0426 13.8419 18.8099 12.4466 19.979 11.4384C21.148 10.4301 22.6408 9.87611 24.1846 9.87764C25.7285 9.87613 27.2214 10.4302 28.3905 11.4386C29.5596 12.447 30.3268 13.8423 30.5519 15.3697V15.3691Z" fill="white"/>
</svg>
