<svg width="41" height="40" viewBox="0 0 41 40" fill="none" xmlns="http://www.w3.org/2000/svg">
<rect x="0.5" width="40" height="40" rx="20" fill="#23AF91"/>
<path fill-rule="evenodd" clip-rule="evenodd" d="M16.8225 20.002L23.3101 26.519L27.4051 22.4062C28.1376 21.7444 29.2576 21.7732 29.9543 22.473C30.6509 23.1729 30.6809 24.2984 30.0209 25.0338L24.6176 30.4625C24.2666 30.8073 23.7975 31 23.3092 31C22.821 31 22.3518 30.8073 22.0009 30.4625L14.205 22.6296V27.2848C14.205 28.3122 13.375 29.1457 12.3525 29.1457C11.3292 29.1457 10.5 28.3122 10.5 27.2848V12.7132C10.5 11.6859 11.3292 10.8532 12.3525 10.8532C13.375 10.8532 14.205 11.6859 14.205 12.7132V17.3684L22.0001 9.53808C22.3506 9.19298 22.8197 9 23.308 9C23.7962 9 24.2653 9.19298 24.6159 9.53808L30.0243 14.9659C30.6834 15.7013 30.6543 16.826 29.9576 17.5259C29.2609 18.2257 28.1409 18.2553 27.4084 17.5927L23.3134 13.4799L16.8225 20.002ZM23.3134 18.1394C22.5634 18.1394 21.8867 18.593 21.5992 19.2886C21.3117 19.9851 21.4709 20.7856 22.0009 21.3188C22.5309 21.8519 23.3284 22.011 24.0217 21.7233C24.3593 21.5842 24.6484 21.3462 24.8523 21.0397C25.0562 20.7331 25.1657 20.3719 25.1667 20.002C25.1667 19.5086 24.9717 19.0347 24.6242 18.6852C24.2767 18.3357 23.8051 18.1394 23.3134 18.1385V18.1394Z" fill="white"/>
</svg>
