<svg width="41" height="40" viewBox="0 0 41 40" fill="none" xmlns="http://www.w3.org/2000/svg">
<rect x="0.5" width="40" height="40" rx="20" fill="white" fill-opacity="0.05"/>
<path d="M23.392 16.666H17.6144C17.3689 16.666 17.1699 16.8649 17.1699 17.1104V22.8881C17.1699 23.1336 17.3689 23.3326 17.6144 23.3326H23.392C23.6375 23.3326 23.8365 23.1336 23.8365 22.8881V17.1104C23.8365 16.8649 23.6375 16.666 23.392 16.666Z" fill="white"/>
<path d="M16.7221 10H10.9445C10.699 10 10.5 10.1989 10.5 10.4445V16.2221C10.5 16.4675 10.699 16.6666 10.9445 16.6666H16.7221C16.9676 16.6666 17.1666 16.4675 17.1666 16.2221V10.4445C17.1666 10.1989 16.9676 10 16.7221 10Z" fill="white"/>
<path d="M30.0542 10H24.2765C24.0311 10 23.832 10.1989 23.832 10.4445V16.2221C23.832 16.4675 24.0311 16.6666 24.2765 16.6666H30.0542C30.2997 16.6666 30.4986 16.4675 30.4986 16.2221V10.4445C30.4986 10.1989 30.2997 10 30.0542 10Z" fill="white"/>
<path d="M16.7221 23.332H10.9445C10.699 23.332 10.5 23.531 10.5 23.7764V29.5541C10.5 29.7996 10.699 29.9986 10.9445 29.9986H16.7221C16.9676 29.9986 17.1666 29.7996 17.1666 29.5541V23.7764C17.1666 23.531 16.9676 23.332 16.7221 23.332Z" fill="white"/>
<path d="M30.0542 23.332H24.2765C24.0311 23.332 23.832 23.531 23.832 23.7764V29.5541C23.832 29.7996 24.0311 29.9986 24.2765 29.9986H30.0542C30.2997 29.9986 30.4986 29.7996 30.4986 29.5541V23.7764C30.4986 23.531 30.2997 23.332 30.0542 23.332Z" fill="white"/>
</svg>
