<svg width="194" height="87" viewBox="0 0 194 87" fill="none" xmlns="http://www.w3.org/2000/svg">
<path fill-rule="evenodd" clip-rule="evenodd" d="M193 6.5L194 6L193 5.5L182 0V6V12L193 6.5ZM10.7551 6.7189C11.4808 6.57535 12.2313 6.5 13 6.5H14.9565V5.5H13C12.1658 5.5 11.3503 5.58178 10.561 5.73791L10.7551 6.7189ZM18.8696 6.5H22.7826V5.5H18.8696V6.5ZM26.6957 6.5H30.6087V5.5H26.6957V6.5ZM34.5217 6.5H38.4348V5.5H34.5217V6.5ZM42.3478 6.5H46.2609V5.5H42.3478V6.5ZM50.1739 6.5H54.087V5.5H50.1739V6.5ZM58 6.5H61.913V5.5H58V6.5ZM65.8261 6.5H69.7391V5.5H65.8261V6.5ZM73.6522 6.5H77.5652V5.5H73.6522V6.5ZM81.4783 6.5H85.3913V5.5H81.4783V6.5ZM89.3043 6.5H93.2174V5.5H89.3043V6.5ZM97.1304 6.5H101.043V5.5H97.1304V6.5ZM104.956 6.5H108.87V5.5H104.956V6.5ZM112.783 6.5H116.696V5.5H112.783V6.5ZM120.609 6.5H124.522V5.5H120.609V6.5ZM128.435 6.5H132.348V5.5H128.435V6.5ZM136.261 6.5H140.174V5.5H136.261V6.5ZM144.087 6.5H148V5.5H144.087V6.5ZM151.913 6.5H155.826V5.5H151.913V6.5ZM159.739 6.5H163.652V5.5H159.739V6.5ZM167.565 6.5H171.478V5.5H167.565V6.5ZM175.391 6.5H179.304V5.5H175.391V6.5ZM3.4367 11.6108C4.27644 10.3565 5.35647 9.27644 6.61077 8.4367L6.05445 7.60573C4.69153 8.51819 3.51819 9.69152 2.60573 11.0544L3.4367 11.6108ZM1.5 18C1.5 17.2313 1.57535 16.4807 1.7189 15.7551L0.737915 15.561C0.581781 16.3503 0.5 17.1658 0.5 18V19.9167H1.5V18ZM1.5 27.5833V23.75H0.5V27.5833H1.5ZM1.5 35.25V31.4167H0.5V35.25H1.5ZM1.5 42.9167V39.0833H0.5V42.9167H1.5ZM1.5 50.5833V46.75H0.5V50.5833H1.5ZM1.5 58.25V54.4167H0.5V58.25H1.5ZM1.5 65.9167V62.0833H0.5V65.9167H1.5ZM1.5 73.5833V69.75H0.5V73.5833H1.5ZM1.5 81.25V77.4167H0.5V81.25H1.5ZM1.5 87V85.0833H0.5V87H1.5Z" fill="#7BB759"/>
</svg>
