<svg width="194" height="87" viewBox="0 0 194 87" fill="none" xmlns="http://www.w3.org/2000/svg">
<path fill-rule="evenodd" clip-rule="evenodd" d="M10.7551 80.2811C11.4808 80.4247 12.2313 80.5 13 80.5H14.9565V81.5H13C12.1658 81.5 11.3503 81.4182 10.561 81.2621L10.7551 80.2811ZM18.8696 80.5H22.7826V81.5H18.8696V80.5ZM26.6957 80.5H30.6087V81.5H26.6957V80.5ZM34.5217 80.5H38.4348V81.5H34.5217V80.5ZM42.3478 80.5H46.2609V81.5H42.3478V80.5ZM50.1739 80.5H54.087V81.5H50.1739V80.5ZM58 80.5H61.913V81.5H58V80.5ZM65.8261 80.5H69.7391V81.5H65.8261V80.5ZM73.6522 80.5H77.5652V81.5H73.6522V80.5ZM81.4783 80.5H85.3913V81.5H81.4783V80.5ZM89.3043 80.5H93.2174V81.5H89.3043V80.5ZM97.1304 80.5H101.043V81.5H97.1304V80.5ZM104.956 80.5H108.87V81.5H104.956V80.5ZM112.783 80.5H116.696V81.5H112.783V80.5ZM120.609 80.5H124.522V81.5H120.609V80.5ZM128.435 80.5H132.348V81.5H128.435V80.5ZM136.261 80.5H140.174V81.5H136.261V80.5ZM144.087 80.5H148V81.5H144.087V80.5ZM151.913 80.5H155.826V81.5H151.913V80.5ZM159.739 80.5H163.652V81.5H159.739V80.5ZM167.565 80.5H171.478V81.5H167.565V80.5ZM175.391 80.5H179.304V81.5H175.391V80.5ZM193 81.5L182 87V81V75L193 80.5L194 81L193 81.5ZM3.4367 75.3892C4.27644 76.6435 5.35647 77.7236 6.61077 78.5633L6.05445 79.3943C4.69153 78.4818 3.51819 77.3085 2.60573 75.9455L3.4367 75.3892ZM1.5 69C1.5 69.7687 1.57535 70.5193 1.7189 71.2449L0.737915 71.439C0.581781 70.6497 0.5 69.8342 0.5 69V67.0833H1.5V69ZM1.5 59.4167V63.25H0.5V59.4167H1.5ZM1.5 51.75V55.5833H0.5V51.75H1.5ZM1.5 44.0833V47.9167H0.5V44.0833H1.5ZM1.5 36.4167V40.25H0.5V36.4167H1.5ZM1.5 28.75V32.5833H0.5V28.75H1.5ZM1.5 21.0833V24.9167H0.5V21.0833H1.5ZM1.5 13.4167V17.25H0.5V13.4167H1.5ZM1.5 5.75V9.58334H0.5V5.75H1.5ZM1.5 0V1.91666H0.5V0H1.5Z" fill="#497BB9"/>
</svg>
