<svg width="40" height="40" viewBox="0 0 40 40" fill="none" xmlns="http://www.w3.org/2000/svg">
<rect width="40" height="40" rx="20" fill="#7950DD"/>
<path d="M25.9416 16.1099C25.5111 15.8562 24.9514 15.8562 24.4779 16.1099L21.1199 18.0549L18.8383 19.3234L15.4804 21.2685C15.0499 21.5222 14.4902 21.5222 14.0166 21.2685L11.3475 19.7463C10.917 19.4926 10.6157 19.0275 10.6157 18.5201V15.518C10.6157 15.0106 10.874 14.5455 11.3475 14.2918L13.9736 12.8118C14.4041 12.5581 14.9637 12.5581 15.4373 12.8118L18.0634 14.2918C18.4939 14.5455 18.7952 15.0106 18.7952 15.518V17.463L21.0769 16.1522V14.2072C21.0769 13.6998 20.8186 13.2347 20.3451 12.981L15.4804 10.1903C15.0499 9.93658 14.4902 9.93658 14.0166 10.1903L9.06584 12.981C8.59229 13.2347 8.33398 13.6998 8.33398 14.2072V19.8309C8.33398 20.3382 8.59229 20.8034 9.06584 21.0571L14.0166 23.8477C14.4471 24.1015 15.0068 24.1015 15.4804 23.8477L18.8383 21.945L21.1199 20.6342L24.4779 18.7315C24.9084 18.4778 25.4681 18.4778 25.9416 18.7315L28.5677 20.2114C28.9982 20.4651 29.2996 20.9302 29.2996 21.4376V24.4397C29.2996 24.9471 29.0412 25.4122 28.5677 25.6659L25.9416 27.1882C25.5111 27.4419 24.9514 27.4419 24.4779 27.1882L21.8518 25.7082C21.4213 25.4546 21.1199 24.9894 21.1199 24.482V22.537L18.8383 23.8477V25.7928C18.8383 26.3002 19.0966 26.7653 19.5702 27.019L24.521 29.8097C24.9514 30.0634 25.5111 30.0634 25.9846 29.8097L30.9355 27.019C31.366 26.7653 31.6673 26.3002 31.6673 25.7928V20.1691C31.6673 19.6617 31.409 19.1966 30.9355 18.9429L25.9416 16.1099Z" fill="white"/>
</svg>
