<svg width="40" height="40" viewBox="0 0 40 40" fill="none" xmlns="http://www.w3.org/2000/svg">
<rect width="40" height="40" rx="20" fill="#1969FF"/>
<path fill-rule="evenodd" clip-rule="evenodd" d="M18.809 6.92146C19.4764 6.58087 20.4918 6.58087 21.1592 6.92146L27.9692 10.3969C28.3711 10.602 28.5919 10.9077 28.6314 11.2232H28.6379V28.6926C28.6291 29.0368 28.4062 29.3787 27.9692 29.6018L21.1592 33.0772C20.4918 33.4178 19.4764 33.4178 18.809 33.0772L11.999 29.6018C11.5638 29.3797 11.3549 29.0353 11.3446 28.6926C11.3436 28.6589 11.3434 28.6308 11.3444 28.6074L11.3444 11.3354C11.3437 11.3165 11.3436 11.2976 11.3442 11.2788L11.3446 11.2232L11.3476 11.2232C11.3779 10.9042 11.5886 10.6064 11.999 10.3969L18.809 6.92146ZM27.5675 20.9688L21.1608 24.2384C20.4935 24.579 19.478 24.579 18.8106 24.2384L12.418 20.976V28.6575L18.8106 31.9027C19.1716 32.0891 19.5462 32.2708 19.9126 32.2939L19.9857 32.2962C20.3444 32.2974 20.6932 32.1321 21.0458 31.9651L21.1139 31.9329L27.5675 28.6296V20.9688ZM10.4783 29.7317C10.3184 29.4217 10.2379 28.9817 10.2379 28.3125H9.16602L9.16613 28.359C9.17374 29.8875 9.55956 30.6221 10.594 31.296C10.6908 31.3592 10.7946 31.4231 10.9198 31.4979L10.9925 31.541L11.4255 31.7937L11.9802 30.9075L11.5934 30.6819L11.4675 30.6073C11.3607 30.5435 11.2729 30.4892 11.1932 30.4373L11.1725 30.4237C10.8095 30.1848 10.6108 29.9885 10.4783 29.7317ZM19.4492 16.2871C19.3996 16.3036 19.3532 16.3226 19.3108 16.3442L12.5008 19.8197C12.4937 19.8233 12.4869 19.8269 12.4804 19.8305L12.4746 19.8337L12.4853 19.8396L12.5008 19.8478L19.3108 23.3232C19.3532 23.3448 19.3996 23.3639 19.4492 23.3803V16.2871ZM20.5215 23.3803V16.2871C20.5711 16.3036 20.6175 16.3226 20.6599 16.3442L27.4699 19.8197L27.4854 19.8278L27.4961 19.8337L27.4903 19.837C27.4838 19.8405 27.477 19.8441 27.4699 19.8478L20.6599 23.3232C20.6175 23.3448 20.5711 23.3639 20.5215 23.3803ZM27.566 12.4629L21.457 15.5806L27.566 18.6983V12.4629ZM18.5127 15.5811L12.418 18.6915V12.4707L18.5127 15.5811ZM20.6598 7.83672C20.3057 7.65599 19.6649 7.65599 19.3108 7.83672L12.5008 11.3122C12.4937 11.3158 12.4869 11.3194 12.4804 11.323L12.4746 11.3262L12.4853 11.3321L12.5008 11.3403L19.3108 14.8157C19.6649 14.9965 20.3057 14.9965 20.6598 14.8157L27.4698 11.3403C27.4769 11.3366 27.4838 11.333 27.4902 11.3295L27.496 11.3262L27.4853 11.3203L27.4698 11.3122L20.6598 7.83672ZM29.0053 8.4714L28.5724 8.21875L28.0176 9.10497L28.4044 9.33051L28.5303 9.40505C28.6372 9.46895 28.7249 9.5233 28.8046 9.5752L28.8253 9.58876C29.1883 9.82763 29.3871 10.0239 29.5196 10.2808C29.6794 10.5908 29.7599 11.0307 29.7599 11.7H30.8318L30.8316 11.6534C30.8241 10.125 30.4383 9.3903 29.4038 8.71641C29.307 8.65337 29.2032 8.58922 29.0781 8.51456L29.0053 8.4714Z" fill="white"/>
</svg>
