<svg width="40" height="40" viewBox="0 0 40 40" fill="none" xmlns="http://www.w3.org/2000/svg">
<rect width="40" height="40" rx="20" fill="#E84142"/>
<path fill-rule="evenodd" clip-rule="evenodd" d="M14.3325 27.9586H10.4511C9.63552 27.9586 9.23261 27.9586 8.98692 27.8014C8.72164 27.6294 8.55947 27.3445 8.53981 27.03C8.5251 26.7401 8.72652 26.3864 9.12943 25.6789L18.7132 8.78619C19.121 8.06885 19.3273 7.71021 19.5877 7.57753C19.8678 7.43509 20.2019 7.43509 20.4819 7.57753C20.7423 7.71021 20.9487 8.06885 21.3565 8.78619L23.3267 12.2254L23.3368 12.243C23.7772 13.0126 24.0006 13.4028 24.0981 13.8124C24.2062 14.2595 24.2062 14.7312 24.0981 15.1783C23.9998 15.591 23.7787 15.9841 23.3316 16.7653L18.2975 25.6642L18.2845 25.687C17.8411 26.4629 17.6164 26.8561 17.305 27.1529C16.966 27.4771 16.5582 27.7129 16.1111 27.8456C15.7033 27.9586 15.2464 27.9586 14.3325 27.9586Z" fill="white"/>
<path fill-rule="evenodd" clip-rule="evenodd" d="M24.1347 27.9596H29.6965C30.517 27.9596 30.9297 27.9596 31.1754 27.7975C31.4406 27.6255 31.6077 27.3356 31.6225 27.0212C31.6367 26.7409 31.4396 26.4008 31.0534 25.7344C31.0402 25.7117 31.0268 25.6886 31.0132 25.6651L28.2274 20.8993L28.1957 20.8457C27.8042 20.1837 27.6065 19.8494 27.3529 19.7202C27.0728 19.5777 26.7436 19.5777 26.4636 19.7202C26.2081 19.8528 26.0017 20.2016 25.5939 20.9042L22.818 25.67L22.8084 25.6865C22.4021 26.3879 22.199 26.7385 22.2136 27.0261C22.2333 27.3406 22.3954 27.6305 22.6607 27.8024C22.9015 27.9596 23.3142 27.9596 24.1347 27.9596Z" fill="white"/>
</svg>
