<svg width="40" height="40" viewBox="0 0 40 40" fill="none" xmlns="http://www.w3.org/2000/svg">
<rect width="40" height="40" rx="20" fill="#F3BA2F"/>
<path d="M22.7795 29.9138V33.2758L19.8485 35L17.0036 33.2758V29.9138L19.8485 31.6379L22.7795 29.9138ZM7.08984 18.2759L9.93467 20V25.7759L14.8485 28.7069V32.069L7.08984 27.5V18.2759ZM32.6071 18.2759V27.5L24.7622 32.069V28.7069L29.676 25.7759V20L32.6071 18.2759ZM24.7622 13.7069L27.6933 15.431V18.7931L22.7795 21.7241V27.5862L19.9347 29.3103L17.0898 27.5862V21.7241L12.0036 18.7931V15.431L14.9347 13.7069L19.8485 16.6379L24.7622 13.7069ZM12.0036 21.2069L14.8485 22.931V26.2931L12.0036 24.569V21.2069ZM27.6933 21.2069V24.569L24.8485 26.2931V22.931L27.6933 21.2069ZM9.93467 10.7759L12.8657 12.5L9.93467 14.2241V17.5862L7.08984 15.8621V12.5L9.93467 10.7759ZM29.7622 10.7759L32.6933 12.5V15.8621L29.7622 17.5862V14.2241L26.9174 12.5L29.7622 10.7759ZM19.8485 10.7759L22.7795 12.5L19.8485 14.2241L17.0036 12.5L19.8485 10.7759ZM19.8485 5L27.6933 9.56896L24.8485 11.2931L19.9347 8.36207L14.9347 11.2931L12.0898 9.56896L19.8485 5Z" fill="white"/>
</svg>
