<svg width="40" height="40" viewBox="0 0 40 40" fill="none" xmlns="http://www.w3.org/2000/svg">
<rect width="40" height="40" rx="20" fill="white" fill-opacity="0.05"/>
<path d="M28.369 10C27.6283 10 26.9406 10.384 26.5525 11.0154L22.372 17.2222C22.2358 17.4268 22.2911 17.7026 22.4957 17.8387C22.6615 17.9493 22.8808 17.9356 23.0318 17.8057L27.1468 14.2365C27.2152 14.1749 27.3206 14.1812 27.3821 14.2496C27.4101 14.2809 27.4249 14.3214 27.4249 14.363V25.5379C27.4249 25.6302 27.3502 25.7043 27.2579 25.7043C27.2084 25.7043 27.1616 25.6826 27.1303 25.6444L14.6913 10.7544C14.2862 10.2764 13.6914 10.0006 13.0652 10H12.6304C11.4538 10 10.5 10.9538 10.5 12.1305V27.8695C10.5 29.0462 11.4538 30 12.6304 30C13.3711 30 14.0589 29.616 14.4469 28.9846L18.6274 22.7778C18.7636 22.5732 18.7083 22.2974 18.5038 22.1613C18.338 22.0507 18.1186 22.0644 17.9676 22.1943L13.8526 25.7635C13.7842 25.8251 13.6788 25.8188 13.6173 25.7504C13.5894 25.7191 13.5746 25.6786 13.5751 25.637V14.4593C13.5751 14.367 13.6498 14.2929 13.7421 14.2929C13.7911 14.2929 13.8384 14.3145 13.8697 14.3527L26.307 29.2456C26.7121 29.7236 27.3069 29.9994 27.9331 30H28.3679C29.5445 30.0006 30.4989 29.0473 30.5 27.8707V12.1305C30.5 10.9538 29.5462 10 28.3696 10H28.369Z" fill="white"/>
</svg>
