<svg width="20" height="20" viewBox="0 0 20 20" fill="none" xmlns="http://www.w3.org/2000/svg">
<path d="M16.9419 3.25628C15.6302 2.66169 14.2427 2.2392 12.8158 2C12.638 2.31133 12.4304 2.73006 12.2872 3.06318C10.7487 2.83906 9.22444 2.83906 7.71429 3.06318C7.57116 2.73013 7.35882 2.31133 7.17945 2C5.75116 2.23931 4.36238 2.66287 3.05015 3.25938C0.438901 7.08256 -0.26899 10.8107 0.0849164 14.486C1.81687 15.7391 3.49531 16.5004 5.14546 16.9985C5.55557 16.4521 5.91809 15.8736 6.22929 15.269C5.63681 15.0504 5.06564 14.7811 4.52257 14.4642C4.66548 14.3616 4.80503 14.2546 4.94101 14.1435C8.23179 15.6348 11.8074 15.6348 15.059 14.1435C15.1955 14.2539 15.335 14.3608 15.4773 14.4642C14.9334 14.7819 14.3612 15.0518 13.7675 15.2706C14.0805 15.8776 14.4423 16.4567 14.8513 17C16.503 16.5019 18.183 15.7407 19.915 14.486C20.3303 10.2254 19.2056 6.53151 16.9419 3.25628ZM6.67765 12.2257C5.68976 12.2257 4.8796 11.3322 4.8796 10.2441C4.8796 9.15601 5.67249 8.26094 6.67765 8.26094C7.68288 8.26094 8.49296 9.15442 8.4757 10.2441C8.47726 11.3322 7.68288 12.2257 6.67765 12.2257ZM13.3223 12.2257C12.3344 12.2257 11.5243 11.3322 11.5243 10.2441C11.5243 9.15601 12.3171 8.26094 13.3223 8.26094C14.3275 8.26094 15.1376 9.15442 15.1203 10.2441C15.1203 11.3322 14.3275 12.2257 13.3223 12.2257Z" fill="white"/>
</svg>
