<svg width="24" height="25" viewBox="0 0 24 25" fill="none" xmlns="http://www.w3.org/2000/svg">
<g clip-path="url(#clip0_661_81019)">
<path d="M20.3302 5.05597C18.7563 4.31954 17.0912 3.79627 15.3789 3.5C15.1656 3.88559 14.9165 4.40422 14.7446 4.81681C12.8985 4.53922 11.0693 4.53922 9.25715 4.81681C9.0854 4.40431 8.83059 3.88559 8.61534 3.5C6.90139 3.79641 5.23486 4.32101 3.66018 5.05981C0.526681 9.79503 -0.322788 14.4125 0.1019 18.9646C2.18024 20.5167 4.19437 21.4595 6.17456 22.0765C6.66668 21.3997 7.10171 20.6832 7.47515 19.9344C6.76417 19.6637 6.07877 19.3301 5.42709 18.9376C5.59858 18.8105 5.76604 18.678 5.92921 18.5404C9.87815 20.3875 14.1689 20.3875 18.0708 18.5404C18.2347 18.6771 18.4021 18.8096 18.5728 18.9376C17.9201 19.3312 17.2334 19.6654 16.521 19.9363C16.8966 20.6882 17.3308 21.4054 17.8216 22.0783C19.8036 21.4615 21.8196 20.5186 23.898 18.9646C24.3964 13.6876 23.0467 9.11253 20.3302 5.05597ZM8.01318 16.1652C6.82771 16.1652 5.85552 15.0584 5.85552 13.7108C5.85552 12.3631 6.80699 11.2545 8.01318 11.2545C9.21946 11.2545 10.1916 12.3612 10.1708 13.7108C10.1727 15.0584 9.21946 16.1652 8.01318 16.1652ZM15.9867 16.1652C14.8012 16.1652 13.8291 15.0584 13.8291 13.7108C13.8291 12.3631 14.7805 11.2545 15.9867 11.2545C17.193 11.2545 18.1651 12.3612 18.1444 13.7108C18.1444 15.0584 17.193 16.1652 15.9867 16.1652Z" fill="#5865F2"/>
</g>
<defs>
<clipPath id="clip0_661_81019">
<rect width="24" height="24" fill="white" transform="translate(0 0.5)"/>
</clipPath>
</defs>
</svg>
