<svg width="30" height="25" viewBox="0 0 30 25" fill="none" xmlns="http://www.w3.org/2000/svg">
<path d="M16.9219 12.4375C16.9219 17.0969 13.1344 20.875 8.46 20.875C7.35049 20.8765 6.25156 20.6594 5.22595 20.2362C4.20033 19.813 3.26812 19.1919 2.48253 18.4084C1.69695 17.6249 1.07338 16.6943 0.647426 15.6699C0.221472 14.6454 0.00147639 13.547 0 12.4375C0 7.77626 3.7875 4.00001 8.46 4.00001C9.56966 3.99829 10.6688 4.21517 11.6946 4.63829C12.7205 5.0614 13.6529 5.68245 14.4387 6.46597C15.2245 7.24949 15.8482 8.18013 16.2743 9.20473C16.7003 10.2293 16.9204 11.3278 16.9219 12.4375ZM26.2031 12.4375C26.2031 16.825 24.3094 20.38 21.9731 20.38C19.6369 20.38 17.7431 16.8231 17.7431 12.4375C17.7431 8.05001 19.6369 4.49501 21.9731 4.49501C24.3094 4.49501 26.2031 8.05188 26.2031 12.4375ZM30 12.4375C30 16.3675 29.3344 19.5531 28.5113 19.5531C27.69 19.5531 27.0244 16.3656 27.0244 12.4375C27.0244 8.50751 27.69 5.32188 28.5131 5.32188C29.3344 5.32188 30 8.50751 30 12.4375Z" fill="#00DE78"/>
</svg>
