<svg width="24" height="25" viewBox="0 0 24 25" fill="none" xmlns="http://www.w3.org/2000/svg">
<path d="M24 4.80888C23.1013 5.20701 22.148 5.46834 21.1719 5.58419C22.1887 4.97481 22.9693 4.00984 23.3369 2.86009C22.3704 3.43364 21.3129 3.83774 20.2103 4.05494C19.312 3.09803 18.0324 2.5 16.6162 2.5C13.8968 2.5 11.6921 4.70463 11.6921 7.42375C11.6921 7.80972 11.7357 8.18547 11.8196 8.54594C7.72744 8.34053 4.09931 6.38031 1.67072 3.40131C1.24697 4.12853 1.00416 4.97444 1.00416 5.87669C1.00416 7.585 1.8735 9.09203 3.19462 9.97506C2.4127 9.95057 1.64798 9.73938 0.964313 9.35913C0.964031 9.37975 0.964031 9.40038 0.964031 9.42109C0.964031 11.8068 2.66128 13.7969 4.91372 14.2492C4.18864 14.4464 3.42809 14.4753 2.69016 14.3336C3.31669 16.2898 5.13516 17.7133 7.28972 17.7531C5.60456 19.0737 3.48141 19.8609 1.17459 19.8609C0.777094 19.8609 0.385219 19.8376 0 19.7921C2.17903 21.1892 4.76719 22.0043 7.54781 22.0043C16.6047 22.0043 21.5573 14.5014 21.5573 7.99478C21.5573 7.78122 21.5526 7.56888 21.543 7.35775C22.507 6.66089 23.339 5.79776 24 4.80888Z" fill="#55ACEE"/>
</svg>
