<svg width="24" height="25" viewBox="0 0 24 25" fill="none" xmlns="http://www.w3.org/2000/svg">
<path d="M19.0409 19.5412H16.0776V14.9003C16.0776 13.7937 16.0578 12.369 14.5363 12.369C12.9929 12.369 12.7567 13.5748 12.7567 14.8197V19.5408H9.79344V9.99741H12.6382V11.3016H12.678C12.9627 10.8148 13.3741 10.4144 13.8684 10.1429C14.3627 9.87141 14.9214 9.73908 15.4849 9.75999C18.4884 9.75999 19.0422 11.7356 19.0422 14.3058L19.0409 19.5412ZM6.44969 8.69295C5.49992 8.69311 4.72984 7.92327 4.72969 6.9735C4.72953 6.02374 5.4993 5.25366 6.44906 5.2535C7.39883 5.25327 8.1689 6.02311 8.16906 6.97288C8.16914 7.42897 7.98804 7.86642 7.6656 8.189C7.34316 8.51157 6.90578 8.69285 6.44969 8.69295ZM7.9314 19.5412H4.96492V9.99741H7.93133V19.5412L7.9314 19.5412ZM20.5183 2.50139H3.47586C2.67039 2.49233 2.00984 3.13757 2 3.94303V21.0565C2.00953 21.8624 2.67 22.5083 3.47578 22.4998H20.5183C21.3258 22.5098 21.9888 21.864 22 21.0565V3.94171C21.9885 3.13468 21.3254 2.48952 20.5183 2.50007" fill="#0A66C2"/>
</svg>
