<svg width="106" height="106" viewBox="0 0 106 106" fill="none" xmlns="http://www.w3.org/2000/svg">
<path d="M0.00718096 25.4391C0.00718096 11.3854 11.399 0 25.4446 0H80.5626C94.6154 0 106 11.3926 106 25.4391V80.5609C106 94.6146 94.6082 106 80.5626 106H25.3151C11.3343 106 0 94.6649 0 80.6831V25.432L0.00718096 25.4391Z" fill="url(#paint0_linear_870_113913)"/>
<path d="M6.12598 28.6178C6.12598 16.1895 16.2017 6.1131 28.6291 6.1131H77.3896C89.817 6.1131 99.8927 16.1895 99.8927 28.6178V77.3815C99.8927 89.8098 89.817 99.8862 77.3896 99.8862H28.5141C16.1442 99.8862 6.11878 89.8602 6.11878 77.4894V28.6106L6.12598 28.6178Z" fill="black"/>
<path d="M12.2376 31.7971C12.2376 20.9871 20.9972 12.2268 31.8065 12.2268H74.2093C85.0186 12.2268 93.7782 20.9871 93.7782 31.7971V74.2029C93.7782 85.0129 85.0186 93.7731 74.2093 93.7731H31.713C20.9612 93.7731 12.2447 85.056 12.2447 74.2964V31.7971H12.2376Z" fill="white"/>
<path d="M44.0729 57.0685C48.0647 50.1541 46.9227 42.021 41.5223 38.9029C36.1218 35.7847 28.5079 38.8622 24.5161 45.7766C20.5243 52.6911 21.6663 60.8241 27.0667 63.9423C32.4672 67.0604 40.0812 63.983 44.0729 57.0685Z" fill="black"/>
<path d="M79.173 63.9998C84.5734 60.8816 85.7154 52.7486 81.7236 45.8342C77.7318 38.9197 70.1179 35.8423 64.7174 38.9604C59.317 42.0786 58.175 50.2116 62.1668 57.1261C66.1586 64.0405 73.7725 67.118 79.173 63.9998Z" fill="black"/>
<path d="M53.1189 68.8443C53.1189 68.8443 50.0839 68.722 48.998 69.4988C47.912 70.2755 47.9839 71.4766 47.9839 71.4766C47.9839 71.4766 47.8401 72.7065 48.1997 73.5049C48.5593 74.3032 50.6665 74.1666 51.7021 75.9431C51.7021 75.9431 52.6514 76.2667 53.1189 76.1732" fill="black"/>
<path d="M53.1189 68.8443C53.1189 68.8443 56.1539 68.7218 57.2399 69.4986C58.3259 70.2754 58.254 71.4765 58.254 71.4765C58.254 71.4765 58.3978 72.7064 58.0382 73.5047C57.6786 74.303 55.5714 74.1664 54.5358 75.9429C54.5358 75.9429 53.5864 76.2667 53.1189 76.1732" fill="black"/>
<path d="M67.7025 46.1402C70.1856 45.2364 73.1917 47.2321 72.3888 45.0261C71.5858 42.8201 68.9219 41.7644 66.4388 42.6682C63.9556 43.572 62.5935 46.093 63.3964 48.299C64.1993 50.505 65.2193 47.044 67.7025 46.1402Z" fill="white"/>
<path d="M38.8606 46.3307C41.3437 47.2345 42.3637 50.6955 43.1666 48.4895C43.9695 46.2835 42.6074 43.7625 40.1242 42.8587C37.6411 41.9549 34.9772 43.0106 34.1742 45.2165C33.3713 47.4225 36.3774 45.4269 38.8606 46.3307Z" fill="white"/>
<defs>
<linearGradient id="paint0_linear_870_113913" x1="53" y1="0" x2="53" y2="118.574" gradientUnits="userSpaceOnUse">
<stop stop-color="#5EA6FF"/>
<stop offset="1" stop-color="#5EA6FF" stop-opacity="0.4"/>
</linearGradient>
</defs>
</svg>
