<svg width="48" height="48" viewBox="0 0 48 48" fill="none" xmlns="http://www.w3.org/2000/svg">
<rect width="48" height="48" rx="24" fill="white" fill-opacity="0.05"/>
<path d="M38.1754 8.5L25.8828 17.7188L28.1687 12.2859L38.1754 8.5Z" fill="#E17726" stroke="#E17726" stroke-width="0.25" stroke-linecap="round" stroke-linejoin="round"/>
<path d="M9.82227 8.5L22.0054 17.8048L19.829 12.2859L9.82227 8.5Z" fill="#E27625" stroke="#E27625" stroke-width="0.25" stroke-linecap="round" stroke-linejoin="round"/>
<path d="M33.7492 29.875L30.4785 34.9392L37.482 36.8936L39.4882 29.9857L33.7492 29.875Z" fill="#E27625" stroke="#E27625" stroke-width="0.25" stroke-linecap="round" stroke-linejoin="round"/>
<path d="M8.52148 29.9857L10.5155 36.8936L17.5068 34.9392L14.2483 29.875L8.52148 29.9857Z" fill="#E27625" stroke="#E27625" stroke-width="0.25" stroke-linecap="round" stroke-linejoin="round"/>
<path d="M17.129 21.3199L15.1836 24.2945L22.1141 24.6141L21.8831 17.0547L17.129 21.3199Z" fill="#E27625" stroke="#E27625" stroke-width="0.25" stroke-linecap="round" stroke-linejoin="round"/>
<path d="M30.8678 21.32L26.0409 16.9688L25.8828 24.6142L32.8133 24.2946L30.8678 21.32Z" fill="#E27625" stroke="#E27625" stroke-width="0.25" stroke-linecap="round" stroke-linejoin="round"/>
<path d="M17.5059 34.9395L21.7006 32.8868L18.0895 30.0352L17.5059 34.9395Z" fill="#E27625" stroke="#E27625" stroke-width="0.25" stroke-linecap="round" stroke-linejoin="round"/>
<path opacity="0.8" d="M26.2969 32.8868L30.4794 34.9395L29.908 30.0352L26.2969 32.8868Z" fill="#E27625" stroke="#E27625" stroke-width="0.25" stroke-linecap="round" stroke-linejoin="round"/>
<path d="M30.4794 34.9394L26.2969 32.8867L26.6373 35.64L26.6008 36.8078L30.4794 34.9394Z" fill="#D5BFB2" stroke="#D5BFB2" stroke-width="0.25" stroke-linecap="round" stroke-linejoin="round"/>
<path d="M17.5059 34.9394L21.3967 36.8078L21.3724 35.64L21.7006 32.8867L17.5059 34.9394Z" fill="#D5BFB2" stroke="#D5BFB2" stroke-width="0.25" stroke-linecap="round" stroke-linejoin="round"/>
<path d="M21.4696 28.2166L17.9922 27.1842L20.4482 26.041L21.4696 28.2166Z" fill="#233447" stroke="#233447" stroke-width="0.25" stroke-linecap="round" stroke-linejoin="round"/>
<path d="M26.5273 28.2166L27.5487 26.041L30.0169 27.1842L26.5273 28.2166Z" fill="#233447" stroke="#233447" stroke-width="0.25" stroke-linecap="round" stroke-linejoin="round"/>
<path d="M17.5066 34.9392L18.1145 29.875L14.248 29.9857L17.5066 34.9392Z" fill="#CC6228" stroke="#CC6228" stroke-width="0.25" stroke-linecap="round" stroke-linejoin="round"/>
<path d="M29.8828 29.875L30.4786 34.9392L33.7493 29.9857L29.8828 29.875Z" fill="#CC6228" stroke="#CC6228" stroke-width="0.25" stroke-linecap="round" stroke-linejoin="round"/>
<path d="M32.8133 24.2949L25.8828 24.6145L26.5272 28.2161L27.5486 26.0403L30.0168 27.1835L32.8133 24.2949Z" fill="#CC6228" stroke="#CC6228" stroke-width="0.25" stroke-linecap="round" stroke-linejoin="round"/>
<path d="M17.9923 27.1835L20.4483 26.0403L21.4697 28.2161L22.1141 24.6145L15.1836 24.2949L17.9923 27.1835Z" fill="#CC6228" stroke="#CC6228" stroke-width="0.25" stroke-linecap="round" stroke-linejoin="round"/>
<path d="M15.1836 24.2949L18.0896 30.0352L17.9922 27.1835L15.1836 24.2949Z" fill="#E27525" stroke="#E27525" stroke-width="0.25" stroke-linecap="round" stroke-linejoin="round"/>
<path d="M30.0176 27.1835L29.9082 30.0352L32.8142 24.2949L30.0176 27.1835Z" fill="#E27525" stroke="#E27525" stroke-width="0.25" stroke-linecap="round" stroke-linejoin="round"/>
<path d="M22.1152 24.6152L21.4707 28.2168L22.2853 32.4697L22.4677 26.8647L22.1152 24.6152Z" fill="#E27525" stroke="#E27525" stroke-width="0.25" stroke-linecap="round" stroke-linejoin="round"/>
<path d="M25.8835 24.6152L25.543 26.8524L25.7132 32.4697L26.5278 28.2168L25.8835 24.6152Z" fill="#E27525" stroke="#E27525" stroke-width="0.25" stroke-linecap="round" stroke-linejoin="round"/>
<path d="M26.5275 28.2161L25.7129 32.469L26.2965 32.887L29.9077 30.0353L30.0171 27.1836L26.5275 28.2161Z" fill="#F5841F" stroke="#F5841F" stroke-width="0.25" stroke-linecap="round" stroke-linejoin="round"/>
<path d="M17.9922 27.1836L18.0895 30.0353L21.7006 32.887L22.2843 32.469L21.4696 28.2161L17.9922 27.1836Z" fill="#F5841F" stroke="#F5841F" stroke-width="0.25" stroke-linecap="round" stroke-linejoin="round"/>
<path d="M26.6006 36.8078L26.637 35.6401L26.321 35.3696H21.6763L21.3724 35.6401L21.3967 36.8078L17.5059 34.9395L18.8676 36.0703L21.6277 38.0001H26.3574L29.1296 36.0703L30.4792 34.9395L26.6006 36.8078Z" fill="#C0AC9D" stroke="#C0AC9D" stroke-width="0.25" stroke-linecap="round" stroke-linejoin="round"/>
<path d="M26.2973 32.8866L25.7137 32.4688H22.2849L21.7014 32.8866L21.373 35.64L21.677 35.3696H26.3217L26.6378 35.64L26.2973 32.8866Z" fill="#161616" stroke="#161616" stroke-width="0.25" stroke-linecap="round" stroke-linejoin="round"/>
<path d="M38.6987 18.3211L39.7323 13.2323L38.1759 8.5L26.2969 17.4115L30.8685 21.3203L37.3248 23.2255L38.7474 21.5416L38.1274 21.0867L39.1121 20.1772L38.3583 19.5872L39.3432 18.8251L38.6987 18.3211Z" fill="#763E1A" stroke="#763E1A" stroke-width="0.25" stroke-linecap="round" stroke-linejoin="round"/>
<path d="M8.26562 13.2323L9.31128 18.3211L8.64255 18.8251L9.63956 19.5872L8.88572 20.1772L9.87058 21.0867L9.25048 21.5416L10.6731 23.2255L17.1294 21.3203L21.701 17.4115L9.82195 8.5L8.26562 13.2323Z" fill="#763E1A" stroke="#763E1A" stroke-width="0.25" stroke-linecap="round" stroke-linejoin="round"/>
<path d="M37.325 23.2255L30.8687 21.3203L32.8142 24.2949L29.9082 30.0351L33.7504 29.986H39.4893L37.325 23.2255Z" fill="#F5841F" stroke="#F5841F" stroke-width="0.25" stroke-linecap="round" stroke-linejoin="round"/>
<path d="M17.1298 21.3203L10.6736 23.2255L8.52148 29.986H14.2483L18.0904 30.0351L15.1845 24.2949L17.1298 21.3203Z" fill="#F5841F" stroke="#F5841F" stroke-width="0.25" stroke-linecap="round" stroke-linejoin="round"/>
<path d="M25.8832 24.6138L26.2966 17.4108L28.169 12.2852H19.8281L21.7005 17.4108L22.1139 24.6138L22.272 26.8754L22.2842 32.4682H25.7129L25.7251 26.8754L25.8832 24.6138Z" fill="#F5841F" stroke="#F5841F" stroke-width="0.25" stroke-linecap="round" stroke-linejoin="round"/>
</svg>
