<svg width="4997" height="365" viewBox="0 0 4997 365" fill="none" xmlns="http://www.w3.org/2000/svg">
<path d="M0.5 12L1790.04 12L2085.09 12H2308.84C2449.9 12 2461.11 246.684 2597.38 210.215V210.215L2693.32 184.539C2755.19 167.984 2817.44 209.322 2817.44 266.956V301.333C2817.44 329.868 2843.36 353 2875.34 353C2907.32 353 2933.24 329.868 2933.24 301.333V266.956C2933.24 209.322 2995.49 167.984 3057.35 184.539L3153.29 210.215C3219.66 227.977 3287.77 208.047 3330.32 165.352C3365.41 130.145 3406.3 91.4001 3456 91.4001V91.4001H4996.5" stroke="white" stroke-width="24"/>
<path d="M0.5 12L1790.04 12L2085.09 12H2308.84C2449.9 12 2461.11 246.684 2597.38 210.215V210.215L2693.32 184.539C2755.19 167.984 2817.44 209.322 2817.44 266.956V301.333C2817.44 329.868 2843.36 353 2875.34 353C2907.32 353 2933.24 329.868 2933.24 301.333V266.956C2933.24 209.322 2995.49 167.984 3057.35 184.539L3153.29 210.215C3219.66 227.977 3287.77 208.047 3330.32 165.352C3365.41 130.145 3406.3 91.4001 3456 91.4001V91.4001H4996.5" stroke="url(#paint0_linear_1751_206918)" stroke-width="24"/>
<defs>
<linearGradient id="paint0_linear_1751_206918" x1="2358.67" y1="59.3096" x2="2438.38" y2="-57.9149" gradientUnits="userSpaceOnUse">
<stop stop-color="#5EA6FF"/>
<stop offset="1" stop-color="#A6FB75"/>
</linearGradient>
</defs>
</svg>
