<svg id="ePQf8aV30lX1" xmlns="http://www.w3.org/2000/svg" xmlns:xlink="http://www.w3.org/1999/xlink" viewBox="0 0 280 293" shape-rendering="geometricPrecision" text-rendering="geometricPrecision">
<style><![CDATA[
#ePQf8aV30lX2_tr {animation: ePQf8aV30lX2_tr__tr 4500ms linear infinite normal forwards}@keyframes ePQf8aV30lX2_tr__tr { 0% {transform: translate(140px,100.000302px) rotate(0deg)} 4.444444% {transform: translate(140px,100.000302px) rotate(0deg)} 17.777778% {transform: translate(140px,100.000302px) rotate(89.892012deg)} 100% {transform: translate(140px,100.000302px) rotate(89.892012deg)}} #ePQf8aV30lX2_ts {animation: ePQf8aV30lX2_ts__ts 4500ms linear infinite normal forwards}@keyframes ePQf8aV30lX2_ts__ts { 0% {transform: scale(0.999999,0.999999)} 44.444444% {transform: scale(0.999999,0.999999)} 55.555556% {transform: scale(0.969577,0.969577)} 66.666667% {transform: scale(0.999997,0.999997)} 100% {transform: scale(0.999997,0.999997)}} #ePQf8aV30lX2 {animation: ePQf8aV30lX2_c_o 4500ms linear infinite normal forwards}@keyframes ePQf8aV30lX2_c_o { 0% {opacity: 1} 35.555556% {opacity: 1} 46.666667% {opacity: 0} 100% {opacity: 0}} #ePQf8aV30lX3_tr {animation: ePQf8aV30lX3_tr__tr 4500ms linear infinite normal forwards}@keyframes ePQf8aV30lX3_tr__tr { 0% {transform: translate(140px,100.000302px) rotate(0deg)} 11.111111% {transform: translate(140px,100.000302px) rotate(0deg)} 24.444444% {transform: translate(140px,100.000302px) rotate(90.934624deg)} 100% {transform: translate(140px,100.000302px) rotate(90.934624deg)}} #ePQf8aV30lX3_ts {animation: ePQf8aV30lX3_ts__ts 4500ms linear infinite normal forwards}@keyframes ePQf8aV30lX3_ts__ts { 0% {transform: scale(0.999999,0.999999)} 44.444444% {transform: scale(0.999999,0.999999)} 55.555556% {transform: scale(0.969577,0.969577)} 66.666667% {transform: scale(0.999997,0.999997)} 100% {transform: scale(0.999997,0.999997)}} #ePQf8aV30lX3 {animation: ePQf8aV30lX3_c_o 4500ms linear infinite normal forwards}@keyframes ePQf8aV30lX3_c_o { 0% {opacity: 1} 35.555556% {opacity: 1} 46.666667% {opacity: 0} 100% {opacity: 0}} #ePQf8aV30lX4_tr {animation: ePQf8aV30lX4_tr__tr 4500ms linear infinite normal forwards}@keyframes ePQf8aV30lX4_tr__tr { 0% {transform: translate(140px,100.000302px) rotate(0deg)} 15.555556% {transform: translate(140px,100.000302px) rotate(0deg)} 35.555556% {transform: translate(140px,100.000302px) rotate(90.140193deg)} 91.111111% {transform: translate(140px,100.000302px) rotate(90.340978deg)} 100% {transform: translate(140px,100.000302px) rotate(0deg)}} #ePQf8aV30lX4_ts {animation: ePQf8aV30lX4_ts__ts 4500ms linear infinite normal forwards}@keyframes ePQf8aV30lX4_ts__ts { 0% {transform: scale(0.999999,0.999999)} 44.444444% {transform: scale(0.999999,0.999999)} 55.555556% {transform: scale(0.969577,0.969577)} 66.666667% {transform: scale(0.999997,0.999997)} 100% {transform: scale(0.999997,0.999997)}} #ePQf8aV30lX5_ts {animation: ePQf8aV30lX5_ts__ts 4500ms linear infinite normal forwards}@keyframes ePQf8aV30lX5_ts__ts { 0% {transform: translate(139.811526px,193px) scale(1,1)} 44.444444% {transform: translate(139.811526px,193px) scale(1,1)} 55.555556% {transform: translate(139.811526px,193px) scale(0.96958,0.96958)} 66.666667% {transform: translate(139.811526px,193px) scale(1,1)} 100% {transform: translate(139.811526px,193px) scale(1,1)}}
]]></style>
<g id="ePQf8aV30lX2_tr" transform="translate(140,100.000302) rotate(0)"><g id="ePQf8aV30lX2_ts" transform="scale(0.999999,0.999999)"><path id="ePQf8aV30lX2" d="M140,0c-13.132,0-26.136,2.58658-38.268,7.61205C89.5991,12.6375,78.5752,20.0035,69.2893,29.2893C60.0035,38.5752,52.6375,49.5991,47.612,61.7317s-7.612,25.1361-7.612,38.2683c0,13.132,2.5866,26.136,7.6121,38.268c5.0254,12.133,12.3914,23.157,21.6772,32.443c9.2859,9.286,20.3098,16.651,32.4427,21.677C113.864,197.413,126.868,200,140,200v-35c-8.536,0-16.988-1.681-24.874-4.948-7.887-3.266-15.052-8.054-21.0879-14.09-6.0358-6.036-10.8237-13.201-14.0903-21.088C76.6813,116.988,75,108.536,75,100c0-8.5359,1.6813-16.9883,4.9478-24.8744c3.2666-7.8862,8.0544-15.0517,14.0903-21.0875s13.2009-10.8237,21.0879-14.0903C123.012,36.6813,131.464,35,140,35v-35Z" transform="translate(-140,-100)" fill="#a6fb75"/></g></g><g id="ePQf8aV30lX3_tr" transform="translate(140,100.000302) rotate(0)"><g id="ePQf8aV30lX3_ts" transform="scale(0.999999,0.999999)"><path id="ePQf8aV30lX3" d="M140,0c-13.132,0-26.136,2.58658-38.268,7.61205C89.5991,12.6375,78.5752,20.0035,69.2893,29.2893C60.0035,38.5752,52.6375,49.5991,47.612,61.7317s-7.612,25.1361-7.612,38.2683c0,13.132,2.5866,26.136,7.6121,38.268c5.0254,12.133,12.3914,23.157,21.6772,32.443c9.2859,9.286,20.3098,16.651,32.4427,21.677C113.864,197.413,126.868,200,140,200v-35c-8.536,0-16.988-1.681-24.874-4.948-7.887-3.266-15.052-8.054-21.0879-14.09-6.0358-6.036-10.8237-13.201-14.0903-21.088C76.6813,116.988,75,108.536,75,100c0-8.5359,1.6813-16.9883,4.9478-24.8744c3.2666-7.8862,8.0544-15.0517,14.0903-21.0875s13.2009-10.8237,21.0879-14.0903C123.012,36.6813,131.464,35,140,35v-35Z" transform="translate(-140,-100)" fill="#5fa6ff"/></g></g><g id="ePQf8aV30lX4_tr" transform="translate(140,100.000302) rotate(0)"><g id="ePQf8aV30lX4_ts" transform="scale(0.999999,0.999999)"><path d="M140,0c-13.132,0-26.136,2.58658-38.268,7.61205C89.5991,12.6375,78.5752,20.0035,69.2893,29.2893C60.0035,38.5752,52.6375,49.5991,47.612,61.7317s-7.612,25.1361-7.612,38.2683c0,13.132,2.5866,26.136,7.6121,38.268c5.0254,12.133,12.3914,23.157,21.6772,32.443c9.2859,9.286,20.3098,16.651,32.4427,21.677C113.864,197.413,126.868,200,140,200v-35c-8.536,0-16.988-1.681-24.874-4.948-7.887-3.266-15.052-8.054-21.0879-14.09-6.0358-6.036-10.8237-13.201-14.0903-21.088C76.6813,116.988,75,108.536,75,100c0-8.5359,1.6813-16.9883,4.9478-24.8744c3.2666-7.8862,8.0544-15.0517,14.0903-21.0875s13.2009-10.8237,21.0879-14.0903C123.012,36.6813,131.464,35,140,35v-35Z" transform="translate(-140,-100)" fill="#fff"/></g></g><g id="ePQf8aV30lX5_ts" transform="translate(139.811526,193) scale(1,1)"><path d="M0,145.174C0,116.359,23.7838,93,53.1225,93h42.0108c6.8277,0,13.4747,2.1518,18.9637,6.139l6.014,4.368c11.071,8.041,26.146,8.196,37.386.385l7.392-5.1376C170.276,95.0105,176.713,93,183.312,93h43.566C256.216,93,280,116.359,280,145.174v95.652C280,269.641,256.216,293,226.877,293h-173.7544C23.7838,293,0,269.641,0,240.826v-95.652Z" transform="translate(-140,-193)" fill="#fff"/></g></svg>
