<svg width="142" height="142" viewBox="0 0 142 142" fill="none" xmlns="http://www.w3.org/2000/svg">
<rect x="0.5" y="0.5" width="141" height="141" rx="70.5" fill="#171717"/>
<path fill-rule="evenodd" clip-rule="evenodd" d="M53.5301 63.8137L71.0054 46.3384L88.4956 63.8286L98.6634 53.6609L71.0054 26.0029L43.3624 53.6459L53.5301 63.8137ZM26.0078 70.9985L36.1729 60.8334L46.3379 70.9985L36.1729 81.1635L26.0078 70.9985ZM70.9984 95.6667L53.5231 78.1914L43.3404 88.3442L43.3554 88.3591L70.9984 116.002L98.6564 88.3442L88.4886 78.1764L70.9984 95.6667ZM95.6677 71.004L105.833 60.8389L115.998 71.004L105.833 81.169L95.6677 71.004ZM71.0124 60.6846L81.3299 71.002L71.0124 81.3345L60.695 71.017V70.9871L62.5069 69.1752L63.3904 68.3066L71.0124 60.6846Z" fill="#F3BA2F"/>
<rect x="0.5" y="0.5" width="141" height="141" rx="70.5" stroke="#41434D"/>
</svg>
