<svg width="40" height="40" viewBox="0 0 40 40" fill="none" xmlns="http://www.w3.org/2000/svg">
<rect width="40" height="40" rx="8" fill="#212121"/>
<path d="M26.9419 13.34C25.6302 12.7058 24.2427 12.2552 22.8158 12C22.638 12.3321 22.4304 12.7787 22.2872 13.1341C20.7487 12.895 19.2244 12.895 17.7143 13.1341C17.5712 12.7788 17.3588 12.3321 17.1794 12C15.7512 12.2553 14.3624 12.7071 13.0501 13.3433C10.4389 17.4214 9.73101 21.398 10.0849 25.3184C11.8169 26.655 13.4953 27.467 15.1455 27.9984C15.5556 27.4155 15.9181 26.7985 16.2293 26.1536C15.6368 25.9205 15.0656 25.6332 14.5226 25.2952C14.6655 25.1857 14.805 25.0716 14.941 24.9531C18.2318 26.5438 21.8074 26.5438 25.059 24.9531C25.1955 25.0708 25.335 25.1849 25.4773 25.2952C24.9334 25.6341 24.3612 25.9219 23.7675 26.1553C24.0805 26.8028 24.4423 27.4205 24.8513 28C26.503 27.4687 28.183 26.6567 29.915 25.3184C30.3303 20.7738 29.2056 16.8335 26.9419 13.3399V13.34ZM16.6776 22.9075C15.6898 22.9075 14.8796 21.9543 14.8796 20.7937C14.8796 19.6331 15.6725 18.6783 16.6776 18.6783C17.6829 18.6783 18.493 19.6314 18.4757 20.7937C18.4773 21.9543 17.6829 22.9075 16.6776 22.9075ZM23.3223 22.9075C22.3344 22.9075 21.5243 21.9543 21.5243 20.7937C21.5243 19.6331 22.3171 18.6783 23.3223 18.6783C24.3275 18.6783 25.1376 19.6314 25.1203 20.7937C25.1203 21.9543 24.3275 22.9075 23.3223 22.9075Z" fill="#5865F2"/>
</svg>
