<svg width="40" height="40" viewBox="0 0 40 40" fill="none" xmlns="http://www.w3.org/2000/svg">
<rect width="40" height="40" rx="8" fill="#212121"/>
<path d="M26.3368 26.3371H23.6698V22.1603C23.6698 21.1643 23.652 19.8822 22.2827 19.8822C20.8936 19.8822 20.681 20.9674 20.681 22.0878V26.3368H18.0141V17.7477H20.5744V18.9215H20.6102C20.8665 18.4834 21.2367 18.123 21.6816 17.8787C22.1264 17.6343 22.6292 17.5152 23.1364 17.534C25.8396 17.534 26.338 19.3121 26.338 21.6252L26.3368 26.3371ZM15.0047 16.5737C14.1499 16.5739 13.4569 15.881 13.4567 15.0262C13.4566 14.1714 14.1494 13.4783 15.0042 13.4782C15.8589 13.478 16.552 14.1709 16.5522 15.0256C16.5522 15.4361 16.3892 15.8298 16.099 16.1202C15.8088 16.4105 15.4152 16.5736 15.0047 16.5737ZM16.3383 26.3372H13.6684V17.7477H16.3382V26.3371L16.3383 26.3372ZM27.6664 11.0013H12.3283C11.6034 10.9932 11.0089 11.5739 11 12.2988V27.7009C11.0086 28.4262 11.603 29.0075 12.3282 28.9999H27.6664C28.3932 29.0089 28.9899 28.4276 29 27.7009V12.2976C28.9897 11.5713 28.3928 10.9906 27.6664 11.0001" fill="#0A66C2"/>
</svg>
