<svg width="40" height="40" viewBox="0 0 40 40" fill="none" xmlns="http://www.w3.org/2000/svg">
<rect width="40" height="40" rx="8" fill="#212121"/>
<path d="M21.6656 20.3125C21.6656 24.3506 18.3831 27.625 14.332 27.625C13.3704 27.6263 12.418 27.4382 11.5292 27.0714C10.6403 26.7046 9.83237 26.1663 9.15153 25.4873C8.47069 24.8082 7.93026 24.0018 7.5611 23.1139C7.19194 22.226 7.00128 21.2741 7 20.3125C7 16.2728 10.2825 13 14.332 13C15.2937 12.9985 16.2463 13.1865 17.1353 13.5532C18.0244 13.9199 18.8325 14.4581 19.5135 15.1372C20.1945 15.8162 20.7351 16.6228 21.1044 17.5108C21.4736 18.3988 21.6643 19.3508 21.6656 20.3125ZM29.7094 20.3125C29.7094 24.115 28.0681 27.196 26.0434 27.196C24.0186 27.196 22.3774 24.1134 22.3774 20.3125C22.3774 16.51 24.0186 13.429 26.0434 13.429C28.0681 13.429 29.7094 16.5116 29.7094 20.3125ZM33 20.3125C33 23.7185 32.4231 26.4794 31.7098 26.4794C30.998 26.4794 30.4211 23.7169 30.4211 20.3125C30.4211 16.9065 30.998 14.1456 31.7114 14.1456C32.4231 14.1456 33 16.9065 33 20.3125Z" fill="#00DE78"/>
</svg>
