<svg width="40" height="40" viewBox="0 0 40 40" fill="none" xmlns="http://www.w3.org/2000/svg">
<rect width="40" height="40" rx="8" fill="#212121"/>
<path d="M30 13.894C29.2511 14.2206 28.4567 14.435 27.6433 14.5301C28.4905 14.0302 29.1411 13.2386 29.4474 12.2954C28.642 12.7659 27.7608 13.0974 26.8419 13.2756C26.0934 12.4906 25.027 12 23.8468 12C21.5807 12 19.7434 13.8085 19.7434 16.0391C19.7434 16.3557 19.7798 16.664 19.8497 16.9597C16.4395 16.7912 13.4161 15.1831 11.3923 12.7394C11.0391 13.3359 10.8368 14.0299 10.8368 14.77C10.8368 16.1714 11.5612 17.4077 12.6622 18.132C12.0106 18.1119 11.3733 17.9387 10.8036 17.6268C10.8034 17.6437 10.8034 17.6606 10.8034 17.6776C10.8034 19.6346 12.2177 21.2672 14.0948 21.6383C13.4905 21.8 12.8567 21.8237 12.2418 21.7075C12.7639 23.3122 14.2793 24.4799 16.0748 24.5126C14.6705 25.5959 12.9012 26.2417 10.9788 26.2417C10.6476 26.2417 10.321 26.2225 10 26.1852C11.8159 27.3313 13.9727 28 16.2898 28C23.8373 28 27.9644 21.8451 27.9644 16.5075C27.9644 16.3323 27.9605 16.1582 27.9525 15.985C28.7558 15.4133 29.4492 14.7053 30 13.894Z" fill="#55ACEE"/>
</svg>
