<svg width="382" height="419" viewBox="0 0 382 419" fill="none" xmlns="http://www.w3.org/2000/svg">
<g filter="url(#filter0_d_834_74)">
<path d="M201.205 384.64L201.221 384.635C288.712 360.534 352.818 278.213 352.824 190.016V190.004L353 112.932V112.921C353 104.505 349.791 95.8635 344.919 88.6724C340.046 81.4809 333.205 75.2916 325.408 72.1196C325.407 72.1191 325.406 72.1186 325.404 72.1181L227.318 32.0869L227.313 32.0848C204.091 22.6384 177.908 22.6384 154.687 32.0848L154.681 32.0869L56.6166 72.1096C56.6119 72.1115 56.6073 72.1134 56.6026 72.1152C48.7104 75.2873 41.8638 81.4813 37.0088 88.682C32.1522 95.885 29 104.523 29 112.921V190.004C29 278.206 93.1077 360.533 180.602 384.635L180.618 384.64C187.289 386.453 194.535 386.453 201.205 384.64Z" stroke="url(#paint0_linear_834_74)" stroke-width="10" stroke-linecap="round" stroke-linejoin="round" shape-rendering="crispEdges"/>
</g>
<g filter="url(#filter1_d_834_74)">
<path d="M337.835 190.975C337.835 271.456 279.299 346.835 199.327 368.889C193.886 370.37 187.949 370.37 182.508 368.889C102.536 346.835 44 271.456 44 190.975V118.724C44 105.228 54.2235 89.9216 66.92 84.8196L158.764 47.2953C179.375 38.9016 202.625 38.9016 223.236 47.2953L315.08 84.8196C327.612 89.9216 338 105.228 338 118.724L337.835 190.975Z" fill="white"/>
</g>
<path d="M238.933 220.533C225.2 234.2 205.533 238.4 188.267 233L156.867 264.333C154.6 266.667 150.133 268.067 146.933 267.6L132.4 265.6C127.6 264.933 123.133 260.4 122.4 255.6L120.4 241.067C119.933 237.867 121.467 233.4 123.667 231.133L155 199.8C149.667 182.467 153.8 162.8 167.533 149.133C187.2 129.467 219.133 129.467 238.867 149.133C258.6 168.8 258.6 200.867 238.933 220.533Z" fill="#121212"/>
<path d="M152.933 237.6L168.266 252.933" stroke="white" stroke-width="6" stroke-miterlimit="10" stroke-linecap="round" stroke-linejoin="round"/>
<path d="M203.5 201C212.613 201 220 193.613 220 184.5C220 175.387 212.613 168 203.5 168C194.387 168 187 175.387 187 184.5C187 193.613 194.387 201 203.5 201Z" fill="white"/>
<defs>
<filter id="filter0_d_834_74" x="0" y="0" width="382" height="419" filterUnits="userSpaceOnUse" color-interpolation-filters="sRGB">
<feFlood flood-opacity="0" result="BackgroundImageFix"/>
<feColorMatrix in="SourceAlpha" type="matrix" values="0 0 0 0 0 0 0 0 0 0 0 0 0 0 0 0 0 0 127 0" result="hardAlpha"/>
<feOffset dy="4"/>
<feGaussianBlur stdDeviation="12"/>
<feComposite in2="hardAlpha" operator="out"/>
<feColorMatrix type="matrix" values="0 0 0 0 0.0623047 0 0 0 0 0.0623047 0 0 0 0 0.0623047 0 0 0 0.2 0"/>
<feBlend mode="normal" in2="BackgroundImageFix" result="effect1_dropShadow_834_74"/>
<feBlend mode="normal" in="SourceGraphic" in2="effect1_dropShadow_834_74" result="shape"/>
</filter>
<filter id="filter1_d_834_74" x="20" y="21" width="342" height="377" filterUnits="userSpaceOnUse" color-interpolation-filters="sRGB">
<feFlood flood-opacity="0" result="BackgroundImageFix"/>
<feColorMatrix in="SourceAlpha" type="matrix" values="0 0 0 0 0 0 0 0 0 0 0 0 0 0 0 0 0 0 127 0" result="hardAlpha"/>
<feOffset dy="4"/>
<feGaussianBlur stdDeviation="12"/>
<feComposite in2="hardAlpha" operator="out"/>
<feColorMatrix type="matrix" values="0 0 0 0 0.0623047 0 0 0 0 0.0623047 0 0 0 0 0.0623047 0 0 0 0.2 0"/>
<feBlend mode="normal" in2="BackgroundImageFix" result="effect1_dropShadow_834_74"/>
<feBlend mode="normal" in="SourceGraphic" in2="effect1_dropShadow_834_74" result="shape"/>
</filter>
<linearGradient id="paint0_linear_834_74" x1="191" y1="30" x2="191" y2="381" gradientUnits="userSpaceOnUse">
<stop stop-color="#5FA6FF"/>
<stop offset="1" stop-color="#3C77C1"/>
</linearGradient>
</defs>
</svg>
