<svg width="338" height="372" viewBox="0 0 338 372" fill="none" xmlns="http://www.w3.org/2000/svg">
<g filter="url(#filter0_d_941_35453)">
<path d="M313.837 167.696C313.837 246.954 256.098 321.187 177.214 342.906C171.846 344.365 165.991 344.365 160.623 342.906C81.7396 321.187 24 246.954 24 167.696V96.5423C24 83.2516 34.0844 68.1781 46.6082 63.1536L137.202 26.1996C157.533 17.9335 180.466 17.9335 200.797 26.1996L291.392 63.1536C303.753 68.1781 314 83.2516 314 96.5423L313.837 167.696Z" fill="#151515"/>
<path d="M313.837 167.696C313.837 246.954 256.098 321.187 177.214 342.906C171.846 344.365 165.991 344.365 160.623 342.906C81.7396 321.187 24 246.954 24 167.696V96.5423C24 83.2516 34.0844 68.1781 46.6082 63.1536L137.202 26.1996C157.533 17.9335 180.466 17.9335 200.797 26.1996L291.392 63.1536C303.753 68.1781 314 83.2516 314 96.5423L313.837 167.696Z" fill="url(#paint0_linear_941_35453)"/>
</g>
<g filter="url(#filter1_d_941_35453)">
<path d="M99.0095 139.599C99.0095 121.037 114.055 106 132.606 106H205.403C223.964 106 239 121.047 239 139.599V212.401C239 230.963 223.954 246 205.403 246H132.435C113.97 246 99 231.029 99 212.563V139.589L99.0095 139.599Z" fill="url(#paint1_linear_941_35453)"/>
<path d="M107.091 143.797C107.091 127.382 120.398 114.074 136.812 114.074H201.213C217.626 114.074 230.934 127.382 230.934 143.797V208.202C230.934 224.617 217.626 237.925 201.213 237.925H136.66C120.322 237.925 107.081 224.683 107.081 208.345V143.788L107.091 143.797Z" fill="black"/>
<path d="M115.163 147.996C115.163 133.719 126.732 122.149 141.009 122.149H197.012C211.289 122.149 222.858 133.719 222.858 147.996V204.004C222.858 218.281 211.289 229.851 197.012 229.851H140.885C126.685 229.851 115.172 218.338 115.172 204.127V147.996H115.163Z" fill="white"/>
<path d="M157.21 181.374C162.482 172.241 160.973 161.499 153.841 157.381C146.708 153.263 136.652 157.327 131.38 166.46C126.108 175.592 127.616 186.334 134.749 190.452C141.881 194.57 151.937 190.506 157.21 181.374Z" fill="black"/>
<path d="M151.566 173.133C154.666 173.133 157.179 170.619 157.179 167.519C157.179 164.418 154.666 161.905 151.566 161.905C148.465 161.905 145.952 164.418 145.952 167.519C145.952 170.619 148.465 173.133 151.566 173.133Z" fill="white"/>
<path d="M203.568 190.528C210.701 186.41 212.209 175.668 206.937 166.536C201.665 157.403 191.609 153.339 184.476 157.457C177.343 161.576 175.835 172.317 181.107 181.45C186.379 190.582 196.435 194.646 203.568 190.528Z" fill="black"/>
<path d="M186.755 173.218C189.855 173.218 192.368 170.704 192.368 167.604C192.368 164.503 189.855 161.99 186.755 161.99C183.654 161.99 181.141 164.503 181.141 167.604C181.141 170.704 183.654 173.218 186.755 173.218Z" fill="white"/>
<path d="M169.157 196.926C169.157 196.926 165.149 196.765 163.714 197.791C162.28 198.817 162.375 200.403 162.375 200.403C162.375 200.403 162.185 202.027 162.66 203.082C163.135 204.136 165.918 203.956 167.286 206.302C167.286 206.302 168.54 206.73 169.157 206.606" fill="black"/>
<path d="M169.157 196.926C169.157 196.926 173.166 196.765 174.6 197.791C176.034 198.816 175.939 200.403 175.939 200.403C175.939 200.403 176.129 202.027 175.654 203.082C175.179 204.136 172.396 203.956 171.028 206.302C171.028 206.302 169.774 206.73 169.157 206.606" fill="black"/>
</g>
<defs>
<filter id="filter0_d_941_35453" x="0" y="0" width="338" height="372" filterUnits="userSpaceOnUse" color-interpolation-filters="sRGB">
<feFlood flood-opacity="0" result="BackgroundImageFix"/>
<feColorMatrix in="SourceAlpha" type="matrix" values="0 0 0 0 0 0 0 0 0 0 0 0 0 0 0 0 0 0 127 0" result="hardAlpha"/>
<feOffset dy="4"/>
<feGaussianBlur stdDeviation="12"/>
<feComposite in2="hardAlpha" operator="out"/>
<feColorMatrix type="matrix" values="0 0 0 0 0.0623047 0 0 0 0 0.0623047 0 0 0 0 0.0623047 0 0 0 0.1 0"/>
<feBlend mode="normal" in2="BackgroundImageFix" result="effect1_dropShadow_941_35453"/>
<feBlend mode="normal" in="SourceGraphic" in2="effect1_dropShadow_941_35453" result="shape"/>
</filter>
<filter id="filter1_d_941_35453" x="89" y="100" width="160" height="160" filterUnits="userSpaceOnUse" color-interpolation-filters="sRGB">
<feFlood flood-opacity="0" result="BackgroundImageFix"/>
<feColorMatrix in="SourceAlpha" type="matrix" values="0 0 0 0 0 0 0 0 0 0 0 0 0 0 0 0 0 0 127 0" result="hardAlpha"/>
<feOffset dy="4"/>
<feGaussianBlur stdDeviation="5"/>
<feComposite in2="hardAlpha" operator="out"/>
<feColorMatrix type="matrix" values="0 0 0 0 0.0837326 0 0 0 0 0.214832 0 0 0 0 0.379167 0 0 0 0.05 0"/>
<feBlend mode="normal" in2="BackgroundImageFix" result="effect1_dropShadow_941_35453"/>
<feBlend mode="normal" in="SourceGraphic" in2="effect1_dropShadow_941_35453" result="shape"/>
</filter>
<linearGradient id="paint0_linear_941_35453" x1="169" y1="20" x2="169" y2="344" gradientUnits="userSpaceOnUse">
<stop stop-color="#5FA6FF" stop-opacity="0.8"/>
<stop offset="1" stop-color="#5FA6FF" stop-opacity="0.6"/>
</linearGradient>
<linearGradient id="paint1_linear_941_35453" x1="169" y1="106" x2="169" y2="262.608" gradientUnits="userSpaceOnUse">
<stop stop-color="#5EA6FF"/>
<stop offset="1" stop-color="#5EA6FF" stop-opacity="0.4"/>
</linearGradient>
</defs>
</svg>
