<svg width="48" height="48" viewBox="0 0 48 48" fill="none" xmlns="http://www.w3.org/2000/svg">
<rect width="48" height="48" rx="24" fill="#FF8C00"/>
<path d="M24.7038 8.40039C21.693 8.41222 18.8089 9.6135 16.68 11.7425C14.551 13.8714 13.3497 16.7555 13.3379 19.7663C13.3381 21.0209 13.5404 22.2673 13.9369 23.4576C14.0797 23.8477 14.3664 24.1683 14.7382 24.3535C15.11 24.5387 15.5387 24.5745 15.936 24.4535C16.32 24.3065 16.6337 24.0187 16.8131 23.6488C16.9925 23.2788 17.0243 22.8544 16.9019 22.4618C16.5652 21.5345 16.4151 20.5497 16.4602 19.5642C16.5081 17.9751 17.017 16.4342 17.925 15.1291C18.8329 13.8241 20.1007 12.8111 21.574 12.2137C23.0473 11.6162 24.6625 11.4599 26.223 11.764C27.7835 12.068 29.2219 12.8191 30.3632 13.926C31.5044 15.0328 32.2993 16.4476 32.6509 17.9981C33.0025 19.5485 32.8958 21.1678 32.3437 22.6586C31.7916 24.1495 30.8179 25.4477 29.5412 26.3952C28.2646 27.3426 26.74 27.8985 25.1531 27.995C25.1531 27.995 23.5583 28.0924 22.7646 28.1897C22.4723 28.2319 22.1824 28.2894 21.896 28.3619C21.8863 28.3719 21.8746 28.3798 21.8618 28.3852C21.8489 28.3906 21.8351 28.3934 21.8212 28.3934C21.8072 28.3934 21.7934 28.3906 21.7806 28.3852C21.7677 28.3798 21.756 28.3719 21.7463 28.3619C21.7323 28.3436 21.7248 28.3213 21.7248 28.2983C21.7248 28.2753 21.7323 28.2529 21.7463 28.2346L21.9934 26.8869L23.4909 20.1482C23.5772 19.7441 23.4996 19.3222 23.2749 18.9754C23.0502 18.6285 22.697 18.3852 22.2929 18.2988C21.8888 18.2124 21.4669 18.2901 21.1201 18.5148C20.7732 18.7394 20.5299 19.0927 20.4435 19.4968C20.4435 19.4968 16.8795 35.9916 16.8795 36.1414C16.8304 36.3341 16.8202 36.5348 16.8496 36.7315C16.8789 36.9283 16.9472 37.1172 17.0503 37.2873C17.1535 37.4573 17.2895 37.6052 17.4504 37.7221C17.6114 37.839 17.794 37.9227 17.9876 37.9683H18.07C18.2637 38.0184 18.4656 38.0291 18.6636 37.9998C18.8616 37.9706 19.0518 37.9019 19.2228 37.7979C19.3938 37.6939 19.5422 37.5567 19.6593 37.3943C19.7764 37.232 19.8597 37.0478 19.9044 36.8527C19.9015 36.8278 19.9015 36.8027 19.9044 36.7778C19.9493 36.5831 20.3986 34.3893 20.3986 34.3893C20.5648 33.5806 20.9746 32.8422 21.573 32.2734C22.1713 31.7045 22.9294 31.3324 23.7454 31.2071C24.0899 31.1547 25.5349 31.0574 25.5349 31.0574C28.4099 30.7707 31.0676 29.3993 32.967 27.2221C34.8664 25.045 35.8647 22.2259 35.7588 19.3386C35.6529 16.4513 34.4507 13.7129 32.3969 11.6808C30.3431 9.64872 27.5921 8.47565 24.7038 8.40039V8.40039Z" fill="white"/>
<path d="M25.3931 34.6042C25.1471 34.553 24.8934 34.5513 24.6468 34.5991C24.4001 34.6469 24.1655 34.7432 23.9564 34.8826C23.7474 35.022 23.5681 35.2015 23.4291 35.4108C23.2902 35.6201 23.1942 35.8549 23.1468 36.1017C23.094 36.3441 23.0894 36.5945 23.1335 36.8386C23.1775 37.0828 23.2693 37.3159 23.4035 37.5245C23.5378 37.7331 23.7118 37.9133 23.9157 38.0545C24.1196 38.1958 24.3494 38.2955 24.5919 38.3479H24.6443C24.8833 38.4056 25.1314 38.4153 25.3742 38.3763C25.6169 38.3374 25.8496 38.2506 26.0585 38.1211C26.2675 37.9915 26.4486 37.8217 26.5915 37.6216C26.7343 37.4215 26.836 37.195 26.8906 36.9553V36.8504C26.976 36.3555 26.8683 35.8466 26.5897 35.4287C26.3111 35.0108 25.8828 34.7157 25.3931 34.6042Z" fill="white"/>
</svg>
