<svg width="48" height="48" viewBox="0 0 48 48" fill="none" xmlns="http://www.w3.org/2000/svg">
<rect width="48" height="48" rx="24" fill="#543DC6"/>
<path fill-rule="evenodd" clip-rule="evenodd" d="M39.0599 24.3201H35.3674C35.3674 16.7952 29.246 10.6953 21.6942 10.6953C14.236 10.6953 8.1723 16.6458 8.0239 24.0419C7.87036 31.6871 15.0685 38.3259 22.7418 38.3259H23.7071C30.4721 38.3259 39.5392 33.049 40.9559 26.6193C41.2175 25.4342 40.278 24.3201 39.0599 24.3201ZM16.2068 24.6559C16.2068 25.6621 15.3808 26.4852 14.371 26.4852C13.3611 26.4852 12.5352 25.6618 12.5352 24.6559V21.6965C12.5352 20.6902 13.3611 19.8672 14.371 19.8672C15.3808 19.8672 16.2068 20.6902 16.2068 21.6965V24.6559ZM20.746 26.4852C21.7558 26.4852 22.5817 25.6621 22.5817 24.6559V21.6965C22.5817 20.6902 21.7558 19.8672 20.746 19.8672C19.7364 19.8672 18.9102 20.6902 18.9102 21.6965V24.6559C18.9102 25.6618 19.736 26.4852 20.746 26.4852Z" fill="white"/>
</svg>
