<svg width="142" height="142" viewBox="0 0 142 142" fill="none" xmlns="http://www.w3.org/2000/svg">
<rect x="1" y="1" width="140" height="140" rx="70" fill="black"/>
<path d="M81.1196 59.332H60.8975C60.0384 59.332 59.3418 60.0283 59.3418 60.8874V81.1098C59.3418 81.9689 60.0384 82.6655 60.8975 82.6655H81.1196C81.9786 82.6655 82.6752 81.9689 82.6752 81.1098V60.8874C82.6752 60.0283 81.9786 59.332 81.1196 59.332Z" fill="white"/>
<path d="M57.7778 36H37.5557C36.6966 36 36 36.6963 36 37.5557V57.7778C36 58.6368 36.6966 59.3334 37.5557 59.3334H57.7778C58.6372 59.3334 59.3334 58.6368 59.3334 57.7778V37.5557C59.3334 36.6963 58.6372 36 57.7778 36Z" fill="white"/>
<path d="M104.444 36H84.2217C83.3626 36 82.666 36.6963 82.666 37.5557V57.7778C82.666 58.6368 83.3626 59.3334 84.2217 59.3334H104.444C105.303 59.3334 105.999 58.6368 105.999 57.7778V37.5557C105.999 36.6963 105.303 36 104.444 36Z" fill="white"/>
<path d="M57.7778 82.668H37.5557C36.6966 82.668 36 83.3642 36 84.2233V104.446C36 105.305 36.6966 106.001 37.5557 106.001H57.7778C58.6372 106.001 59.3334 105.305 59.3334 104.446V84.2233C59.3334 83.3642 58.6372 82.668 57.7778 82.668Z" fill="white"/>
<path d="M104.444 82.668H84.2217C83.3626 82.668 82.666 83.3642 82.666 84.2233V104.446C82.666 105.305 83.3626 106.001 84.2217 106.001H104.444C105.303 106.001 105.999 105.305 105.999 104.446V84.2233C105.999 83.3642 105.303 82.668 104.444 82.668Z" fill="white"/>
<rect x="0.5" y="0.5" width="141" height="141" rx="70.5" stroke="#41434D" stroke-opacity="0.4"/>
</svg>
