<svg width="305" height="303" viewBox="0 0 305 303" fill="none" xmlns="http://www.w3.org/2000/svg">
<g clip-path="url(#clip0_356_19310)">
<rect x="149.175" y="75.6189" width="50.3176" height="50.3176" rx="6.3963" transform="rotate(15 149.175 75.6189)" fill="#171717"/>
<path d="M166.995 106.257C169.838 107.019 172.761 105.331 173.523 102.488C174.285 99.6443 172.598 96.7216 169.754 95.9597C166.911 95.1977 163.988 96.8852 163.226 99.7287C162.464 102.572 164.151 105.495 166.995 106.257Z" stroke="#41434D" stroke-width="0.959446" stroke-linecap="round" stroke-linejoin="round"/>
<path d="M173.082 118.924C174.149 114.939 171.049 110.654 166.168 109.346C161.287 108.038 156.459 110.199 155.391 114.184" stroke="#41434D" stroke-width="0.959446" stroke-linecap="round" stroke-linejoin="round"/>
<rect x="149.175" y="75.6189" width="50.3176" height="50.3176" rx="6.3963" transform="rotate(15 149.175 75.6189)" stroke="#41434D" stroke-width="0.852841"/>
<rect x="189.053" y="144.578" width="50.3176" height="50.3176" rx="6.3963" transform="rotate(15 189.053 144.578)" fill="#171717"/>
<path d="M206.649 175.339C209.493 176.101 212.416 174.413 213.177 171.57C213.939 168.726 212.252 165.804 209.408 165.042C206.565 164.28 203.642 165.967 202.88 168.811C202.118 171.654 203.806 174.577 206.649 175.339Z" stroke="#41434D" stroke-width="0.959446" stroke-linecap="round" stroke-linejoin="round"/>
<path d="M212.736 188.006C213.804 184.021 210.703 179.736 205.822 178.428C200.941 177.12 196.113 179.281 195.045 183.266" stroke="#41434D" stroke-width="0.959446" stroke-linecap="round" stroke-linejoin="round"/>
<rect x="189.053" y="144.578" width="50.3176" height="50.3176" rx="6.3963" transform="rotate(15 189.053 144.578)" stroke="#41434D" stroke-width="0.852841"/>
<rect x="120.114" y="184.38" width="50.3176" height="50.3176" rx="6.3963" transform="rotate(15 120.114 184.38)" fill="#171717"/>
<path d="M138.208 214.996C141.051 215.758 143.974 214.071 144.736 211.227C145.498 208.384 143.811 205.461 140.967 204.699C138.123 203.937 135.201 205.624 134.439 208.468C133.677 211.311 135.364 214.234 138.208 214.996Z" stroke="#41434D" stroke-width="0.959446" stroke-linecap="round" stroke-linejoin="round"/>
<path d="M144.294 227.663C145.362 223.678 142.261 219.393 137.381 218.085C132.5 216.777 127.672 218.938 126.604 222.923" stroke="#41434D" stroke-width="0.959446" stroke-linecap="round" stroke-linejoin="round"/>
<rect x="120.114" y="184.38" width="50.3176" height="50.3176" rx="6.3963" transform="rotate(15 120.114 184.38)" stroke="#41434D" stroke-width="0.852841"/>
<rect x="51.1765" y="224.18" width="50.3176" height="50.3176" rx="6.3963" transform="rotate(15 51.1765 224.18)" fill="#171717"/>
<path d="M69.1278 254.652C71.9713 255.414 74.8941 253.727 75.656 250.883C76.4179 248.04 74.7304 245.117 71.8869 244.355C69.0434 243.593 66.1206 245.281 65.3587 248.124C64.5968 250.968 66.2843 253.891 69.1278 254.652Z" stroke="#41434D" stroke-width="0.959446" stroke-linecap="round" stroke-linejoin="round"/>
<path d="M75.2144 267.319C76.2822 263.334 73.1813 259.049 68.3004 257.741C63.4195 256.433 58.5915 258.594 57.5237 262.579" stroke="#41434D" stroke-width="0.959446" stroke-linecap="round" stroke-linejoin="round"/>
<rect x="51.1765" y="224.18" width="50.3176" height="50.3176" rx="6.3963" transform="rotate(15 51.1765 224.18)" stroke="#41434D" stroke-width="0.852841"/>
<rect x="159.917" y="253.317" width="50.3176" height="50.3176" rx="6.3963" transform="rotate(15 159.917 253.317)" fill="#171717"/>
<path d="M177.868 284.076C180.712 284.838 183.634 283.151 184.396 280.307C185.158 277.464 183.471 274.541 180.627 273.779C177.784 273.017 174.861 274.705 174.099 277.548C173.337 280.392 175.024 283.314 177.868 284.076Z" stroke="#41434D" stroke-width="0.959446" stroke-linecap="round" stroke-linejoin="round"/>
<path d="M183.955 296.743C185.022 292.758 181.922 288.473 177.041 287.165C172.16 285.857 167.332 288.018 166.264 292.003" stroke="#41434D" stroke-width="0.959446" stroke-linecap="round" stroke-linejoin="round"/>
<rect x="159.917" y="253.317" width="50.3176" height="50.3176" rx="6.3963" transform="rotate(15 159.917 253.317)" stroke="#41434D" stroke-width="0.852841"/>
<rect x="228.854" y="213.515" width="50.3176" height="50.3176" rx="6.3963" transform="rotate(15 228.854 213.515)" fill="#171717"/>
<path d="M246.946 244.419C249.79 245.181 252.712 243.493 253.474 240.65C254.236 237.806 252.549 234.884 249.705 234.122C246.862 233.36 243.939 235.047 243.177 237.891C242.415 240.734 244.103 243.657 246.946 244.419Z" stroke="#41434D" stroke-width="0.959446" stroke-linecap="round" stroke-linejoin="round"/>
<path d="M253.033 257.086C254.101 253.101 251 248.816 246.119 247.508C241.238 246.2 236.41 248.361 235.342 252.346" stroke="#41434D" stroke-width="0.959446" stroke-linecap="round" stroke-linejoin="round"/>
<rect x="228.854" y="213.515" width="50.3176" height="50.3176" rx="6.3963" transform="rotate(15 228.854 213.515)" stroke="#41434D" stroke-width="0.852841"/>
<rect x="283.223" y="228.084" width="50.3176" height="50.3176" rx="6.3963" transform="rotate(15 283.223 228.084)" fill="#171717"/>
<path d="M301.315 258.489C304.159 259.251 307.082 257.564 307.843 254.72C308.605 251.877 306.918 248.954 304.074 248.192C301.231 247.43 298.308 249.118 297.546 251.961C296.784 254.805 298.472 257.727 301.315 258.489Z" stroke="#41434D" stroke-width="0.959446" stroke-linecap="round" stroke-linejoin="round"/>
<path d="M307.402 271.156C308.47 267.171 305.369 262.886 300.488 261.578C295.607 260.27 290.779 262.431 289.711 266.416" stroke="#41434D" stroke-width="0.959446" stroke-linecap="round" stroke-linejoin="round"/>
<rect x="283.223" y="228.084" width="50.3176" height="50.3176" rx="6.3963" transform="rotate(15 283.223 228.084)" stroke="#41434D" stroke-width="0.852841"/>
<rect x="105.377" y="238.552" width="51.1704" height="51.1705" rx="6.82272" transform="rotate(15 105.377 238.552)" fill="#5FA6FF"/>
<path fill-rule="evenodd" clip-rule="evenodd" d="M128.087 264.072L127.262 267.152L127.264 267.156C132.814 268.926 136.734 271.194 136.37 272.551C136.006 273.911 131.477 273.913 125.787 272.67L123.141 282.544L118.134 281.203L120.779 271.328C115.224 269.554 111.293 267.286 111.658 265.926C112.022 264.566 116.557 264.566 122.258 265.811L123.083 262.731L116.156 260.875L117.415 256.178L136.273 261.231L135.014 265.928L128.087 264.072ZM126.011 271.823L126.01 271.826L126.009 271.83C131.031 272.932 134.971 273.045 135.254 271.991C135.536 270.938 132.071 269.066 127.167 267.509L126.245 270.95C126.097 270.924 125.306 270.784 123.761 270.37C122.473 270.025 121.555 269.718 121.237 269.608L122.16 266.164C117.129 265.055 113.178 264.944 112.896 265.997C112.613 267.054 116.087 268.928 121.002 270.485L121.003 270.481C121.32 270.584 122.217 270.864 123.511 271.21C125.129 271.644 125.867 271.795 126.011 271.823Z" fill="white"/>
<rect x="203.24" y="89.665" width="51.1704" height="51.1705" rx="6.82272" transform="rotate(15 203.24 89.665)" fill="#5FA6FF"/>
<ellipse cx="221.523" cy="121.544" rx="15.3511" ry="15.3511" transform="rotate(15 221.523 121.544)" fill="black" fill-opacity="0.1"/>
<path d="M220.216 126.493C217.48 125.759 215.857 122.954 216.588 120.223C217.32 117.492 220.129 115.874 222.865 116.607C225.316 117.264 226.872 119.593 226.639 122.033L231.628 123.37C232.567 118.183 229.38 113.056 224.189 111.664C218.721 110.199 213.099 113.439 211.636 118.896C210.174 124.354 213.424 129.97 218.892 131.435C224.083 132.826 229.406 129.979 231.186 125.017L226.193 123.68C225.175 125.91 222.667 127.149 220.216 126.493Z" fill="white"/>
<rect x="218.112" y="35.8182" width="50.3176" height="50.3176" rx="6.3963" transform="rotate(15 218.112 35.8182)" fill="#171717"/>
<path d="M236.075 66.6007C238.919 67.3626 241.841 65.6751 242.603 62.8316C243.365 59.9881 241.678 57.0653 238.834 56.3034C235.991 55.5415 233.068 57.2289 232.306 60.0725C231.544 62.916 233.232 65.8387 236.075 66.6007Z" stroke="#41434D" stroke-width="0.959446" stroke-linecap="round" stroke-linejoin="round"/>
<path d="M242.162 79.2676C243.229 75.2826 240.129 70.9973 235.248 69.6894C230.367 68.3816 225.539 70.5424 224.471 74.5274" stroke="#41434D" stroke-width="0.959446" stroke-linecap="round" stroke-linejoin="round"/>
<rect x="218.112" y="35.8182" width="50.3176" height="50.3176" rx="6.3963" transform="rotate(15 218.112 35.8182)" stroke="#41434D" stroke-width="0.852841"/>
<rect x="257.913" y="104.757" width="50.3176" height="50.3176" rx="6.3963" transform="rotate(15 257.913 104.757)" fill="#171717"/>
<path d="M275.731 135.682C278.575 136.444 281.498 134.756 282.259 131.913C283.021 129.069 281.334 126.146 278.49 125.384C275.647 124.623 272.724 126.31 271.962 129.154C271.2 131.997 272.888 134.92 275.731 135.682Z" stroke="#41434D" stroke-width="0.959446" stroke-linecap="round" stroke-linejoin="round"/>
<path d="M281.818 148.349C282.886 144.364 279.785 140.078 274.904 138.77C270.023 137.463 265.195 139.623 264.127 143.608" stroke="#41434D" stroke-width="0.959446" stroke-linecap="round" stroke-linejoin="round"/>
<rect x="257.913" y="104.757" width="50.3176" height="50.3176" rx="6.3963" transform="rotate(15 257.913 104.757)" stroke="#41434D" stroke-width="0.852841"/>
<rect x="90.9011" y="293.097" width="50.3176" height="50.3176" rx="6.3963" transform="rotate(15 90.9011 293.097)" fill="#171717"/>
<rect x="90.9011" y="293.097" width="50.3176" height="50.3176" rx="6.3963" transform="rotate(15 90.9011 293.097)" stroke="#41434D" stroke-width="0.852841"/>
<rect x="213.906" y="267.342" width="51.1704" height="51.1705" rx="6.82272" transform="rotate(15 213.906 267.342)" fill="#5FA6FF"/>
<path fill-rule="evenodd" clip-rule="evenodd" d="M227.506 295.635L233.591 292.122L237.107 298.212L240.647 296.168L235.087 286.538L225.462 292.095L227.506 295.635ZM219.422 295.583L222.961 293.54L225.004 297.079L221.465 299.122L219.422 295.583ZM229.962 305.667L226.449 299.582L222.906 301.621L222.909 301.626L228.466 311.251L238.096 305.691L236.052 302.151L229.962 305.667ZM238.549 300.71L242.088 298.667L244.131 302.206L240.592 304.249L238.549 300.71ZM232.536 296.061L234.61 299.653L231.017 301.732L228.943 298.139L228.945 298.131L229.576 297.767L229.882 297.593L232.536 296.061Z" fill="white"/>
<rect x="174.314" y="198.751" width="51.1704" height="51.1705" rx="6.82272" transform="rotate(15 174.314 198.751)" fill="#5FA6FF"/>
<path d="M194.421 221.591L195.971 224.342L189.162 228.26L187.598 225.56L194.421 221.591Z" fill="white"/>
<path d="M196.795 225.69L198.345 228.441L187.431 234.72L185.867 232.021L196.795 225.69Z" fill="white"/>
<path d="M186.212 226.315L187.762 229.066L185.058 230.622L183.494 227.922L186.212 226.315Z" fill="white"/>
<path d="M199.17 229.787L200.72 232.538L189.806 238.818L188.242 236.118L199.17 229.787Z" fill="white"/>
<rect x="65.7449" y="169.811" width="50.3176" height="50.3176" rx="6.3963" transform="rotate(15 65.7449 169.811)" fill="#121212"/>
<rect x="65.7449" y="169.811" width="50.3176" height="50.3176" rx="6.3963" transform="rotate(15 65.7449 169.811)" stroke="#41434D" stroke-width="0.852841"/>
<g filter="url(#filter0_d_356_19310)">
<rect x="42.1738" y="163.88" width="51.1704" height="51.1704" rx="6.82272" transform="rotate(-3.28327 42.1738 163.88)" fill="#5FA6FF"/>
<path d="M66.4877 200.294C66.5132 200.738 66.219 200.903 65.7649 200.929C60.0624 199.474 55.838 194.666 55.4983 188.743C55.1585 182.821 58.8053 177.561 64.304 175.463C64.7496 175.289 65.0693 175.568 65.0948 176.012L65.1542 177.048C65.1712 177.344 65.0368 177.649 64.7426 177.815C60.4464 179.695 57.6484 183.866 57.9202 188.604C58.192 193.342 61.6085 197.306 65.9317 198.543C66.2429 198.674 66.4113 198.961 66.4283 199.257L66.4877 200.294Z" fill="white"/>
<path d="M70.815 196.331C70.832 196.628 70.5463 196.941 70.2436 196.958L69.0326 197.028C68.7299 197.045 68.4102 196.766 68.3932 196.47L68.2913 194.694C65.8524 194.536 64.565 193.273 64.0005 191.375C63.9835 191.079 64.1179 190.774 64.4206 190.756L65.7829 190.678C66.0857 190.661 66.2455 190.8 66.4139 191.088C66.7761 192.107 67.4325 192.96 69.4003 192.847C70.9139 192.761 71.931 191.96 71.8631 190.775C71.7951 189.591 71.1642 189.181 69.0281 189.007C65.8239 188.745 64.2592 187.943 64.1148 185.426C64.0044 183.501 65.4332 181.934 67.5353 181.516L67.4334 179.74C67.4164 179.444 67.7022 179.13 68.0049 179.113L69.2158 179.043C69.5186 179.026 69.8383 179.305 69.8553 179.601L69.9572 181.377C71.7906 181.569 73.061 182.536 73.4571 184.148C73.4741 184.444 73.3398 184.748 73.037 184.766L71.8261 184.835C71.5233 184.853 71.3635 184.713 71.1951 184.426C70.8329 183.407 70.0506 183.006 68.6883 183.084C67.1746 183.171 66.4603 183.955 66.5197 184.991C66.5792 186.028 67.0673 186.594 69.3548 186.76C72.559 187.021 74.1236 187.823 74.268 190.34C74.3784 192.265 72.9582 193.98 70.7131 194.555L70.815 196.331Z" fill="white"/>
<path d="M73.9384 200.461C73.4928 200.635 73.1731 200.356 73.1476 199.912L73.0882 198.876C73.0712 198.58 73.2056 198.275 73.4998 198.109C77.796 196.229 80.5941 192.058 80.3223 187.32C80.0505 182.582 76.6339 178.618 72.3107 177.381C71.9995 177.25 71.8311 176.963 71.8141 176.667L71.7547 175.63C71.7292 175.186 72.0234 175.021 72.4775 174.995C78.0287 176.459 82.4044 181.258 82.7441 187.181C83.0839 193.103 79.4371 198.363 73.9384 200.461Z" fill="white"/>
</g>
<rect x="243.254" y="158.95" width="51.1704" height="51.1705" rx="6.82272" transform="rotate(15 243.254 158.95)" fill="#5FA6FF"/>
<path d="M269.881 192.835L260.322 195.422L253.336 188.402L265.222 177.135L269.881 192.835Z" fill="white"/>
<path d="M269.474 194.378L258.127 203.613L252.924 189.943L259.91 196.962L269.474 194.378Z" fill="white"/>
<rect x="134.381" y="129.487" width="51.1704" height="51.1705" rx="6.82272" transform="rotate(15 134.381 129.487)" fill="#5FA6FF"/>
<path fill-rule="evenodd" clip-rule="evenodd" d="M162.489 161.352C163.57 158.858 161.981 156.936 159.547 155.286L161.36 152.001L159.377 150.898L157.612 154.096C157.091 153.806 156.552 153.52 156.017 153.236L157.794 150.017L155.813 148.914L153.999 152.197C153.565 151.967 153.139 151.741 152.728 151.512L152.734 151.502L150 149.979L148.821 152.115C148.821 152.115 150.301 152.901 150.262 152.915C151.064 153.362 151.066 153.978 150.918 154.426L148.853 158.167C148.908 158.198 148.979 158.241 149.055 158.298L148.988 158.26C148.942 158.235 148.894 158.208 148.845 158.182L145.951 163.423C145.775 163.658 145.402 163.982 144.84 163.67C144.853 163.707 143.399 162.868 143.399 162.868L141.687 165.036L144.267 166.472C144.556 166.633 144.839 166.795 145.12 166.955C145.307 167.062 145.493 167.168 145.677 167.272L143.844 170.594L145.825 171.697L147.639 168.41C148.177 168.724 148.7 169.021 149.214 169.307L147.407 172.578L149.39 173.681L151.221 170.366C154.661 172.028 157.461 172.479 159.494 169.485C161.131 167.073 160.571 165.279 158.932 163.768C160.407 163.818 161.7 163.178 162.489 161.352ZM155.793 166.91C154.537 169.188 151.016 167.164 149.406 166.238C149.261 166.154 149.131 166.08 149.02 166.018L151.45 161.617C151.586 161.693 151.752 161.78 151.94 161.879L151.94 161.879C153.625 162.765 157.079 164.581 155.793 166.91ZM152.886 159.789C154.228 160.565 157.155 162.258 158.298 160.188C159.467 158.071 156.584 156.565 155.177 155.83C155.018 155.748 154.879 155.675 154.765 155.612L152.562 159.603C152.655 159.655 152.764 159.718 152.886 159.789Z" fill="white"/>
<rect x="94.502" y="60.5293" width="51.1704" height="51.1705" rx="6.82272" transform="rotate(15 94.502 60.5293)" fill="#5FA6FF"/>
<path d="M120.004 85.9032L109.156 82.9965C107.161 82.462 105.321 84.2748 105.858 86.2831L109.444 99.6815C109.678 100.556 110.773 100.85 111.412 100.209L121.218 90.3988C122.686 88.9308 121.999 86.4377 120.006 85.9036L120.004 85.9032ZM110.371 96.2L109.669 92.9874L107.837 85.7524C107.713 85.2874 108.138 84.8481 108.624 84.9784L113.058 86.1665L110.369 96.201L110.371 96.2ZM119.767 88.9475L114.563 94.3002L112.349 96.7301L115.038 86.6956L119.472 87.8838C119.958 88.014 120.107 88.6069 119.767 88.9475Z" fill="white"/>
</g>
<defs>
<filter id="filter0_d_356_19310" x="31.9397" y="153.274" width="74.4858" height="74.4858" filterUnits="userSpaceOnUse" color-interpolation-filters="sRGB">
<feFlood flood-opacity="0" result="BackgroundImageFix"/>
<feColorMatrix in="SourceAlpha" type="matrix" values="0 0 0 0 0 0 0 0 0 0 0 0 0 0 0 0 0 0 127 0" result="hardAlpha"/>
<feOffset dy="2.55852"/>
<feGaussianBlur stdDeviation="5.11704"/>
<feComposite in2="hardAlpha" operator="out"/>
<feColorMatrix type="matrix" values="0 0 0 0 0 0 0 0 0 0 0 0 0 0 0 0 0 0 0.24 0"/>
<feBlend mode="normal" in2="BackgroundImageFix" result="effect1_dropShadow_356_19310"/>
<feBlend mode="normal" in="SourceGraphic" in2="effect1_dropShadow_356_19310" result="shape"/>
</filter>
<clipPath id="clip0_356_19310">
<rect width="300.197" height="332.608" fill="white" transform="translate(86.0859) rotate(15)"/>
</clipPath>
</defs>
</svg>
