<svg width="334" height="360" viewBox="0 0 334 360" fill="none" xmlns="http://www.w3.org/2000/svg">
<g clip-path="url(#clip0_134_34055)">
<rect x="174.913" y="34.6671" width="59" height="59" rx="7.5" transform="rotate(15 174.913 34.6671)" fill="#171717"/>
<path d="M195.808 70.5931C199.142 71.4864 202.569 69.5078 203.462 66.1736C204.356 62.8395 202.377 59.4124 199.043 58.519C195.709 57.6256 192.282 59.6042 191.388 62.9384C190.495 66.2726 192.473 69.6997 195.808 70.5931Z" stroke="#41434D" stroke-width="1.125" stroke-linecap="round" stroke-linejoin="round"/>
<path d="M202.944 85.4465C204.196 80.7738 200.561 75.7491 194.837 74.2156C189.114 72.6821 183.453 75.2157 182.201 79.8884" stroke="#41434D" stroke-width="1.125" stroke-linecap="round" stroke-linejoin="round"/>
<rect x="174.913" y="34.6671" width="59" height="59" rx="7.5" transform="rotate(15 174.913 34.6671)" stroke="#41434D"/>
<rect x="221.674" y="115.525" width="59" height="59" rx="7.5" transform="rotate(15 221.674 115.525)" fill="#171717"/>
<path d="M242.308 151.593C245.642 152.486 249.069 150.508 249.962 147.174C250.856 143.839 248.877 140.412 245.543 139.519C242.209 138.626 238.782 140.604 237.888 143.938C236.995 147.273 238.973 150.7 242.308 151.593Z" stroke="#41434D" stroke-width="1.125" stroke-linecap="round" stroke-linejoin="round"/>
<path d="M249.444 166.447C250.696 161.774 247.061 156.749 241.337 155.216C235.614 153.682 229.953 156.216 228.701 160.888" stroke="#41434D" stroke-width="1.125" stroke-linecap="round" stroke-linejoin="round"/>
<rect x="221.674" y="115.525" width="59" height="59" rx="7.5" transform="rotate(15 221.674 115.525)" stroke="#41434D"/>
<rect x="140.841" y="162.194" width="59" height="59" rx="7.5" transform="rotate(15 140.841 162.194)" fill="#171717"/>
<path d="M162.057 198.093C165.391 198.986 168.818 197.008 169.711 193.674C170.605 190.339 168.626 186.912 165.292 186.019C161.958 185.126 158.531 187.104 157.637 190.438C156.744 193.773 158.723 197.2 162.057 198.093Z" stroke="#41434D" stroke-width="1.125" stroke-linecap="round" stroke-linejoin="round"/>
<path d="M169.193 212.947C170.445 208.274 166.81 203.249 161.086 201.716C155.363 200.182 149.702 202.716 148.45 207.388" stroke="#41434D" stroke-width="1.125" stroke-linecap="round" stroke-linejoin="round"/>
<rect x="140.841" y="162.194" width="59" height="59" rx="7.5" transform="rotate(15 140.841 162.194)" stroke="#41434D"/>
<rect x="60.0079" y="208.863" width="59" height="59" rx="7.5" transform="rotate(15 60.0079 208.863)" fill="#171717"/>
<path d="M81.0577 244.593C84.3918 245.486 87.8189 243.508 88.7123 240.174C89.6057 236.839 87.6271 233.412 84.2929 232.519C80.9587 231.626 77.5316 233.604 76.6382 236.938C75.7449 240.273 77.7235 243.7 81.0577 244.593Z" stroke="#41434D" stroke-width="1.125" stroke-linecap="round" stroke-linejoin="round"/>
<path d="M88.1944 259.447C89.4464 254.774 85.8106 249.749 80.0874 248.216C74.3643 246.682 68.7032 249.216 67.4512 253.888" stroke="#41434D" stroke-width="1.125" stroke-linecap="round" stroke-linejoin="round"/>
<rect x="60.0079" y="208.863" width="59" height="59" rx="7.5" transform="rotate(15 60.0079 208.863)" stroke="#41434D"/>
<rect x="170.336" y="306.754" width="59" height="59" rx="7.5" transform="rotate(15 170.336 306.754)" fill="#171717"/>
<path d="M191.308 342.843C194.642 343.736 198.069 341.758 198.962 338.424C199.856 335.089 197.877 331.662 194.543 330.769C191.209 329.876 187.782 331.854 186.888 335.188C185.995 338.523 187.973 341.95 191.308 342.843Z" stroke="#41434D" stroke-width="1.125" stroke-linecap="round" stroke-linejoin="round"/>
<path d="M198.444 357.697C199.696 353.024 196.061 347.999 190.337 346.466C184.614 344.932 178.953 347.466 177.701 352.138" stroke="#41434D" stroke-width="1.125" stroke-linecap="round" stroke-linejoin="round"/>
<rect x="170.336" y="306.754" width="59" height="59" rx="7.5" transform="rotate(15 170.336 306.754)" stroke="#41434D"/>
<rect x="187.51" y="243.027" width="59" height="59" rx="7.5" transform="rotate(15 187.51 243.027)" fill="#171717"/>
<path d="M208.558 279.093C211.892 279.986 215.319 278.008 216.212 274.674C217.106 271.339 215.127 267.912 211.793 267.019C208.459 266.126 205.032 268.104 204.138 271.438C203.245 274.773 205.223 278.2 208.558 279.093Z" stroke="#41434D" stroke-width="1.125" stroke-linecap="round" stroke-linejoin="round"/>
<path d="M215.694 293.947C216.946 289.274 213.311 284.249 207.587 282.716C201.864 281.182 196.203 283.716 194.951 288.388" stroke="#41434D" stroke-width="1.125" stroke-linecap="round" stroke-linejoin="round"/>
<rect x="187.51" y="243.027" width="59" height="59" rx="7.5" transform="rotate(15 187.51 243.027)" stroke="#41434D"/>
<rect x="268.343" y="196.358" width="59" height="59" rx="7.5" transform="rotate(15 268.343 196.358)" fill="#171717"/>
<path d="M289.558 232.593C292.892 233.486 296.319 231.508 297.212 228.174C298.106 224.839 296.127 221.412 292.793 220.519C289.459 219.626 286.032 221.604 285.138 224.938C284.245 228.273 286.223 231.7 289.558 232.593Z" stroke="#41434D" stroke-width="1.125" stroke-linecap="round" stroke-linejoin="round"/>
<path d="M296.694 247.447C297.946 242.774 294.311 237.749 288.587 236.216C282.864 234.682 277.203 237.216 275.951 241.888" stroke="#41434D" stroke-width="1.125" stroke-linecap="round" stroke-linejoin="round"/>
<rect x="268.343" y="196.358" width="59" height="59" rx="7.5" transform="rotate(15 268.343 196.358)" stroke="#41434D"/>
<rect x="332.094" y="213.44" width="59" height="59" rx="7.5" transform="rotate(15 332.094 213.44)" fill="#171717"/>
<rect x="332.094" y="213.44" width="59" height="59" rx="7.5" transform="rotate(15 332.094 213.44)" stroke="#41434D"/>
<rect x="123.56" y="225.715" width="60" height="60" rx="8" transform="rotate(15 123.56 225.715)" fill="#5FA6FF"/>
<path fill-rule="evenodd" clip-rule="evenodd" d="M150.188 255.638L149.22 259.25L149.223 259.255C155.73 261.329 160.327 263.99 159.9 265.58C159.473 267.175 154.163 267.177 147.491 265.72L144.388 277.298L138.517 275.725L141.619 264.147C135.106 262.066 130.496 259.407 130.924 257.812C131.351 256.217 136.669 256.218 143.353 257.678L144.32 254.066L136.198 251.89L137.674 246.382L159.786 252.307L158.31 257.814L150.188 255.638ZM147.753 264.726L147.752 264.73L147.751 264.734C153.64 266.027 158.259 266.159 158.59 264.924C158.921 263.689 154.859 261.494 149.108 259.668L148.027 263.702C147.854 263.673 146.927 263.508 145.114 263.022C143.605 262.618 142.528 262.258 142.156 262.129L143.238 258.091C137.338 256.791 132.706 256.66 132.375 257.895C132.043 259.134 136.117 261.332 141.88 263.157L141.881 263.153C142.252 263.273 143.304 263.602 144.821 264.008C146.718 264.516 147.585 264.694 147.753 264.726Z" fill="white"/>
<rect x="238.311" y="51.1367" width="60" height="60" rx="8" transform="rotate(15 238.311 51.1367)" fill="#5FA6FF"/>
<circle cx="259.746" cy="88.5161" r="18" transform="rotate(15 259.746 88.5161)" fill="black" fill-opacity="0.1"/>
<path d="M258.215 94.3177C255.007 93.4581 253.103 90.1683 253.961 86.9663C254.819 83.7642 258.113 81.867 261.321 82.7266C264.195 83.4967 266.02 86.2271 265.746 89.0887L271.596 90.6562C272.697 84.5738 268.961 78.562 262.874 76.931C256.462 75.2131 249.87 79.0112 248.155 85.4104C246.44 91.8097 250.251 98.3953 256.662 100.113C262.749 101.744 268.99 98.4059 271.078 92.588L265.223 91.0192C264.03 93.6345 261.089 95.0878 258.215 94.3177Z" fill="white"/>
<rect x="255.746" y="-12.0019" width="59" height="59" rx="7.5" transform="rotate(15 255.746 -12.0019)" fill="#171717"/>
<path d="M276.808 24.0931C280.142 24.9864 283.569 23.0078 284.462 19.6736C285.356 16.3395 283.377 12.9124 280.043 12.019C276.709 11.1256 273.282 13.1042 272.388 16.4384C271.495 19.7726 273.473 23.1997 276.808 24.0931Z" stroke="#41434D" stroke-width="1.125" stroke-linecap="round" stroke-linejoin="round"/>
<path d="M283.944 38.9465C285.196 34.2738 281.561 29.2491 275.837 27.7156C270.114 26.1821 264.453 28.7157 263.201 33.3884" stroke="#41434D" stroke-width="1.125" stroke-linecap="round" stroke-linejoin="round"/>
<rect x="255.746" y="-12.0019" width="59" height="59" rx="7.5" transform="rotate(15 255.746 -12.0019)" stroke="#41434D"/>
<rect x="302.415" y="68.8321" width="59" height="59" rx="7.5" transform="rotate(15 302.415 68.8321)" fill="#171717"/>
<path d="M323.308 105.093C326.642 105.986 330.069 104.008 330.962 100.674C331.856 97.3395 329.877 93.9124 326.543 93.019C323.209 92.1256 319.782 94.1042 318.888 97.4384C317.995 100.773 319.973 104.2 323.308 105.093Z" stroke="#41434D" stroke-width="1.125" stroke-linecap="round" stroke-linejoin="round"/>
<path d="M330.444 119.947C331.696 115.274 328.061 110.249 322.337 108.716C316.614 107.182 310.953 109.716 309.701 114.388" stroke="#41434D" stroke-width="1.125" stroke-linecap="round" stroke-linejoin="round"/>
<rect x="302.415" y="68.8321" width="59" height="59" rx="7.5" transform="rotate(15 302.415 68.8321)" stroke="#41434D"/>
<rect x="106.585" y="289.672" width="59" height="59" rx="7.5" transform="rotate(15 106.585 289.672)" fill="#171717"/>
<path d="M127.558 325.593C130.892 326.486 134.319 324.508 135.212 321.174C136.106 317.839 134.127 314.412 130.793 313.519C127.459 312.626 124.032 314.604 123.138 317.938C122.245 321.273 124.223 324.7 127.558 325.593Z" stroke="#41434D" stroke-width="1.125" stroke-linecap="round" stroke-linejoin="round"/>
<path d="M134.694 340.447C135.946 335.774 132.311 330.749 126.587 329.216C120.864 327.682 115.203 330.216 113.951 334.888" stroke="#41434D" stroke-width="1.125" stroke-linecap="round" stroke-linejoin="round"/>
<rect x="106.585" y="289.672" width="59" height="59" rx="7.5" transform="rotate(15 106.585 289.672)" stroke="#41434D"/>
<rect x="250.815" y="259.473" width="60" height="60" rx="8" transform="rotate(15 250.815 259.473)" fill="#5FA6FF"/>
<path fill-rule="evenodd" clip-rule="evenodd" d="M266.761 292.647L273.896 288.528L278.019 295.669L282.17 293.272L275.65 281.981L264.365 288.496L266.761 292.647ZM257.281 292.587L261.431 290.191L263.827 294.341L259.677 296.737L257.281 292.587ZM269.64 304.41L265.521 297.276L261.367 299.666L261.37 299.672L267.886 310.958L279.178 304.439L276.781 300.288L269.64 304.41ZM279.708 298.599L283.858 296.202L286.254 300.353L282.104 302.749L279.708 298.599ZM272.659 293.147L275.091 297.359L270.877 299.796L268.445 295.584L268.448 295.574L269.188 295.147L269.547 294.943L272.659 293.147Z" fill="white"/>
<rect x="204.393" y="179.046" width="60" height="60" rx="8" transform="rotate(15 204.393 179.046)" fill="#5FA6FF"/>
<path d="M227.968 205.826L229.786 209.051L221.801 213.645L219.968 210.48L227.968 205.826Z" fill="white"/>
<path d="M230.752 210.632L232.57 213.857L219.772 221.221L217.938 218.055L230.752 210.632Z" fill="white"/>
<path d="M218.341 211.365L220.159 214.59L216.988 216.415L215.154 213.249L218.341 211.365Z" fill="white"/>
<path d="M233.535 215.437L235.353 218.662L222.555 226.025L220.721 222.86L233.535 215.437Z" fill="white"/>
<rect x="77.0899" y="145.112" width="59" height="59" rx="7.5" transform="rotate(15 77.0899 145.112)" fill="#121212"/>
<rect x="77.0899" y="145.112" width="59" height="59" rx="7.5" transform="rotate(15 77.0899 145.112)" stroke="#41434D"/>
<g filter="url(#filter0_d_134_34055)">
<rect x="49.4512" y="138.158" width="60" height="60" rx="8" transform="rotate(-3.28327 49.4512 138.158)" fill="#5FA6FF"/>
<path d="M77.9606 180.855C77.9905 181.376 77.6455 181.57 77.113 181.6C70.4265 179.894 65.4733 174.256 65.0749 167.311C64.6765 160.367 68.9526 154.2 75.4 151.74C75.9225 151.535 76.2974 151.862 76.3273 152.383L76.397 153.598C76.4169 153.946 76.2594 154.303 75.9143 154.497C70.8768 156.702 67.596 161.593 67.9147 167.148C68.2334 172.704 72.2394 177.351 77.3086 178.802C77.6736 178.955 77.871 179.292 77.8909 179.64L77.9606 180.855Z" fill="white"/>
<path d="M83.0364 176.209C83.0563 176.556 82.7213 176.924 82.3663 176.944L80.9464 177.026C80.5914 177.046 80.2165 176.719 80.1966 176.372L80.0771 174.289C77.2174 174.105 75.7079 172.623 75.046 170.397C75.026 170.05 75.1836 169.693 75.5386 169.672L77.136 169.581C77.4909 169.56 77.6784 169.724 77.8758 170.061C78.3005 171.256 79.0702 172.256 81.3775 172.124C83.1523 172.022 84.3449 171.083 84.2653 169.694C84.1856 168.305 83.4458 167.825 80.9411 167.62C77.184 167.313 75.3494 166.374 75.18 163.422C75.0506 161.165 76.7258 159.328 79.1907 158.838L79.0712 156.754C79.0513 156.407 79.3864 156.04 79.7413 156.019L81.1612 155.938C81.5162 155.918 81.8911 156.244 81.911 156.592L82.0305 158.675C84.1803 158.9 85.6699 160.034 86.1344 161.923C86.1543 162.27 85.9967 162.628 85.6418 162.648L84.2219 162.729C83.8669 162.75 83.6795 162.586 83.482 162.249C83.0574 161.054 82.1401 160.585 80.5427 160.676C78.7678 160.778 77.9302 161.697 77.9999 162.912C78.0696 164.127 78.6419 164.791 81.3241 164.986C85.0812 165.293 86.9158 166.233 87.0851 169.184C87.2146 171.441 85.5493 173.452 82.9169 174.126L83.0364 176.209Z" fill="white"/>
<path d="M86.6971 181.051C86.1746 181.255 85.7997 180.928 85.7698 180.407L85.7001 179.192C85.6802 178.845 85.8378 178.487 86.1828 178.293C91.2203 176.088 94.5011 171.197 94.1824 165.642C93.8638 160.087 89.8577 155.439 84.7885 153.988C84.4236 153.835 84.2262 153.498 84.2062 153.151L84.1365 151.936C84.1066 151.415 84.4517 151.221 84.9841 151.19C91.4931 152.907 96.6239 158.535 97.0222 165.479C97.4206 172.423 93.1446 178.591 86.6971 181.051Z" fill="white"/>
</g>
<rect x="285.226" y="132.377" width="60" height="60" rx="8" transform="rotate(15 285.226 132.377)" fill="#5FA6FF"/>
<path d="M316.448 172.109L305.239 175.141L297.048 166.91L310.984 153.699L316.448 172.109Z" fill="white"/>
<path d="M315.969 173.918L302.665 184.747L296.563 168.718L304.755 176.947L315.969 173.918Z" fill="white"/>
<rect x="157.569" y="97.8311" width="60" height="60" rx="8" transform="rotate(15 157.569 97.8311)" fill="#5FA6FF"/>
<path fill-rule="evenodd" clip-rule="evenodd" d="M190.528 135.193C191.796 132.269 189.933 130.016 187.078 128.081L189.204 124.23L186.88 122.936L184.81 126.686C184.198 126.346 183.567 126.01 182.939 125.677L185.024 121.903L182.7 120.61L180.574 124.459C180.065 124.19 179.565 123.924 179.083 123.656L179.089 123.644L175.884 121.858L174.502 124.362C174.502 124.362 176.237 125.285 176.191 125.301C177.132 125.825 177.135 126.547 176.961 127.072L174.539 131.459C174.604 131.496 174.687 131.546 174.776 131.612L174.697 131.569L174.697 131.568C174.643 131.538 174.587 131.507 174.53 131.476L171.136 137.622C170.93 137.898 170.493 138.277 169.834 137.912C169.849 137.955 168.145 136.971 168.145 136.971L166.137 139.514L169.163 141.197C169.5 141.386 169.833 141.576 170.162 141.763L170.162 141.764C170.381 141.889 170.599 142.013 170.816 142.135L168.666 146.031L170.988 147.324L173.116 143.47C173.746 143.838 174.36 144.186 174.963 144.521L172.844 148.357L175.169 149.65L177.316 145.763C181.35 147.712 184.633 148.241 187.016 144.729C188.935 141.902 188.279 139.799 186.357 138.027C188.087 138.085 189.603 137.334 190.528 135.193ZM182.678 141.711C181.205 144.383 177.077 142.009 175.188 140.923C175.018 140.825 174.866 140.738 174.736 140.666L177.586 135.505C177.744 135.594 177.939 135.696 178.16 135.812C180.136 136.851 184.186 138.981 182.678 141.711ZM179.269 133.36C180.842 134.27 184.275 136.256 185.616 133.828C186.986 131.345 183.606 129.581 181.955 128.719C181.77 128.622 181.606 128.536 181.473 128.462L178.889 133.143C178.998 133.204 179.126 133.277 179.269 133.36Z" fill="white"/>
<rect x="110.809" y="16.9736" width="60" height="60" rx="8" transform="rotate(15 110.809 16.9736)" fill="#5FA6FF"/>
<path d="M140.711 46.7265L127.991 43.3182C125.652 42.6915 123.494 44.8172 124.124 47.1719L128.328 62.8823C128.602 63.908 129.886 64.252 130.636 63.5008L142.134 51.9979C143.855 50.2765 143.05 47.3532 140.712 46.7269L140.711 46.7265ZM129.415 58.8001L128.592 55.0331L126.444 46.5496C126.298 46.0045 126.796 45.4894 127.366 45.6421L132.566 47.0353L129.413 58.8012L129.415 58.8001ZM140.432 50.2961L134.331 56.5724L131.735 59.4216L134.887 47.6556L140.087 49.0488C140.657 49.2015 140.831 49.8967 140.432 50.2961Z" fill="white"/>
</g>
<defs>
<filter id="filter0_d_134_34055" x="37.4512" y="125.722" width="87.3379" height="87.3379" filterUnits="userSpaceOnUse" color-interpolation-filters="sRGB">
<feFlood flood-opacity="0" result="BackgroundImageFix"/>
<feColorMatrix in="SourceAlpha" type="matrix" values="0 0 0 0 0 0 0 0 0 0 0 0 0 0 0 0 0 0 127 0" result="hardAlpha"/>
<feOffset dy="3"/>
<feGaussianBlur stdDeviation="6"/>
<feComposite in2="hardAlpha" operator="out"/>
<feColorMatrix type="matrix" values="0 0 0 0 0 0 0 0 0 0 0 0 0 0 0 0 0 0 0.24 0"/>
<feBlend mode="normal" in2="BackgroundImageFix" result="effect1_dropShadow_134_34055"/>
<feBlend mode="normal" in="SourceGraphic" in2="effect1_dropShadow_134_34055" result="shape"/>
</filter>
<clipPath id="clip0_134_34055">
<rect width="351.997" height="390" fill="white" transform="translate(100.939 -54) rotate(15)"/>
</clipPath>
</defs>
</svg>
