<svg width="508" height="364" viewBox="0 0 508 364" fill="none" xmlns="http://www.w3.org/2000/svg">
<g clip-path="url(#clip0_645_61061)">
<rect x="77" width="760" height="510" rx="14" fill="#121212" fill-opacity="0.5"/>
<rect x="77" width="760" height="32" fill="#171717"/>
<circle cx="93" cy="16" r="4" fill="#DE7265"/>
<circle cx="105" cy="16" r="4" fill="#ECBF63"/>
<circle cx="117" cy="16" r="4" fill="#7BC262"/>
<rect x="365.906" y="8" width="180" height="16" rx="6" fill="#121212"/>
<rect x="76.5" y="-0.5" width="761" height="33" stroke="#41434D" stroke-opacity="0.5"/>
<g filter="url(#filter0_d_645_61061)">
<rect x="125" y="80" width="285" height="80" rx="12" fill="#101010"/>
<rect x="125.5" y="80.5" width="284" height="79" rx="11.5" stroke="#41434D" stroke-dasharray="4 4"/>
</g>
<rect x="125" y="168" width="285" height="80" rx="12" fill="#202020"/>
<path d="M165.172 209.134C165.07 209.119 164.939 209.119 164.823 209.134C162.263 209.046 160.227 206.952 160.227 204.377C160.227 201.745 162.35 199.606 164.997 199.606C167.63 199.606 169.768 201.745 169.768 204.377C169.754 206.952 167.732 209.046 165.172 209.134Z" fill="#A3A3A3"/>
<path d="M174.806 218.734C172.217 221.105 168.785 222.545 165.003 222.545C161.221 222.545 157.788 221.105 155.199 218.734C155.345 217.367 156.217 216.029 157.774 214.982C161.759 212.334 168.276 212.334 172.232 214.982C173.788 216.029 174.661 217.367 174.806 218.734Z" fill="#A3A3A3"/>
<path d="M164.999 222.545C173.032 222.545 179.544 216.033 179.544 208C179.544 199.966 173.032 193.454 164.999 193.454C156.965 193.454 150.453 199.966 150.453 208C150.453 216.033 156.965 222.545 164.999 222.545Z" stroke="#A3A3A3" stroke-width="2" stroke-linecap="round" stroke-linejoin="round"/>
<path d="M194.423 202.818H196.267V209.47C196.267 210.199 196.095 210.841 195.75 211.394C195.409 211.948 194.928 212.38 194.308 212.692C193.688 213 192.964 213.154 192.136 213.154C191.304 213.154 190.578 213 189.958 212.692C189.338 212.38 188.858 211.948 188.516 211.394C188.175 210.841 188.004 210.199 188.004 209.47V202.818H189.849V209.316C189.849 209.74 189.942 210.118 190.127 210.45C190.316 210.781 190.581 211.041 190.923 211.23C191.264 211.416 191.668 211.509 192.136 211.509C192.603 211.509 193.007 211.416 193.349 211.23C193.693 211.041 193.959 210.781 194.144 210.45C194.33 210.118 194.423 209.74 194.423 209.316V202.818ZM204.228 207.382L202.587 207.561C202.541 207.395 202.46 207.24 202.344 207.094C202.231 206.948 202.078 206.83 201.886 206.741C201.694 206.651 201.459 206.607 201.18 206.607C200.806 206.607 200.491 206.688 200.236 206.85C199.984 207.013 199.859 207.223 199.863 207.482C199.859 207.704 199.941 207.884 200.106 208.023C200.275 208.163 200.554 208.277 200.942 208.366L202.244 208.645C202.967 208.801 203.504 209.048 203.855 209.386C204.21 209.724 204.389 210.166 204.392 210.713C204.389 211.194 204.248 211.618 203.969 211.986C203.694 212.35 203.311 212.635 202.821 212.841C202.33 213.046 201.767 213.149 201.131 213.149C200.196 213.149 199.443 212.954 198.873 212.562C198.303 212.168 197.964 211.62 197.854 210.917L199.609 210.748C199.689 211.093 199.858 211.353 200.116 211.528C200.375 211.704 200.711 211.792 201.126 211.792C201.553 211.792 201.896 211.704 202.155 211.528C202.416 211.353 202.547 211.136 202.547 210.877C202.547 210.658 202.463 210.478 202.294 210.335C202.128 210.193 201.87 210.083 201.518 210.007L200.216 209.734C199.483 209.581 198.941 209.324 198.59 208.963C198.239 208.598 198.065 208.138 198.068 207.581C198.065 207.11 198.192 206.703 198.451 206.358C198.713 206.01 199.076 205.741 199.54 205.553C200.007 205.36 200.546 205.264 201.155 205.264C202.05 205.264 202.755 205.455 203.268 205.836C203.785 206.217 204.105 206.732 204.228 207.382ZM209.257 213.149C208.491 213.149 207.83 212.99 207.273 212.672C206.719 212.35 206.294 211.896 205.995 211.31C205.697 210.72 205.548 210.025 205.548 209.227C205.548 208.441 205.697 207.752 205.995 207.158C206.297 206.562 206.718 206.098 207.258 205.766C207.798 205.432 208.433 205.264 209.162 205.264C209.633 205.264 210.077 205.34 210.494 205.493C210.915 205.642 211.287 205.874 211.608 206.189C211.933 206.504 212.188 206.905 212.374 207.392C212.559 207.876 212.652 208.453 212.652 209.122V209.674H206.393V208.461H210.927C210.924 208.116 210.849 207.81 210.703 207.541C210.557 207.269 210.354 207.056 210.092 206.9C209.833 206.744 209.532 206.666 209.187 206.666C208.819 206.666 208.496 206.756 208.218 206.935C207.939 207.11 207.722 207.342 207.566 207.631C207.414 207.916 207.336 208.229 207.333 208.57V209.629C207.333 210.073 207.414 210.455 207.576 210.773C207.739 211.088 207.966 211.33 208.257 211.499C208.549 211.664 208.89 211.747 209.281 211.747C209.543 211.747 209.78 211.711 209.992 211.638C210.204 211.562 210.388 211.451 210.544 211.305C210.7 211.159 210.818 210.978 210.897 210.763L212.578 210.952C212.472 211.396 212.269 211.784 211.971 212.115C211.676 212.443 211.298 212.698 210.838 212.881C210.377 213.06 209.85 213.149 209.257 213.149ZM214.175 213V205.364H215.92V206.636H215.999C216.138 206.196 216.377 205.856 216.715 205.617C217.057 205.375 217.446 205.254 217.884 205.254C217.983 205.254 218.094 205.259 218.217 205.269C218.343 205.276 218.447 205.287 218.53 205.304V206.96C218.454 206.933 218.333 206.91 218.167 206.89C218.004 206.867 217.847 206.855 217.695 206.855C217.366 206.855 217.071 206.926 216.81 207.069C216.551 207.208 216.347 207.402 216.198 207.651C216.049 207.899 215.974 208.186 215.974 208.511V213H214.175ZM225.368 213V214.437H218.791V213H225.368ZM229.266 213.139C228.55 213.139 227.914 213.017 227.357 212.771C226.803 212.526 226.366 212.185 226.044 211.747C225.723 211.31 225.552 210.804 225.532 210.231H227.402C227.418 210.506 227.509 210.746 227.675 210.952C227.841 211.154 228.061 211.311 228.336 211.424C228.611 211.537 228.92 211.593 229.261 211.593C229.626 211.593 229.949 211.53 230.23 211.404C230.512 211.275 230.733 211.096 230.892 210.867C231.051 210.638 231.129 210.375 231.125 210.077C231.129 209.768 231.049 209.497 230.887 209.261C230.724 209.026 230.489 208.842 230.181 208.71C229.876 208.577 229.508 208.511 229.077 208.511H228.177V207.089H229.077C229.432 207.089 229.742 207.027 230.007 206.905C230.275 206.782 230.486 206.61 230.638 206.388C230.791 206.162 230.865 205.902 230.862 205.607C230.865 205.319 230.801 205.069 230.668 204.857C230.539 204.641 230.355 204.474 230.116 204.354C229.881 204.235 229.604 204.175 229.286 204.175C228.974 204.175 228.686 204.232 228.421 204.344C228.156 204.457 227.942 204.618 227.779 204.827C227.617 205.032 227.531 205.277 227.521 205.562H225.746C225.759 204.992 225.923 204.492 226.238 204.061C226.556 203.627 226.981 203.289 227.511 203.047C228.041 202.802 228.636 202.679 229.296 202.679C229.975 202.679 230.565 202.807 231.066 203.062C231.569 203.314 231.959 203.653 232.234 204.081C232.509 204.509 232.647 204.981 232.647 205.498C232.65 206.071 232.481 206.552 232.14 206.94C231.801 207.327 231.357 207.581 230.807 207.7V207.78C231.523 207.879 232.072 208.144 232.453 208.575C232.837 209.003 233.028 209.535 233.025 210.171C233.025 210.741 232.862 211.252 232.537 211.702C232.216 212.15 231.772 212.501 231.205 212.756C230.641 213.012 229.995 213.139 229.266 213.139ZM234.547 211.111V209.644L238.867 202.818H240.09V204.906H239.345L236.436 209.515V209.594H242.467V211.111H234.547ZM239.404 213V210.663L239.424 210.007V202.818H241.164V213H239.404ZM247.595 213.139C246.932 213.139 246.339 213.015 245.815 212.766C245.291 212.514 244.876 212.17 244.567 211.732C244.262 211.295 244.1 210.794 244.08 210.231H245.87C245.903 210.648 246.084 210.99 246.412 211.255C246.74 211.517 247.134 211.648 247.595 211.648C247.956 211.648 248.278 211.565 248.559 211.399C248.841 211.233 249.063 211.003 249.226 210.708C249.388 210.413 249.468 210.077 249.464 209.699C249.468 209.314 249.386 208.973 249.221 208.675C249.055 208.376 248.828 208.143 248.54 207.974C248.251 207.801 247.92 207.715 247.545 207.715C247.24 207.712 246.94 207.768 246.645 207.884C246.35 208 246.117 208.153 245.944 208.342L244.279 208.068L244.811 202.818H250.717V204.359H246.337L246.044 207.059H246.104C246.292 206.837 246.559 206.653 246.904 206.507C247.249 206.358 247.626 206.283 248.037 206.283C248.654 206.283 249.204 206.429 249.688 206.721C250.172 207.009 250.553 207.407 250.831 207.914C251.11 208.421 251.249 209.001 251.249 209.654C251.249 210.327 251.093 210.927 250.782 211.454C250.474 211.978 250.044 212.39 249.494 212.692C248.947 212.99 248.314 213.139 247.595 213.139ZM256.643 213.139C256.156 213.136 255.68 213.051 255.216 212.886C254.752 212.717 254.335 212.443 253.964 212.065C253.592 211.684 253.297 211.179 253.079 210.549C252.86 209.916 252.752 209.132 252.756 208.197C252.756 207.326 252.848 206.549 253.034 205.866C253.22 205.183 253.486 204.606 253.834 204.136C254.182 203.662 254.602 203.3 255.092 203.052C255.586 202.803 256.138 202.679 256.748 202.679C257.387 202.679 257.954 202.805 258.448 203.057C258.945 203.309 259.346 203.653 259.651 204.091C259.956 204.525 260.145 205.016 260.218 205.562H258.403C258.31 205.171 258.12 204.86 257.831 204.628C257.546 204.393 257.185 204.275 256.748 204.275C256.042 204.275 255.498 204.581 255.117 205.195C254.739 205.808 254.549 206.65 254.545 207.72H254.615C254.777 207.429 254.988 207.178 255.246 206.969C255.505 206.761 255.796 206.6 256.121 206.487C256.449 206.371 256.796 206.313 257.16 206.313C257.757 206.313 258.292 206.456 258.766 206.741C259.243 207.026 259.621 207.419 259.9 207.919C260.178 208.416 260.316 208.986 260.312 209.629C260.316 210.299 260.163 210.9 259.855 211.434C259.547 211.964 259.117 212.382 258.567 212.687C258.017 212.992 257.376 213.143 256.643 213.139ZM256.633 211.648C256.995 211.648 257.318 211.56 257.603 211.384C257.888 211.209 258.113 210.972 258.279 210.673C258.445 210.375 258.526 210.04 258.523 209.669C258.526 209.304 258.446 208.975 258.284 208.68C258.125 208.385 257.904 208.151 257.623 207.979C257.341 207.806 257.019 207.72 256.658 207.72C256.39 207.72 256.139 207.772 255.907 207.874C255.675 207.977 255.473 208.12 255.301 208.302C255.129 208.481 254.993 208.69 254.893 208.928C254.797 209.164 254.747 209.415 254.744 209.684C254.747 210.039 254.83 210.365 254.993 210.663C255.155 210.962 255.379 211.2 255.664 211.379C255.949 211.558 256.272 211.648 256.633 211.648Z" fill="#A3A3A3"/>
<path d="M272.882 196.172V195.227H278.51V196.172H276.241V202.5H275.147V196.172H272.882ZM279.102 202.5V197.045H280.129V197.912H280.186C280.285 197.618 280.46 197.388 280.711 197.219C280.964 197.049 281.251 196.964 281.57 196.964C281.637 196.964 281.715 196.966 281.805 196.971C281.897 196.976 281.969 196.982 282.021 196.989V198.004C281.979 197.992 281.903 197.979 281.794 197.965C281.685 197.949 281.576 197.94 281.468 197.94C281.217 197.94 280.993 197.994 280.796 198.1C280.602 198.204 280.448 198.35 280.335 198.537C280.221 198.722 280.164 198.932 280.164 199.169V202.5H279.102ZM284.479 202.621C284.133 202.621 283.821 202.557 283.541 202.429C283.262 202.299 283.041 202.111 282.877 201.864C282.716 201.618 282.636 201.316 282.636 200.959C282.636 200.651 282.695 200.398 282.813 200.199C282.932 200 283.092 199.843 283.293 199.727C283.494 199.611 283.719 199.523 283.968 199.464C284.216 199.405 284.469 199.36 284.727 199.329C285.054 199.291 285.319 199.26 285.523 199.237C285.727 199.21 285.874 199.169 285.967 199.112C286.059 199.055 286.105 198.963 286.105 198.835V198.81C286.105 198.5 286.018 198.26 285.843 198.089C285.67 197.919 285.412 197.834 285.068 197.834C284.711 197.834 284.429 197.913 284.223 198.072C284.02 198.228 283.879 198.402 283.801 198.594L282.803 198.366C282.921 198.035 283.094 197.768 283.321 197.564C283.551 197.358 283.815 197.209 284.113 197.116C284.411 197.022 284.725 196.974 285.054 196.974C285.272 196.974 285.503 197 285.747 197.053C285.993 197.102 286.222 197.195 286.436 197.33C286.651 197.464 286.827 197.657 286.965 197.908C287.102 198.157 287.171 198.48 287.171 198.878V202.5H286.134V201.754H286.091C286.022 201.892 285.919 202.027 285.782 202.159C285.645 202.292 285.468 202.402 285.253 202.489C285.038 202.577 284.78 202.621 284.479 202.621ZM284.71 201.768C285.003 201.768 285.254 201.71 285.463 201.594C285.673 201.478 285.833 201.327 285.942 201.14C286.053 200.951 286.109 200.748 286.109 200.533V199.83C286.071 199.867 285.998 199.903 285.889 199.936C285.782 199.967 285.66 199.994 285.523 200.018C285.386 200.039 285.252 200.059 285.122 200.078C284.991 200.095 284.883 200.109 284.795 200.121C284.589 200.147 284.401 200.191 284.23 200.252C284.062 200.314 283.927 200.402 283.825 200.518C283.726 200.632 283.676 200.784 283.676 200.973C283.676 201.236 283.773 201.435 283.968 201.57C284.162 201.702 284.409 201.768 284.71 201.768ZM290.627 202.607C290.186 202.607 289.793 202.494 289.448 202.269C289.105 202.042 288.835 201.719 288.638 201.3C288.444 200.878 288.347 200.373 288.347 199.783C288.347 199.194 288.445 198.69 288.642 198.271C288.841 197.852 289.113 197.531 289.458 197.308C289.804 197.086 290.196 196.974 290.634 196.974C290.972 196.974 291.245 197.031 291.451 197.145C291.659 197.256 291.82 197.386 291.934 197.536C292.05 197.685 292.14 197.816 292.203 197.93H292.267V195.227H293.329V202.5H292.292V201.651H292.203C292.14 201.767 292.047 201.9 291.926 202.049C291.808 202.198 291.645 202.328 291.436 202.44C291.228 202.551 290.958 202.607 290.627 202.607ZM290.861 201.701C291.167 201.701 291.425 201.621 291.635 201.46C291.848 201.296 292.009 201.07 292.118 200.781C292.23 200.492 292.285 200.156 292.285 199.773C292.285 199.394 292.231 199.062 292.122 198.778C292.013 198.494 291.853 198.273 291.642 198.114C291.432 197.956 291.171 197.876 290.861 197.876C290.542 197.876 290.275 197.959 290.062 198.125C289.849 198.291 289.688 198.517 289.579 198.803C289.473 199.09 289.419 199.413 289.419 199.773C289.419 200.137 289.474 200.465 289.583 200.756C289.692 201.048 289.853 201.278 290.066 201.449C290.281 201.617 290.546 201.701 290.861 201.701ZM297.195 202.61C296.658 202.61 296.195 202.495 295.807 202.266C295.421 202.034 295.123 201.708 294.912 201.289C294.704 200.868 294.6 200.374 294.6 199.808C294.6 199.25 294.704 198.757 294.912 198.331C295.123 197.905 295.416 197.572 295.793 197.333C296.172 197.094 296.614 196.974 297.121 196.974C297.429 196.974 297.727 197.025 298.016 197.127C298.305 197.229 298.564 197.389 298.793 197.607C299.023 197.824 299.204 198.107 299.337 198.455C299.469 198.801 299.536 199.221 299.536 199.716V200.092H295.2V199.297H298.495C298.495 199.018 298.438 198.77 298.325 198.555C298.211 198.337 298.051 198.165 297.845 198.04C297.642 197.914 297.403 197.852 297.128 197.852C296.83 197.852 296.569 197.925 296.347 198.072C296.127 198.216 295.956 198.406 295.835 198.64C295.717 198.872 295.658 199.124 295.658 199.396V200.018C295.658 200.382 295.722 200.692 295.85 200.948C295.98 201.204 296.161 201.399 296.393 201.534C296.625 201.667 296.896 201.733 297.206 201.733C297.407 201.733 297.591 201.705 297.757 201.648C297.922 201.589 298.066 201.501 298.186 201.385C298.307 201.269 298.399 201.126 298.463 200.955L299.468 201.136C299.388 201.432 299.243 201.692 299.035 201.914C298.829 202.134 298.57 202.306 298.257 202.429C297.947 202.55 297.593 202.61 297.195 202.61Z" fill="white"/>
<path d="M289.945 208.768L294.945 213.768L289.945 218.768" stroke="white" stroke-width="1.5" stroke-miterlimit="10" stroke-linecap="round" stroke-linejoin="round"/>
<path d="M277.945 213.768L294.775 213.768" stroke="white" stroke-width="1.5" stroke-miterlimit="10" stroke-linecap="round" stroke-linejoin="round"/>
<path d="M314.973 213.312V205.449H316.757V213.312H314.973ZM311.933 210.273V208.489H319.797V210.273H311.933ZM326.585 214.222C325.65 214.222 324.847 213.985 324.176 213.511C323.509 213.034 322.996 212.347 322.636 211.449C322.28 210.547 322.102 209.462 322.102 208.193C322.106 206.924 322.286 205.845 322.642 204.955C323.002 204.061 323.515 203.379 324.182 202.909C324.852 202.439 325.653 202.205 326.585 202.205C327.517 202.205 328.318 202.439 328.989 202.909C329.659 203.379 330.172 204.061 330.528 204.955C330.888 205.848 331.068 206.928 331.068 208.193C331.068 209.466 330.888 210.553 330.528 211.455C330.172 212.352 329.659 213.038 328.989 213.511C328.322 213.985 327.521 214.222 326.585 214.222ZM326.585 212.443C327.312 212.443 327.886 212.085 328.307 211.369C328.731 210.65 328.943 209.591 328.943 208.193C328.943 207.269 328.847 206.492 328.653 205.864C328.46 205.235 328.187 204.761 327.835 204.443C327.483 204.121 327.066 203.96 326.585 203.96C325.862 203.96 325.29 204.32 324.869 205.04C324.449 205.756 324.237 206.807 324.233 208.193C324.229 209.121 324.322 209.902 324.511 210.534C324.705 211.167 324.977 211.644 325.33 211.966C325.682 212.284 326.1 212.443 326.585 212.443ZM333.793 214.125C333.448 214.125 333.152 214.004 332.906 213.761C332.66 213.519 332.539 213.223 332.543 212.875C332.539 212.534 332.66 212.242 332.906 212C333.152 211.758 333.448 211.636 333.793 211.636C334.126 211.636 334.416 211.758 334.662 212C334.912 212.242 335.039 212.534 335.043 212.875C335.039 213.106 334.978 213.316 334.861 213.506C334.747 213.695 334.596 213.847 334.406 213.96C334.221 214.07 334.016 214.125 333.793 214.125ZM340.991 214.222C340.056 214.222 339.253 213.985 338.582 213.511C337.916 213.034 337.402 212.347 337.043 211.449C336.687 210.547 336.509 209.462 336.509 208.193C336.512 206.924 336.692 205.845 337.048 204.955C337.408 204.061 337.921 203.379 338.588 202.909C339.259 202.439 340.06 202.205 340.991 202.205C341.923 202.205 342.724 202.439 343.395 202.909C344.065 203.379 344.579 204.061 344.935 204.955C345.295 205.848 345.474 206.928 345.474 208.193C345.474 209.466 345.295 210.553 344.935 211.455C344.579 212.352 344.065 213.038 343.395 213.511C342.728 213.985 341.927 214.222 340.991 214.222ZM340.991 212.443C341.719 212.443 342.293 212.085 342.713 211.369C343.137 210.65 343.349 209.591 343.349 208.193C343.349 207.269 343.253 206.492 343.06 205.864C342.866 205.235 342.594 204.761 342.241 204.443C341.889 204.121 341.473 203.96 340.991 203.96C340.268 203.96 339.696 204.32 339.276 205.04C338.855 205.756 338.643 206.807 338.639 208.193C338.635 209.121 338.728 209.902 338.918 210.534C339.111 211.167 339.384 211.644 339.736 211.966C340.088 212.284 340.507 212.443 340.991 212.443ZM351.663 214.222C350.728 214.222 349.925 213.985 349.254 213.511C348.588 213.034 348.074 212.347 347.714 211.449C347.358 210.547 347.18 209.462 347.18 208.193C347.184 206.924 347.364 205.845 347.72 204.955C348.08 204.061 348.593 203.379 349.26 202.909C349.93 202.439 350.732 202.205 351.663 202.205C352.595 202.205 353.396 202.439 354.067 202.909C354.737 203.379 355.25 204.061 355.607 204.955C355.966 205.848 356.146 206.928 356.146 208.193C356.146 209.466 355.966 210.553 355.607 211.455C355.25 212.352 354.737 213.038 354.067 213.511C353.4 213.985 352.599 214.222 351.663 214.222ZM351.663 212.443C352.391 212.443 352.964 212.085 353.385 211.369C353.809 210.65 354.021 209.591 354.021 208.193C354.021 207.269 353.925 206.492 353.732 205.864C353.538 205.235 353.266 204.761 352.913 204.443C352.561 204.121 352.144 203.96 351.663 203.96C350.94 203.96 350.368 204.32 349.947 205.04C349.527 205.756 349.315 206.807 349.311 208.193C349.307 209.121 349.4 209.902 349.589 210.534C349.783 211.167 350.055 211.644 350.408 211.966C350.76 212.284 351.179 212.443 351.663 212.443ZM362.08 214.159C361.322 214.159 360.644 214.017 360.045 213.733C359.447 213.445 358.972 213.051 358.619 212.551C358.271 212.051 358.085 211.479 358.062 210.835H360.108C360.146 211.312 360.352 211.703 360.727 212.006C361.102 212.305 361.553 212.455 362.08 212.455C362.492 212.455 362.86 212.36 363.182 212.17C363.504 211.981 363.758 211.718 363.943 211.381C364.129 211.044 364.22 210.659 364.216 210.227C364.22 209.788 364.127 209.398 363.937 209.057C363.748 208.716 363.489 208.449 363.159 208.256C362.83 208.059 362.451 207.96 362.023 207.96C361.674 207.956 361.331 208.021 360.994 208.153C360.657 208.286 360.39 208.46 360.193 208.676L358.29 208.364L358.898 202.364H365.648V204.125H360.642L360.307 207.21H360.375C360.591 206.956 360.896 206.746 361.29 206.58C361.684 206.409 362.116 206.324 362.585 206.324C363.29 206.324 363.919 206.491 364.472 206.824C365.025 207.153 365.46 207.608 365.778 208.187C366.097 208.767 366.256 209.43 366.256 210.176C366.256 210.945 366.078 211.631 365.722 212.233C365.369 212.831 364.879 213.303 364.25 213.648C363.625 213.989 362.902 214.159 362.08 214.159ZM371.909 215.455V200.909H372.841V215.455H371.909ZM374.597 205.562C374.544 205.066 374.32 204.68 373.926 204.403C373.536 204.127 373.028 203.989 372.403 203.989C371.964 203.989 371.587 204.055 371.273 204.187C370.958 204.32 370.718 204.5 370.551 204.727C370.384 204.955 370.299 205.214 370.295 205.506C370.295 205.748 370.35 205.958 370.46 206.136C370.574 206.314 370.727 206.466 370.92 206.591C371.114 206.712 371.328 206.814 371.562 206.898C371.797 206.981 372.034 207.051 372.273 207.108L373.364 207.381C373.803 207.483 374.225 207.621 374.631 207.795C375.04 207.97 375.405 208.189 375.727 208.455C376.053 208.72 376.311 209.04 376.5 209.415C376.689 209.79 376.784 210.229 376.784 210.733C376.784 211.415 376.61 212.015 376.261 212.534C375.913 213.049 375.409 213.453 374.75 213.744C374.095 214.032 373.301 214.176 372.369 214.176C371.464 214.176 370.678 214.036 370.011 213.756C369.348 213.475 368.83 213.066 368.455 212.528C368.083 211.991 367.883 211.335 367.852 210.562H369.926C369.956 210.968 370.081 211.305 370.301 211.574C370.521 211.843 370.807 212.044 371.159 212.176C371.515 212.309 371.913 212.375 372.352 212.375C372.811 212.375 373.212 212.307 373.557 212.17C373.905 212.03 374.178 211.837 374.375 211.591C374.572 211.341 374.672 211.049 374.676 210.716C374.672 210.413 374.583 210.163 374.409 209.966C374.235 209.765 373.991 209.598 373.676 209.466C373.366 209.33 373.002 209.208 372.585 209.102L371.261 208.761C370.303 208.515 369.545 208.142 368.989 207.642C368.436 207.138 368.159 206.47 368.159 205.636C368.159 204.951 368.345 204.35 368.716 203.835C369.091 203.32 369.6 202.92 370.244 202.636C370.888 202.348 371.617 202.205 372.432 202.205C373.258 202.205 373.981 202.348 374.602 202.636C375.227 202.92 375.718 203.316 376.074 203.824C376.43 204.328 376.614 204.907 376.625 205.562H374.597Z" fill="#5FA6FF"/>
<path d="M350.419 230.726V237.999H349.538V231.65H349.496L347.72 232.829V231.934L349.538 230.726H350.419ZM352.34 236.508V235.783L355.536 230.726H356.062V231.848H355.707L353.292 235.669V235.726H357.596V236.508H352.34ZM355.763 237.999V236.287V235.95V230.726H356.602V237.999H355.763ZM359.21 238.056C359.035 238.056 358.884 237.993 358.759 237.868C358.633 237.742 358.571 237.592 358.571 237.417C358.571 237.241 358.633 237.091 358.759 236.966C358.884 236.84 359.035 236.777 359.21 236.777C359.385 236.777 359.535 236.84 359.661 236.966C359.786 237.091 359.849 237.241 359.849 237.417C359.849 237.533 359.819 237.639 359.76 237.736C359.703 237.833 359.627 237.911 359.529 237.971C359.435 238.027 359.328 238.056 359.21 238.056ZM363.457 238.098C362.922 238.098 362.466 237.953 362.09 237.662C361.713 237.368 361.426 236.943 361.227 236.387C361.028 235.828 360.929 235.153 360.929 234.363C360.929 233.577 361.028 232.906 361.227 232.349C361.428 231.79 361.717 231.364 362.093 231.071C362.472 230.775 362.927 230.627 363.457 230.627C363.987 230.627 364.441 230.775 364.817 231.071C365.196 231.364 365.485 231.79 365.684 232.349C365.885 232.906 365.985 233.577 365.985 234.363C365.985 235.153 365.886 235.828 365.687 236.387C365.488 236.943 365.201 237.368 364.824 237.662C364.448 237.953 363.992 238.098 363.457 238.098ZM363.457 237.317C363.987 237.317 364.399 237.062 364.693 236.55C364.986 236.039 365.133 235.31 365.133 234.363C365.133 233.733 365.066 233.197 364.931 232.754C364.798 232.311 364.606 231.974 364.355 231.742C364.107 231.51 363.807 231.394 363.457 231.394C362.931 231.394 362.521 231.653 362.225 232.172C361.929 232.688 361.781 233.418 361.781 234.363C361.781 234.992 361.847 235.527 361.98 235.968C362.112 236.408 362.303 236.743 362.551 236.973C362.802 237.202 363.104 237.317 363.457 237.317ZM369.664 238.098C369.177 238.098 368.746 238.012 368.372 237.839C368 237.664 367.71 237.424 367.502 237.118C367.293 236.811 367.19 236.46 367.193 236.067C367.19 235.759 367.251 235.475 367.374 235.215C367.497 234.952 367.665 234.733 367.878 234.558C368.094 234.38 368.334 234.268 368.599 234.221V234.178C368.251 234.088 367.974 233.893 367.768 233.592C367.562 233.289 367.46 232.945 367.463 232.559C367.46 232.189 367.554 231.859 367.743 231.568C367.933 231.277 368.193 231.047 368.525 230.879C368.858 230.711 369.238 230.627 369.664 230.627C370.086 230.627 370.462 230.711 370.794 230.879C371.125 231.047 371.386 231.277 371.575 231.568C371.767 231.859 371.864 232.189 371.866 232.559C371.864 232.945 371.758 233.289 371.55 233.592C371.344 233.893 371.071 234.088 370.73 234.178V234.221C370.993 234.268 371.229 234.38 371.44 234.558C371.651 234.733 371.819 234.952 371.944 235.215C372.07 235.475 372.134 235.759 372.136 236.067C372.134 236.46 372.027 236.811 371.816 237.118C371.608 237.424 371.318 237.664 370.946 237.839C370.577 238.012 370.15 238.098 369.664 238.098ZM369.664 237.317C369.993 237.317 370.278 237.264 370.517 237.157C370.756 237.051 370.94 236.901 371.071 236.706C371.201 236.512 371.267 236.285 371.27 236.025C371.267 235.75 371.196 235.507 371.056 235.297C370.917 235.086 370.726 234.92 370.485 234.799C370.246 234.679 369.972 234.618 369.664 234.618C369.354 234.618 369.077 234.679 368.833 234.799C368.592 234.92 368.401 235.086 368.262 235.297C368.124 235.507 368.057 235.75 368.059 236.025C368.057 236.285 368.12 236.512 368.248 236.706C368.378 236.901 368.564 237.051 368.805 237.157C369.047 237.264 369.333 237.317 369.664 237.317ZM369.664 233.866C369.925 233.866 370.156 233.813 370.357 233.709C370.56 233.605 370.72 233.459 370.836 233.272C370.952 233.085 371.011 232.866 371.014 232.616C371.011 232.369 370.953 232.155 370.84 231.973C370.726 231.788 370.569 231.646 370.368 231.547C370.166 231.445 369.932 231.394 369.664 231.394C369.392 231.394 369.154 231.445 368.951 231.547C368.747 231.646 368.59 231.788 368.478 231.973C368.367 232.155 368.313 232.369 368.315 232.616C368.313 232.866 368.368 233.085 368.482 233.272C368.598 233.459 368.758 233.605 368.961 233.709C369.165 233.813 369.399 233.866 369.664 233.866ZM373.897 238.056C373.722 238.056 373.572 237.993 373.446 237.868C373.321 237.742 373.258 237.592 373.258 237.417C373.258 237.241 373.321 237.091 373.446 236.966C373.572 236.84 373.722 236.777 373.897 236.777C374.073 236.777 374.223 236.84 374.348 236.966C374.474 237.091 374.537 237.241 374.537 237.417C374.537 237.533 374.507 237.639 374.448 237.736C374.391 237.833 374.314 237.911 374.217 237.971C374.122 238.027 374.016 238.056 373.897 238.056ZM376.026 237.999V237.36L378.427 234.732C378.709 234.424 378.941 234.157 379.123 233.929C379.305 233.7 379.44 233.484 379.528 233.283C379.618 233.08 379.663 232.866 379.663 232.644C379.663 232.388 379.601 232.167 379.478 231.98C379.357 231.793 379.192 231.648 378.981 231.547C378.77 231.445 378.533 231.394 378.271 231.394C377.991 231.394 377.747 231.452 377.539 231.568C377.333 231.682 377.173 231.841 377.06 232.047C376.948 232.253 376.893 232.495 376.893 232.772H376.055C376.055 232.346 376.153 231.972 376.349 231.65C376.546 231.328 376.813 231.077 377.152 230.897C377.493 230.717 377.875 230.627 378.299 230.627C378.725 230.627 379.103 230.717 379.432 230.897C379.761 231.077 380.019 231.319 380.206 231.625C380.393 231.93 380.487 232.27 380.487 232.644C380.487 232.911 380.438 233.173 380.341 233.429C380.246 233.682 380.08 233.965 379.844 234.277C379.609 234.588 379.284 234.966 378.867 235.414L377.234 237.161V237.218H380.614V237.999H376.026ZM384.453 238.098C383.918 238.098 383.462 237.953 383.086 237.662C382.71 237.368 382.422 236.943 382.223 236.387C382.024 235.828 381.925 235.153 381.925 234.363C381.925 233.577 382.024 232.906 382.223 232.349C382.424 231.79 382.713 231.364 383.089 231.071C383.468 230.775 383.923 230.627 384.453 230.627C384.983 230.627 385.437 230.775 385.813 231.071C386.192 231.364 386.481 231.79 386.68 232.349C386.881 232.906 386.982 233.577 386.982 234.363C386.982 235.153 386.882 235.828 386.683 236.387C386.484 236.943 386.197 237.368 385.82 237.662C385.444 237.953 384.988 238.098 384.453 238.098ZM384.453 237.317C384.983 237.317 385.395 237.062 385.689 236.55C385.982 236.039 386.129 235.31 386.129 234.363C386.129 233.733 386.062 233.197 385.927 232.754C385.794 232.311 385.603 231.974 385.352 231.742C385.103 231.51 384.804 231.394 384.453 231.394C383.928 231.394 383.517 231.653 383.221 232.172C382.925 232.688 382.777 233.418 382.777 234.363C382.777 234.992 382.843 235.527 382.976 235.968C383.108 236.408 383.299 236.743 383.548 236.973C383.799 237.202 384.1 237.317 384.453 237.317ZM388.331 237.999V237.36L390.732 234.732C391.013 234.424 391.245 234.157 391.428 233.929C391.61 233.7 391.745 233.484 391.832 233.283C391.922 233.08 391.967 232.866 391.967 232.644C391.967 232.388 391.906 232.167 391.783 231.98C391.662 231.793 391.496 231.648 391.286 231.547C391.075 231.445 390.838 231.394 390.575 231.394C390.296 231.394 390.052 231.452 389.844 231.568C389.638 231.682 389.478 231.841 389.364 232.047C389.253 232.253 389.197 232.495 389.197 232.772H388.359C388.359 232.346 388.458 231.972 388.654 231.65C388.851 231.328 389.118 231.077 389.457 230.897C389.798 230.717 390.18 230.627 390.604 230.627C391.03 230.627 391.407 230.717 391.737 230.897C392.066 231.077 392.324 231.319 392.511 231.625C392.698 231.93 392.791 232.27 392.791 232.644C392.791 232.911 392.743 233.173 392.646 233.429C392.551 233.682 392.385 233.965 392.148 234.277C391.914 234.588 391.589 234.966 391.172 235.414L389.538 237.161V237.218H392.919V237.999H388.331ZM396.843 238.098C396.374 238.098 395.956 238.018 395.589 237.857C395.225 237.696 394.935 237.472 394.719 237.186C394.506 236.897 394.39 236.562 394.371 236.181H395.266C395.285 236.415 395.366 236.618 395.508 236.788C395.65 236.956 395.836 237.086 396.065 237.179C396.295 237.271 396.549 237.317 396.829 237.317C397.141 237.317 397.418 237.263 397.66 237.154C397.901 237.045 398.091 236.893 398.228 236.699C398.365 236.505 398.434 236.28 398.434 236.025C398.434 235.757 398.368 235.522 398.235 235.318C398.103 235.112 397.908 234.951 397.653 234.835C397.397 234.719 397.085 234.661 396.715 234.661H396.133V233.88H396.715C397.004 233.88 397.257 233.828 397.475 233.723C397.695 233.619 397.867 233.473 397.99 233.283C398.116 233.094 398.178 232.871 398.178 232.616C398.178 232.369 398.124 232.155 398.015 231.973C397.906 231.79 397.752 231.648 397.553 231.547C397.357 231.445 397.125 231.394 396.857 231.394C396.606 231.394 396.37 231.44 396.147 231.532C395.927 231.622 395.747 231.754 395.607 231.927C395.468 232.097 395.392 232.303 395.38 232.544H394.528C394.542 232.163 394.657 231.83 394.872 231.543C395.088 231.254 395.369 231.029 395.717 230.868C396.068 230.707 396.452 230.627 396.871 230.627C397.321 230.627 397.707 230.718 398.029 230.9C398.351 231.08 398.598 231.318 398.771 231.614C398.944 231.91 399.031 232.23 399.031 232.573C399.031 232.982 398.923 233.332 398.707 233.62C398.494 233.909 398.204 234.109 397.837 234.221V234.277C398.297 234.353 398.655 234.549 398.913 234.863C399.171 235.176 399.3 235.563 399.3 236.025C399.3 236.42 399.193 236.775 398.977 237.09C398.764 237.402 398.473 237.649 398.104 237.829C397.734 238.008 397.314 238.098 396.843 238.098Z" fill="#A3A3A3"/>
<rect x="125" y="256" width="285" height="80" rx="12" fill="#202020"/>
<path d="M165.172 297.134C165.07 297.119 164.939 297.119 164.823 297.134C162.263 297.046 160.227 294.952 160.227 292.377C160.227 289.745 162.35 287.606 164.997 287.606C167.63 287.606 169.768 289.745 169.768 292.377C169.754 294.952 167.732 297.046 165.172 297.134Z" fill="#A3A3A3"/>
<path d="M174.806 306.734C172.217 309.105 168.785 310.545 165.003 310.545C161.221 310.545 157.788 309.105 155.199 306.734C155.345 305.367 156.217 304.029 157.774 302.982C161.759 300.334 168.276 300.334 172.232 302.982C173.788 304.029 174.661 305.367 174.806 306.734Z" fill="#A3A3A3"/>
<path d="M164.999 310.545C173.032 310.545 179.544 304.033 179.544 296C179.544 287.966 173.032 281.454 164.999 281.454C156.965 281.454 150.453 287.966 150.453 296C150.453 304.033 156.965 310.545 164.999 310.545Z" stroke="#A3A3A3" stroke-width="2" stroke-linecap="round" stroke-linejoin="round"/>
<path d="M194.423 290.818H196.267V297.47C196.267 298.199 196.095 298.841 195.75 299.394C195.409 299.948 194.928 300.38 194.308 300.692C193.688 301 192.964 301.154 192.136 301.154C191.304 301.154 190.578 301 189.958 300.692C189.338 300.38 188.858 299.948 188.516 299.394C188.175 298.841 188.004 298.199 188.004 297.47V290.818H189.849V297.316C189.849 297.74 189.942 298.118 190.127 298.45C190.316 298.781 190.581 299.041 190.923 299.23C191.264 299.416 191.668 299.509 192.136 299.509C192.603 299.509 193.007 299.416 193.349 299.23C193.693 299.041 193.959 298.781 194.144 298.45C194.33 298.118 194.423 297.74 194.423 297.316V290.818ZM204.228 295.382L202.587 295.561C202.541 295.395 202.46 295.24 202.344 295.094C202.231 294.948 202.078 294.83 201.886 294.741C201.694 294.651 201.459 294.607 201.18 294.607C200.806 294.607 200.491 294.688 200.236 294.85C199.984 295.013 199.859 295.223 199.863 295.482C199.859 295.704 199.941 295.884 200.106 296.023C200.275 296.163 200.554 296.277 200.942 296.366L202.244 296.645C202.967 296.801 203.504 297.048 203.855 297.386C204.21 297.724 204.389 298.166 204.392 298.713C204.389 299.194 204.248 299.618 203.969 299.986C203.694 300.35 203.311 300.635 202.821 300.841C202.33 301.046 201.767 301.149 201.131 301.149C200.196 301.149 199.443 300.954 198.873 300.562C198.303 300.168 197.964 299.62 197.854 298.917L199.609 298.748C199.689 299.093 199.858 299.353 200.116 299.528C200.375 299.704 200.711 299.792 201.126 299.792C201.553 299.792 201.896 299.704 202.155 299.528C202.416 299.353 202.547 299.136 202.547 298.877C202.547 298.658 202.463 298.478 202.294 298.335C202.128 298.193 201.87 298.083 201.518 298.007L200.216 297.734C199.483 297.581 198.941 297.324 198.59 296.963C198.239 296.598 198.065 296.138 198.068 295.581C198.065 295.11 198.192 294.703 198.451 294.358C198.713 294.01 199.076 293.741 199.54 293.553C200.007 293.36 200.546 293.264 201.155 293.264C202.05 293.264 202.755 293.455 203.268 293.836C203.785 294.217 204.105 294.732 204.228 295.382ZM209.257 301.149C208.491 301.149 207.83 300.99 207.273 300.672C206.719 300.35 206.294 299.896 205.995 299.31C205.697 298.72 205.548 298.025 205.548 297.227C205.548 296.441 205.697 295.752 205.995 295.158C206.297 294.562 206.718 294.098 207.258 293.766C207.798 293.432 208.433 293.264 209.162 293.264C209.633 293.264 210.077 293.34 210.494 293.493C210.915 293.642 211.287 293.874 211.608 294.189C211.933 294.504 212.188 294.905 212.374 295.392C212.559 295.876 212.652 296.453 212.652 297.122V297.674H206.393V296.461H210.927C210.924 296.116 210.849 295.81 210.703 295.541C210.557 295.269 210.354 295.056 210.092 294.9C209.833 294.744 209.532 294.666 209.187 294.666C208.819 294.666 208.496 294.756 208.218 294.935C207.939 295.11 207.722 295.342 207.566 295.631C207.414 295.916 207.336 296.229 207.333 296.57V297.629C207.333 298.073 207.414 298.455 207.576 298.773C207.739 299.088 207.966 299.33 208.257 299.499C208.549 299.664 208.89 299.747 209.281 299.747C209.543 299.747 209.78 299.711 209.992 299.638C210.204 299.562 210.388 299.451 210.544 299.305C210.7 299.159 210.818 298.978 210.897 298.763L212.578 298.952C212.472 299.396 212.269 299.784 211.971 300.115C211.676 300.443 211.298 300.698 210.838 300.881C210.377 301.06 209.85 301.149 209.257 301.149ZM214.175 301V293.364H215.92V294.636H215.999C216.138 294.196 216.377 293.856 216.715 293.617C217.057 293.375 217.446 293.254 217.884 293.254C217.983 293.254 218.094 293.259 218.217 293.269C218.343 293.276 218.447 293.287 218.53 293.304V294.96C218.454 294.933 218.333 294.91 218.167 294.89C218.004 294.867 217.847 294.855 217.695 294.855C217.366 294.855 217.071 294.926 216.81 295.069C216.551 295.208 216.347 295.402 216.198 295.651C216.049 295.899 215.974 296.186 215.974 296.511V301H214.175ZM225.368 301V302.437H218.791V301H225.368ZM229.266 301.139C228.55 301.139 227.914 301.017 227.357 300.771C226.803 300.526 226.366 300.185 226.044 299.747C225.723 299.31 225.552 298.804 225.532 298.231H227.402C227.418 298.506 227.509 298.746 227.675 298.952C227.841 299.154 228.061 299.311 228.336 299.424C228.611 299.537 228.92 299.593 229.261 299.593C229.626 299.593 229.949 299.53 230.23 299.404C230.512 299.275 230.733 299.096 230.892 298.867C231.051 298.638 231.129 298.375 231.125 298.077C231.129 297.768 231.049 297.497 230.887 297.261C230.724 297.026 230.489 296.842 230.181 296.71C229.876 296.577 229.508 296.511 229.077 296.511H228.177V295.089H229.077C229.432 295.089 229.742 295.027 230.007 294.905C230.275 294.782 230.486 294.61 230.638 294.388C230.791 294.162 230.865 293.902 230.862 293.607C230.865 293.319 230.801 293.069 230.668 292.857C230.539 292.641 230.355 292.474 230.116 292.354C229.881 292.235 229.604 292.175 229.286 292.175C228.974 292.175 228.686 292.232 228.421 292.344C228.156 292.457 227.942 292.618 227.779 292.827C227.617 293.032 227.531 293.277 227.521 293.562H225.746C225.759 292.992 225.923 292.492 226.238 292.061C226.556 291.627 226.981 291.289 227.511 291.047C228.041 290.802 228.636 290.679 229.296 290.679C229.975 290.679 230.565 290.807 231.066 291.062C231.569 291.314 231.959 291.653 232.234 292.081C232.509 292.509 232.647 292.981 232.647 293.498C232.65 294.071 232.481 294.552 232.14 294.94C231.801 295.327 231.357 295.581 230.807 295.7V295.78C231.523 295.879 232.072 296.144 232.453 296.575C232.837 297.003 233.028 297.535 233.025 298.171C233.025 298.741 232.862 299.252 232.537 299.702C232.216 300.15 231.772 300.501 231.205 300.756C230.641 301.012 229.995 301.139 229.266 301.139ZM234.547 299.111V297.644L238.867 290.818H240.09V292.906H239.345L236.436 297.515V297.594H242.467V299.111H234.547ZM239.404 301V298.663L239.424 298.007V290.818H241.164V301H239.404ZM247.595 301.139C246.932 301.139 246.339 301.015 245.815 300.766C245.291 300.514 244.876 300.17 244.567 299.732C244.262 299.295 244.1 298.794 244.08 298.231H245.87C245.903 298.648 246.084 298.99 246.412 299.255C246.74 299.517 247.134 299.648 247.595 299.648C247.956 299.648 248.278 299.565 248.559 299.399C248.841 299.233 249.063 299.003 249.226 298.708C249.388 298.413 249.468 298.077 249.464 297.699C249.468 297.314 249.386 296.973 249.221 296.675C249.055 296.376 248.828 296.143 248.54 295.974C248.251 295.801 247.92 295.715 247.545 295.715C247.24 295.712 246.94 295.768 246.645 295.884C246.35 296 246.117 296.153 245.944 296.342L244.279 296.068L244.811 290.818H250.717V292.359H246.337L246.044 295.059H246.104C246.292 294.837 246.559 294.653 246.904 294.507C247.249 294.358 247.626 294.283 248.037 294.283C248.654 294.283 249.204 294.429 249.688 294.721C250.172 295.009 250.553 295.407 250.831 295.914C251.11 296.421 251.249 297.001 251.249 297.654C251.249 298.327 251.093 298.927 250.782 299.454C250.474 299.978 250.044 300.39 249.494 300.692C248.947 300.99 248.314 301.139 247.595 301.139ZM256.643 301.139C256.156 301.136 255.68 301.051 255.216 300.886C254.752 300.717 254.335 300.443 253.964 300.065C253.592 299.684 253.297 299.179 253.079 298.549C252.86 297.916 252.752 297.132 252.756 296.197C252.756 295.326 252.848 294.549 253.034 293.866C253.22 293.183 253.486 292.606 253.834 292.136C254.182 291.662 254.602 291.3 255.092 291.052C255.586 290.803 256.138 290.679 256.748 290.679C257.387 290.679 257.954 290.805 258.448 291.057C258.945 291.309 259.346 291.653 259.651 292.091C259.956 292.525 260.145 293.016 260.218 293.562H258.403C258.31 293.171 258.12 292.86 257.831 292.628C257.546 292.393 257.185 292.275 256.748 292.275C256.042 292.275 255.498 292.581 255.117 293.195C254.739 293.808 254.549 294.65 254.545 295.72H254.615C254.777 295.429 254.988 295.178 255.246 294.969C255.505 294.761 255.796 294.6 256.121 294.487C256.449 294.371 256.796 294.313 257.16 294.313C257.757 294.313 258.292 294.456 258.766 294.741C259.243 295.026 259.621 295.419 259.9 295.919C260.178 296.416 260.316 296.986 260.312 297.629C260.316 298.299 260.163 298.9 259.855 299.434C259.547 299.964 259.117 300.382 258.567 300.687C258.017 300.992 257.376 301.143 256.643 301.139ZM256.633 299.648C256.995 299.648 257.318 299.56 257.603 299.384C257.888 299.209 258.113 298.972 258.279 298.673C258.445 298.375 258.526 298.04 258.523 297.669C258.526 297.304 258.446 296.975 258.284 296.68C258.125 296.385 257.904 296.151 257.623 295.979C257.341 295.806 257.019 295.72 256.658 295.72C256.39 295.72 256.139 295.772 255.907 295.874C255.675 295.977 255.473 296.12 255.301 296.302C255.129 296.481 254.993 296.69 254.893 296.928C254.797 297.164 254.747 297.415 254.744 297.684C254.747 298.039 254.83 298.365 254.993 298.663C255.155 298.962 255.379 299.2 255.664 299.379C255.949 299.558 256.272 299.648 256.633 299.648Z" fill="#A3A3A3"/>
<path d="M272.882 284.172V283.227H278.51V284.172H276.241V290.5H275.147V284.172H272.882ZM279.102 290.5V285.045H280.129V285.912H280.186C280.285 285.618 280.46 285.388 280.711 285.219C280.964 285.049 281.251 284.964 281.57 284.964C281.637 284.964 281.715 284.966 281.805 284.971C281.897 284.976 281.969 284.982 282.021 284.989V286.004C281.979 285.992 281.903 285.979 281.794 285.965C281.685 285.949 281.576 285.94 281.468 285.94C281.217 285.94 280.993 285.994 280.796 286.1C280.602 286.204 280.448 286.35 280.335 286.537C280.221 286.722 280.164 286.932 280.164 287.169V290.5H279.102ZM284.479 290.621C284.133 290.621 283.821 290.557 283.541 290.429C283.262 290.299 283.041 290.111 282.877 289.864C282.716 289.618 282.636 289.316 282.636 288.959C282.636 288.651 282.695 288.398 282.813 288.199C282.932 288 283.092 287.843 283.293 287.727C283.494 287.611 283.719 287.523 283.968 287.464C284.216 287.405 284.469 287.36 284.727 287.329C285.054 287.291 285.319 287.26 285.523 287.237C285.727 287.21 285.874 287.169 285.967 287.112C286.059 287.055 286.105 286.963 286.105 286.835V286.81C286.105 286.5 286.018 286.26 285.843 286.089C285.67 285.919 285.412 285.834 285.068 285.834C284.711 285.834 284.429 285.913 284.223 286.072C284.02 286.228 283.879 286.402 283.801 286.594L282.803 286.366C282.921 286.035 283.094 285.768 283.321 285.564C283.551 285.358 283.815 285.209 284.113 285.116C284.411 285.022 284.725 284.974 285.054 284.974C285.272 284.974 285.503 285 285.747 285.053C285.993 285.102 286.222 285.195 286.436 285.33C286.651 285.464 286.827 285.657 286.965 285.908C287.102 286.157 287.171 286.48 287.171 286.878V290.5H286.134V289.754H286.091C286.022 289.892 285.919 290.027 285.782 290.159C285.645 290.292 285.468 290.402 285.253 290.489C285.038 290.577 284.78 290.621 284.479 290.621ZM284.71 289.768C285.003 289.768 285.254 289.71 285.463 289.594C285.673 289.478 285.833 289.327 285.942 289.14C286.053 288.951 286.109 288.748 286.109 288.533V287.83C286.071 287.867 285.998 287.903 285.889 287.936C285.782 287.967 285.66 287.994 285.523 288.018C285.386 288.039 285.252 288.059 285.122 288.078C284.991 288.095 284.883 288.109 284.795 288.121C284.589 288.147 284.401 288.191 284.23 288.252C284.062 288.314 283.927 288.402 283.825 288.518C283.726 288.632 283.676 288.784 283.676 288.973C283.676 289.236 283.773 289.435 283.968 289.57C284.162 289.702 284.409 289.768 284.71 289.768ZM290.627 290.607C290.186 290.607 289.793 290.494 289.448 290.269C289.105 290.042 288.835 289.719 288.638 289.3C288.444 288.878 288.347 288.373 288.347 287.783C288.347 287.194 288.445 286.69 288.642 286.271C288.841 285.852 289.113 285.531 289.458 285.308C289.804 285.086 290.196 284.974 290.634 284.974C290.972 284.974 291.245 285.031 291.451 285.145C291.659 285.256 291.82 285.386 291.934 285.536C292.05 285.685 292.14 285.816 292.203 285.93H292.267V283.227H293.329V290.5H292.292V289.651H292.203C292.14 289.767 292.047 289.9 291.926 290.049C291.808 290.198 291.645 290.328 291.436 290.44C291.228 290.551 290.958 290.607 290.627 290.607ZM290.861 289.701C291.167 289.701 291.425 289.621 291.635 289.46C291.848 289.296 292.009 289.07 292.118 288.781C292.23 288.492 292.285 288.156 292.285 287.773C292.285 287.394 292.231 287.062 292.122 286.778C292.013 286.494 291.853 286.273 291.642 286.114C291.432 285.956 291.171 285.876 290.861 285.876C290.542 285.876 290.275 285.959 290.062 286.125C289.849 286.291 289.688 286.517 289.579 286.803C289.473 287.09 289.419 287.413 289.419 287.773C289.419 288.137 289.474 288.465 289.583 288.756C289.692 289.048 289.853 289.278 290.066 289.449C290.281 289.617 290.546 289.701 290.861 289.701ZM297.195 290.61C296.658 290.61 296.195 290.495 295.807 290.266C295.421 290.034 295.123 289.708 294.912 289.289C294.704 288.868 294.6 288.374 294.6 287.808C294.6 287.25 294.704 286.757 294.912 286.331C295.123 285.905 295.416 285.572 295.793 285.333C296.172 285.094 296.614 284.974 297.121 284.974C297.429 284.974 297.727 285.025 298.016 285.127C298.305 285.229 298.564 285.389 298.793 285.607C299.023 285.824 299.204 286.107 299.337 286.455C299.469 286.801 299.536 287.221 299.536 287.716V288.092H295.2V287.297H298.495C298.495 287.018 298.438 286.77 298.325 286.555C298.211 286.337 298.051 286.165 297.845 286.04C297.642 285.914 297.403 285.852 297.128 285.852C296.83 285.852 296.569 285.925 296.347 286.072C296.127 286.216 295.956 286.406 295.835 286.64C295.717 286.872 295.658 287.124 295.658 287.396V288.018C295.658 288.382 295.722 288.692 295.85 288.948C295.98 289.204 296.161 289.399 296.393 289.534C296.625 289.667 296.896 289.733 297.206 289.733C297.407 289.733 297.591 289.705 297.757 289.648C297.922 289.589 298.066 289.501 298.186 289.385C298.307 289.269 298.399 289.126 298.463 288.955L299.468 289.136C299.388 289.432 299.243 289.692 299.035 289.914C298.829 290.134 298.57 290.306 298.257 290.429C297.947 290.55 297.593 290.61 297.195 290.61Z" fill="white"/>
<path d="M289.945 296.768L294.945 301.768L289.945 306.768" stroke="white" stroke-width="1.5" stroke-miterlimit="10" stroke-linecap="round" stroke-linejoin="round"/>
<path d="M277.945 301.768L294.775 301.768" stroke="white" stroke-width="1.5" stroke-miterlimit="10" stroke-linecap="round" stroke-linejoin="round"/>
<path d="M314.496 301.312V293.449H316.281V301.312H314.496ZM311.457 298.273V296.489H319.32V298.273H311.457ZM326.109 302.222C325.173 302.222 324.37 301.985 323.7 301.511C323.033 301.034 322.52 300.347 322.16 299.449C321.804 298.547 321.626 297.462 321.626 296.193C321.629 294.924 321.809 293.845 322.165 292.955C322.525 292.061 323.039 291.379 323.705 290.909C324.376 290.439 325.177 290.205 326.109 290.205C327.04 290.205 327.842 290.439 328.512 290.909C329.183 291.379 329.696 292.061 330.052 292.955C330.412 293.848 330.592 294.928 330.592 296.193C330.592 297.466 330.412 298.553 330.052 299.455C329.696 300.352 329.183 301.038 328.512 301.511C327.845 301.985 327.044 302.222 326.109 302.222ZM326.109 300.443C326.836 300.443 327.41 300.085 327.83 299.369C328.254 298.65 328.467 297.591 328.467 296.193C328.467 295.269 328.37 294.492 328.177 293.864C327.984 293.235 327.711 292.761 327.359 292.443C327.006 292.121 326.59 291.96 326.109 291.96C325.385 291.96 324.813 292.32 324.393 293.04C323.972 293.756 323.76 294.807 323.756 296.193C323.753 297.121 323.845 297.902 324.035 298.534C324.228 299.167 324.501 299.644 324.853 299.966C325.205 300.284 325.624 300.443 326.109 300.443ZM333.316 302.125C332.971 302.125 332.676 302.004 332.43 301.761C332.183 301.519 332.062 301.223 332.066 300.875C332.062 300.534 332.183 300.242 332.43 300C332.676 299.758 332.971 299.636 333.316 299.636C333.649 299.636 333.939 299.758 334.185 300C334.435 300.242 334.562 300.534 334.566 300.875C334.562 301.106 334.502 301.316 334.384 301.506C334.271 301.695 334.119 301.847 333.93 301.96C333.744 302.07 333.54 302.125 333.316 302.125ZM340.515 302.222C339.579 302.222 338.776 301.985 338.106 301.511C337.439 301.034 336.926 300.347 336.566 299.449C336.21 298.547 336.032 297.462 336.032 296.193C336.036 294.924 336.216 293.845 336.572 292.955C336.932 292.061 337.445 291.379 338.112 290.909C338.782 290.439 339.583 290.205 340.515 290.205C341.447 290.205 342.248 290.439 342.918 290.909C343.589 291.379 344.102 292.061 344.458 292.955C344.818 293.848 344.998 294.928 344.998 296.193C344.998 297.466 344.818 298.553 344.458 299.455C344.102 300.352 343.589 301.038 342.918 301.511C342.252 301.985 341.451 302.222 340.515 302.222ZM340.515 300.443C341.242 300.443 341.816 300.085 342.237 299.369C342.661 298.65 342.873 297.591 342.873 296.193C342.873 295.269 342.776 294.492 342.583 293.864C342.39 293.235 342.117 292.761 341.765 292.443C341.413 292.121 340.996 291.96 340.515 291.96C339.791 291.96 339.219 292.32 338.799 293.04C338.379 293.756 338.166 294.807 338.163 296.193C338.159 297.121 338.252 297.902 338.441 298.534C338.634 299.167 338.907 299.644 339.259 299.966C339.612 300.284 340.03 300.443 340.515 300.443ZM351.187 302.222C350.251 302.222 349.448 301.985 348.778 301.511C348.111 301.034 347.598 300.347 347.238 299.449C346.882 298.547 346.704 297.462 346.704 296.193C346.708 294.924 346.888 293.845 347.244 292.955C347.603 292.061 348.117 291.379 348.783 290.909C349.454 290.439 350.255 290.205 351.187 290.205C352.119 290.205 352.92 290.439 353.59 290.909C354.261 291.379 354.774 292.061 355.13 292.955C355.49 293.848 355.67 294.928 355.67 296.193C355.67 297.466 355.49 298.553 355.13 299.455C354.774 300.352 354.261 301.038 353.59 301.511C352.924 301.985 352.122 302.222 351.187 302.222ZM351.187 300.443C351.914 300.443 352.488 300.085 352.908 299.369C353.333 298.65 353.545 297.591 353.545 296.193C353.545 295.269 353.448 294.492 353.255 293.864C353.062 293.235 352.789 292.761 352.437 292.443C352.085 292.121 351.668 291.96 351.187 291.96C350.463 291.96 349.891 292.32 349.471 293.04C349.05 293.756 348.838 294.807 348.835 296.193C348.831 297.121 348.924 297.902 349.113 298.534C349.306 299.167 349.579 299.644 349.931 299.966C350.283 300.284 350.702 300.443 351.187 300.443ZM357.671 302L362.62 292.205V292.125H356.876V290.364H364.802V292.165L359.859 302H357.671ZM370.386 303.455V288.909H371.317V303.455H370.386ZM373.073 293.562C373.02 293.066 372.797 292.68 372.403 292.403C372.013 292.127 371.505 291.989 370.88 291.989C370.441 291.989 370.064 292.055 369.749 292.187C369.435 292.32 369.194 292.5 369.028 292.727C368.861 292.955 368.776 293.214 368.772 293.506C368.772 293.748 368.827 293.958 368.937 294.136C369.05 294.314 369.204 294.466 369.397 294.591C369.59 294.712 369.804 294.814 370.039 294.898C370.274 294.981 370.511 295.051 370.749 295.108L371.84 295.381C372.28 295.483 372.702 295.621 373.107 295.795C373.516 295.97 373.882 296.189 374.204 296.455C374.53 296.72 374.787 297.04 374.977 297.415C375.166 297.79 375.261 298.229 375.261 298.733C375.261 299.415 375.086 300.015 374.738 300.534C374.389 301.049 373.886 301.453 373.227 301.744C372.571 302.032 371.778 302.176 370.846 302.176C369.941 302.176 369.155 302.036 368.488 301.756C367.825 301.475 367.306 301.066 366.931 300.528C366.56 299.991 366.359 299.335 366.329 298.562H368.403C368.433 298.968 368.558 299.305 368.778 299.574C368.997 299.843 369.283 300.044 369.636 300.176C369.992 300.309 370.389 300.375 370.829 300.375C371.287 300.375 371.689 300.307 372.033 300.17C372.382 300.03 372.655 299.837 372.852 299.591C373.049 299.341 373.149 299.049 373.153 298.716C373.149 298.413 373.06 298.163 372.886 297.966C372.711 297.765 372.467 297.598 372.153 297.466C371.842 297.33 371.478 297.208 371.062 297.102L369.738 296.761C368.78 296.515 368.022 296.142 367.465 295.642C366.912 295.138 366.636 294.47 366.636 293.636C366.636 292.951 366.821 292.35 367.192 291.835C367.567 291.32 368.077 290.92 368.721 290.636C369.365 290.348 370.094 290.205 370.908 290.205C371.734 290.205 372.458 290.348 373.079 290.636C373.704 290.92 374.194 291.316 374.55 291.824C374.906 292.328 375.09 292.907 375.102 293.562H373.073Z" fill="#5FA6FF"/>
<path d="M350.419 318.726V325.999H349.538V319.65H349.496L347.72 320.829V319.934L349.538 318.726H350.419ZM352.34 324.508V323.783L355.536 318.726H356.062V319.848H355.707L353.292 323.669V323.726H357.596V324.508H352.34ZM355.763 325.999V324.287V323.95V318.726H356.602V325.999H355.763ZM359.21 326.056C359.035 326.056 358.884 325.993 358.759 325.868C358.633 325.742 358.571 325.592 358.571 325.417C358.571 325.241 358.633 325.091 358.759 324.966C358.884 324.84 359.035 324.777 359.21 324.777C359.385 324.777 359.535 324.84 359.661 324.966C359.786 325.091 359.849 325.241 359.849 325.417C359.849 325.533 359.819 325.639 359.76 325.736C359.703 325.833 359.627 325.911 359.529 325.971C359.435 326.027 359.328 326.056 359.21 326.056ZM363.457 326.098C362.922 326.098 362.466 325.953 362.09 325.662C361.713 325.368 361.426 324.943 361.227 324.387C361.028 323.828 360.929 323.153 360.929 322.363C360.929 321.577 361.028 320.906 361.227 320.349C361.428 319.79 361.717 319.364 362.093 319.071C362.472 318.775 362.927 318.627 363.457 318.627C363.987 318.627 364.441 318.775 364.817 319.071C365.196 319.364 365.485 319.79 365.684 320.349C365.885 320.906 365.985 321.577 365.985 322.363C365.985 323.153 365.886 323.828 365.687 324.387C365.488 324.943 365.201 325.368 364.824 325.662C364.448 325.953 363.992 326.098 363.457 326.098ZM363.457 325.317C363.987 325.317 364.399 325.062 364.693 324.55C364.986 324.039 365.133 323.31 365.133 322.363C365.133 321.733 365.066 321.197 364.931 320.754C364.798 320.311 364.606 319.974 364.355 319.742C364.107 319.51 363.807 319.394 363.457 319.394C362.931 319.394 362.521 319.653 362.225 320.172C361.929 320.688 361.781 321.418 361.781 322.363C361.781 322.992 361.847 323.527 361.98 323.968C362.112 324.408 362.303 324.743 362.551 324.973C362.802 325.202 363.104 325.317 363.457 325.317ZM369.664 326.098C369.177 326.098 368.746 326.012 368.372 325.839C368 325.664 367.71 325.424 367.502 325.118C367.293 324.811 367.19 324.46 367.193 324.067C367.19 323.759 367.251 323.475 367.374 323.215C367.497 322.952 367.665 322.733 367.878 322.558C368.094 322.38 368.334 322.268 368.599 322.221V322.178C368.251 322.088 367.974 321.893 367.768 321.592C367.562 321.289 367.46 320.945 367.463 320.559C367.46 320.189 367.554 319.859 367.743 319.568C367.933 319.277 368.193 319.047 368.525 318.879C368.858 318.711 369.238 318.627 369.664 318.627C370.086 318.627 370.462 318.711 370.794 318.879C371.125 319.047 371.386 319.277 371.575 319.568C371.767 319.859 371.864 320.189 371.866 320.559C371.864 320.945 371.758 321.289 371.55 321.592C371.344 321.893 371.071 322.088 370.73 322.178V322.221C370.993 322.268 371.229 322.38 371.44 322.558C371.651 322.733 371.819 322.952 371.944 323.215C372.07 323.475 372.134 323.759 372.136 324.067C372.134 324.46 372.027 324.811 371.816 325.118C371.608 325.424 371.318 325.664 370.946 325.839C370.577 326.012 370.15 326.098 369.664 326.098ZM369.664 325.317C369.993 325.317 370.278 325.264 370.517 325.157C370.756 325.051 370.94 324.901 371.071 324.706C371.201 324.512 371.267 324.285 371.27 324.025C371.267 323.75 371.196 323.507 371.056 323.297C370.917 323.086 370.726 322.92 370.485 322.799C370.246 322.679 369.972 322.618 369.664 322.618C369.354 322.618 369.077 322.679 368.833 322.799C368.592 322.92 368.401 323.086 368.262 323.297C368.124 323.507 368.057 323.75 368.059 324.025C368.057 324.285 368.12 324.512 368.248 324.706C368.378 324.901 368.564 325.051 368.805 325.157C369.047 325.264 369.333 325.317 369.664 325.317ZM369.664 321.866C369.925 321.866 370.156 321.813 370.357 321.709C370.56 321.605 370.72 321.459 370.836 321.272C370.952 321.085 371.011 320.866 371.014 320.616C371.011 320.369 370.953 320.155 370.84 319.973C370.726 319.788 370.569 319.646 370.368 319.547C370.166 319.445 369.932 319.394 369.664 319.394C369.392 319.394 369.154 319.445 368.951 319.547C368.747 319.646 368.59 319.788 368.478 319.973C368.367 320.155 368.313 320.369 368.315 320.616C368.313 320.866 368.368 321.085 368.482 321.272C368.598 321.459 368.758 321.605 368.961 321.709C369.165 321.813 369.399 321.866 369.664 321.866ZM373.897 326.056C373.722 326.056 373.572 325.993 373.446 325.868C373.321 325.742 373.258 325.592 373.258 325.417C373.258 325.241 373.321 325.091 373.446 324.966C373.572 324.84 373.722 324.777 373.897 324.777C374.073 324.777 374.223 324.84 374.348 324.966C374.474 325.091 374.537 325.241 374.537 325.417C374.537 325.533 374.507 325.639 374.448 325.736C374.391 325.833 374.314 325.911 374.217 325.971C374.122 326.027 374.016 326.056 373.897 326.056ZM376.026 325.999V325.36L378.427 322.732C378.709 322.424 378.941 322.157 379.123 321.929C379.305 321.7 379.44 321.484 379.528 321.283C379.618 321.08 379.663 320.866 379.663 320.644C379.663 320.388 379.601 320.167 379.478 319.98C379.357 319.793 379.192 319.648 378.981 319.547C378.77 319.445 378.533 319.394 378.271 319.394C377.991 319.394 377.747 319.452 377.539 319.568C377.333 319.682 377.173 319.841 377.06 320.047C376.948 320.253 376.893 320.495 376.893 320.772H376.055C376.055 320.346 376.153 319.972 376.349 319.65C376.546 319.328 376.813 319.077 377.152 318.897C377.493 318.717 377.875 318.627 378.299 318.627C378.725 318.627 379.103 318.717 379.432 318.897C379.761 319.077 380.019 319.319 380.206 319.625C380.393 319.93 380.487 320.27 380.487 320.644C380.487 320.911 380.438 321.173 380.341 321.429C380.246 321.682 380.08 321.965 379.844 322.277C379.609 322.588 379.284 322.966 378.867 323.414L377.234 325.161V325.218H380.614V325.999H376.026ZM384.453 326.098C383.918 326.098 383.462 325.953 383.086 325.662C382.71 325.368 382.422 324.943 382.223 324.387C382.024 323.828 381.925 323.153 381.925 322.363C381.925 321.577 382.024 320.906 382.223 320.349C382.424 319.79 382.713 319.364 383.089 319.071C383.468 318.775 383.923 318.627 384.453 318.627C384.983 318.627 385.437 318.775 385.813 319.071C386.192 319.364 386.481 319.79 386.68 320.349C386.881 320.906 386.982 321.577 386.982 322.363C386.982 323.153 386.882 323.828 386.683 324.387C386.484 324.943 386.197 325.368 385.82 325.662C385.444 325.953 384.988 326.098 384.453 326.098ZM384.453 325.317C384.983 325.317 385.395 325.062 385.689 324.55C385.982 324.039 386.129 323.31 386.129 322.363C386.129 321.733 386.062 321.197 385.927 320.754C385.794 320.311 385.603 319.974 385.352 319.742C385.103 319.51 384.804 319.394 384.453 319.394C383.928 319.394 383.517 319.653 383.221 320.172C382.925 320.688 382.777 321.418 382.777 322.363C382.777 322.992 382.843 323.527 382.976 323.968C383.108 324.408 383.299 324.743 383.548 324.973C383.799 325.202 384.1 325.317 384.453 325.317ZM388.331 325.999V325.36L390.732 322.732C391.013 322.424 391.245 322.157 391.428 321.929C391.61 321.7 391.745 321.484 391.832 321.283C391.922 321.08 391.967 320.866 391.967 320.644C391.967 320.388 391.906 320.167 391.783 319.98C391.662 319.793 391.496 319.648 391.286 319.547C391.075 319.445 390.838 319.394 390.575 319.394C390.296 319.394 390.052 319.452 389.844 319.568C389.638 319.682 389.478 319.841 389.364 320.047C389.253 320.253 389.197 320.495 389.197 320.772H388.359C388.359 320.346 388.458 319.972 388.654 319.65C388.851 319.328 389.118 319.077 389.457 318.897C389.798 318.717 390.18 318.627 390.604 318.627C391.03 318.627 391.407 318.717 391.737 318.897C392.066 319.077 392.324 319.319 392.511 319.625C392.698 319.93 392.791 320.27 392.791 320.644C392.791 320.911 392.743 321.173 392.646 321.429C392.551 321.682 392.385 321.965 392.148 322.277C391.914 322.588 391.589 322.966 391.172 323.414L389.538 325.161V325.218H392.919V325.999H388.331ZM396.843 326.098C396.374 326.098 395.956 326.018 395.589 325.857C395.225 325.696 394.935 325.472 394.719 325.186C394.506 324.897 394.39 324.562 394.371 324.181H395.266C395.285 324.415 395.366 324.618 395.508 324.788C395.65 324.956 395.836 325.086 396.065 325.179C396.295 325.271 396.549 325.317 396.829 325.317C397.141 325.317 397.418 325.263 397.66 325.154C397.901 325.045 398.091 324.893 398.228 324.699C398.365 324.505 398.434 324.28 398.434 324.025C398.434 323.757 398.368 323.522 398.235 323.318C398.103 323.112 397.908 322.951 397.653 322.835C397.397 322.719 397.085 322.661 396.715 322.661H396.133V321.88H396.715C397.004 321.88 397.257 321.828 397.475 321.723C397.695 321.619 397.867 321.473 397.99 321.283C398.116 321.094 398.178 320.871 398.178 320.616C398.178 320.369 398.124 320.155 398.015 319.973C397.906 319.79 397.752 319.648 397.553 319.547C397.357 319.445 397.125 319.394 396.857 319.394C396.606 319.394 396.37 319.44 396.147 319.532C395.927 319.622 395.747 319.754 395.607 319.927C395.468 320.097 395.392 320.303 395.38 320.544H394.528C394.542 320.163 394.657 319.83 394.872 319.543C395.088 319.254 395.369 319.029 395.717 318.868C396.068 318.707 396.452 318.627 396.871 318.627C397.321 318.627 397.707 318.718 398.029 318.9C398.351 319.08 398.598 319.318 398.771 319.614C398.944 319.91 399.031 320.23 399.031 320.573C399.031 320.982 398.923 321.332 398.707 321.62C398.494 321.909 398.204 322.109 397.837 322.221V322.277C398.297 322.353 398.655 322.549 398.913 322.863C399.171 323.176 399.3 323.563 399.3 324.025C399.3 324.42 399.193 324.775 398.977 325.09C398.764 325.402 398.473 325.649 398.104 325.829C397.734 326.008 397.314 326.098 396.843 326.098Z" fill="#A3A3A3"/>
<g filter="url(#filter1_d_645_61061)">
<rect x="125" y="344" width="285" height="80" rx="12" fill="#202020"/>
</g>
</g>
<rect x="77.5" y="0.5" width="759" height="509" rx="13.5" stroke="#41434D" stroke-opacity="0.5"/>
<g filter="url(#filter2_d_645_61061)">
<rect x="22" y="79.8398" width="285" height="80" rx="12" transform="rotate(-5 22 79.8398)" fill="#202020"/>
<path d="M65.6046 117.317C65.5019 117.311 65.3715 117.323 65.2569 117.347C62.699 117.483 60.4879 115.574 60.2635 113.01C60.034 110.387 61.9632 108.072 64.6004 107.841C67.2231 107.612 69.5395 109.555 69.769 112.178C69.9789 114.744 68.1473 117.007 65.6046 117.317Z" fill="#A3A3A3"/>
<path d="M76.0367 126.041C73.6641 128.628 70.3699 130.362 66.6025 130.692C62.8351 131.021 59.2899 129.886 56.504 127.75C56.5298 126.375 57.2825 124.966 58.7417 123.787C62.4813 120.802 68.9728 120.234 73.1449 122.527C74.7866 123.434 75.7726 124.691 76.0367 126.041Z" fill="#A3A3A3"/>
<path d="M66.5998 130.692C74.6024 129.992 80.5223 122.937 79.8221 114.934C79.122 106.931 72.067 101.012 64.0643 101.712C56.0617 102.412 50.1418 109.467 50.8419 117.47C51.5421 125.472 58.5971 131.392 66.5998 130.692Z" stroke="#A3A3A3" stroke-width="2" stroke-linecap="round" stroke-linejoin="round"/>
<path d="M94.191 108.476L96.0284 108.315L96.6082 114.942C96.6717 115.668 96.5559 116.322 96.2608 116.903C95.969 117.484 95.5279 117.957 94.9376 118.322C94.3471 118.683 93.639 118.899 92.8136 118.972C91.9849 119.044 91.2483 118.954 90.604 118.701C89.9594 118.444 89.443 118.055 89.0547 117.534C88.6663 117.012 88.4404 116.388 88.3769 115.662L87.7971 109.035L89.6345 108.874L90.2009 115.347C90.2378 115.77 90.3632 116.138 90.577 116.452C90.7941 116.766 91.0809 117.002 91.4375 117.161C91.7937 117.316 92.2046 117.373 92.6702 117.332C93.1357 117.292 93.5305 117.164 93.8544 116.949C94.1813 116.731 94.4228 116.449 94.5788 116.102C94.7348 115.756 94.7943 115.371 94.7573 114.949L94.191 108.476ZM104.357 112.168L102.738 112.489C102.677 112.328 102.583 112.18 102.454 112.045C102.33 111.909 102.167 111.805 101.968 111.733C101.769 111.66 101.53 111.636 101.253 111.661C100.88 111.693 100.573 111.802 100.333 111.986C100.097 112.169 99.9911 112.39 100.017 112.647C100.033 112.869 100.13 113.042 100.307 113.166C100.487 113.29 100.775 113.379 101.169 113.435L102.491 113.599C103.224 113.691 103.78 113.89 104.16 114.196C104.543 114.502 104.759 114.927 104.81 115.472C104.849 115.951 104.746 116.386 104.5 116.776C104.258 117.164 103.902 117.481 103.431 117.728C102.96 117.976 102.408 118.127 101.774 118.183C100.843 118.264 100.076 118.135 99.4741 117.795C98.8719 117.452 98.4856 116.935 98.3154 116.244L100.049 115.923C100.158 116.26 100.349 116.504 100.622 116.657C100.895 116.809 101.238 116.867 101.651 116.831C102.076 116.794 102.411 116.676 102.653 116.479C102.898 116.281 103.01 116.053 102.987 115.796C102.968 115.578 102.868 115.405 102.687 115.278C102.51 115.151 102.243 115.064 101.886 115.019L100.565 114.86C99.8218 114.772 99.2596 114.563 98.8781 114.234C98.4964 113.901 98.2829 113.458 98.2376 112.903C98.1933 112.434 98.2849 112.017 98.5124 111.651C98.7429 111.281 99.0811 110.982 99.5268 110.754C99.9756 110.521 100.504 110.379 101.111 110.326C102.003 110.248 102.721 110.376 103.266 110.711C103.814 111.046 104.178 111.531 104.357 112.168ZM109.869 117.474C109.106 117.541 108.434 117.44 107.851 117.172C107.272 116.9 106.808 116.485 106.46 115.926C106.111 115.364 105.902 114.686 105.832 113.89C105.764 113.108 105.852 112.408 106.098 111.791C106.346 111.17 106.725 110.671 107.235 110.294C107.744 109.913 108.361 109.691 109.088 109.628C109.556 109.587 110.006 109.624 110.435 109.739C110.867 109.851 111.257 110.05 111.605 110.336C111.956 110.621 112.245 110.998 112.472 111.468C112.7 111.933 112.842 112.5 112.901 113.167L112.949 113.717L106.713 114.262L106.608 113.054L111.124 112.658C111.091 112.315 110.99 112.016 110.821 111.762C110.652 111.504 110.431 111.309 110.156 111.176C109.885 111.043 109.578 110.992 109.235 111.022C108.868 111.054 108.554 111.172 108.292 111.374C108.03 111.573 107.834 111.823 107.704 112.124C107.577 112.422 107.527 112.74 107.553 113.081L107.645 114.136C107.684 114.578 107.798 114.951 107.988 115.254C108.177 115.553 108.424 115.774 108.73 115.917C109.035 116.057 109.382 116.11 109.772 116.076C110.032 116.053 110.265 115.996 110.47 115.905C110.675 115.81 110.848 115.684 110.991 115.525C111.133 115.366 111.235 115.176 111.295 114.954L112.986 114.996C112.919 115.448 112.751 115.852 112.483 116.208C112.218 116.56 111.864 116.847 111.42 117.069C110.977 117.288 110.46 117.423 109.869 117.474ZM114.755 116.897L114.09 109.29L115.828 109.138L115.939 110.406L116.018 110.399C116.119 109.948 116.327 109.588 116.643 109.321C116.962 109.05 117.339 108.896 117.775 108.858C117.874 108.849 117.985 108.844 118.108 108.844C118.234 108.839 118.339 108.842 118.423 108.851L118.567 110.5C118.489 110.48 118.367 110.468 118.2 110.462C118.036 110.453 117.878 110.456 117.726 110.469C117.399 110.498 117.112 110.594 116.863 110.759C116.618 110.92 116.432 111.131 116.305 111.392C116.178 111.652 116.129 111.945 116.157 112.268L116.548 116.74L114.755 116.897ZM125.906 115.922L126.032 117.353L119.479 117.926L119.354 116.495L125.906 115.922ZM129.801 115.721C129.088 115.783 128.444 115.716 127.867 115.521C127.295 115.324 126.829 115.022 126.471 114.615C126.112 114.207 125.898 113.718 125.828 113.149L127.691 112.986C127.731 113.258 127.843 113.49 128.026 113.68C128.209 113.867 128.442 114.005 128.726 114.093C129.01 114.181 129.322 114.211 129.662 114.181C130.025 114.149 130.341 114.058 130.611 113.908C130.88 113.755 131.084 113.557 131.223 113.316C131.361 113.074 131.416 112.805 131.387 112.508C131.363 112.2 131.26 111.937 131.078 111.716C130.896 111.496 130.645 111.333 130.327 111.228C130.011 111.123 129.639 111.089 129.21 111.126L128.313 111.205L128.189 109.788L129.086 109.71C129.439 109.679 129.742 109.591 129.996 109.445C130.253 109.3 130.447 109.11 130.58 108.875C130.712 108.637 130.764 108.372 130.735 108.078C130.713 107.791 130.627 107.547 130.476 107.347C130.329 107.144 130.131 106.993 129.883 106.895C129.638 106.797 129.357 106.761 129.04 106.789C128.73 106.816 128.447 106.898 128.193 107.033C127.939 107.168 127.74 107.347 127.596 107.569C127.452 107.788 127.388 108.04 127.403 108.325L125.634 108.48C125.598 107.91 125.718 107.398 125.994 106.941C126.273 106.481 126.666 106.107 127.173 105.82C127.68 105.529 128.262 105.355 128.919 105.298C129.596 105.238 130.195 105.314 130.716 105.525C131.24 105.732 131.657 106.036 131.969 106.438C132.28 106.84 132.458 107.299 132.503 107.814C132.556 108.385 132.43 108.878 132.124 109.294C131.821 109.71 131.4 110.001 130.863 110.168L130.87 110.247C131.591 110.284 132.161 110.5 132.578 110.896C132.998 111.289 133.235 111.802 133.287 112.436C133.337 113.004 133.219 113.527 132.935 114.004C132.654 114.478 132.242 114.867 131.7 115.17C131.16 115.474 130.528 115.657 129.801 115.721ZM134.886 113.24L134.758 111.779L138.467 104.602L139.685 104.495L139.867 106.576L139.124 106.641L136.628 111.485L136.635 111.564L142.643 111.039L142.775 112.549L134.886 113.24ZM139.889 114.698L139.685 112.371L139.648 111.715L139.021 104.554L140.755 104.402L141.642 114.545L139.889 114.698ZM148.061 114.123C147.4 114.181 146.798 114.109 146.255 113.907C145.711 113.702 145.267 113.394 144.922 112.985C144.58 112.576 144.374 112.092 144.306 111.532L146.089 111.376C146.158 111.789 146.368 112.114 146.718 112.349C147.067 112.581 147.472 112.677 147.931 112.637C148.291 112.606 148.604 112.495 148.87 112.306C149.136 112.116 149.337 111.867 149.473 111.559C149.609 111.251 149.659 110.909 149.623 110.533C149.593 110.15 149.482 109.817 149.291 109.534C149.1 109.251 148.853 109.038 148.551 108.895C148.249 108.748 147.911 108.691 147.538 108.724C147.234 108.747 146.94 108.83 146.657 108.971C146.373 109.112 146.153 109.284 145.998 109.488L144.315 109.36L144.388 104.084L150.271 103.569L150.406 105.105L146.042 105.486L145.985 108.201L146.045 108.196C146.214 107.958 146.463 107.752 146.794 107.576C147.125 107.398 147.494 107.291 147.904 107.255C148.518 107.201 149.079 107.298 149.586 107.547C150.093 107.792 150.508 108.155 150.829 108.636C151.151 109.117 151.34 109.682 151.397 110.333C151.456 111.003 151.353 111.614 151.088 112.166C150.827 112.715 150.435 113.163 149.914 113.512C149.395 113.857 148.777 114.06 148.061 114.123ZM157.074 113.335C156.589 113.374 156.108 113.331 155.631 113.206C155.154 113.078 154.714 112.842 154.311 112.498C153.908 112.151 153.57 111.673 153.298 111.065C153.025 110.453 152.849 109.682 152.771 108.75C152.695 107.882 152.72 107.1 152.845 106.403C152.97 105.707 153.186 105.109 153.491 104.61C153.797 104.108 154.183 103.711 154.65 103.421C155.12 103.13 155.659 102.958 156.267 102.905C156.904 102.849 157.48 102.925 157.994 103.133C158.511 103.341 158.94 103.649 159.282 104.059C159.624 104.464 159.855 104.937 159.975 105.475L158.167 105.633C158.041 105.252 157.824 104.958 157.516 104.752C157.212 104.542 156.842 104.457 156.406 104.495C155.703 104.556 155.188 104.909 154.862 105.553C154.539 106.197 154.422 107.052 154.512 108.119L154.581 108.113C154.718 107.808 154.906 107.541 155.145 107.31C155.384 107.079 155.661 106.894 155.975 106.753C156.291 106.609 156.631 106.521 156.995 106.489C157.589 106.437 158.135 106.533 158.632 106.775C159.132 107.018 159.543 107.376 159.863 107.85C160.184 108.321 160.371 108.877 160.424 109.518C160.485 110.185 160.386 110.797 160.125 111.356C159.864 111.911 159.473 112.364 158.952 112.716C158.43 113.068 157.804 113.274 157.074 113.335ZM156.935 111.85C157.294 111.818 157.609 111.702 157.877 111.503C158.146 111.303 158.35 111.047 158.489 110.735C158.628 110.424 158.68 110.083 158.644 109.714C158.616 109.35 158.508 109.029 158.32 108.749C158.136 108.469 157.896 108.255 157.6 108.108C157.305 107.961 156.977 107.903 156.617 107.935C156.35 107.958 156.105 108.031 155.883 108.154C155.66 108.276 155.471 108.436 155.316 108.633C155.16 108.826 155.042 109.046 154.964 109.292C154.889 109.535 154.861 109.79 154.881 110.058C154.916 110.411 155.027 110.729 155.214 111.012C155.402 111.295 155.646 111.513 155.945 111.667C156.245 111.82 156.575 111.881 156.935 111.85Z" fill="#A3A3A3"/>
<path d="M171.773 95.0163L171.691 94.0753L177.298 93.5847L177.38 94.5257L175.119 94.7235L175.671 101.028L174.581 101.123L174.03 94.8188L171.773 95.0163ZM178.521 100.778L178.046 95.3444L179.068 95.2549L179.144 96.1181L179.201 96.1132C179.274 95.8121 179.428 95.5668 179.664 95.3775C179.901 95.1856 180.179 95.0758 180.498 95.0479C180.564 95.0421 180.642 95.0377 180.732 95.0346C180.824 95.0312 180.897 95.0308 180.949 95.0334L181.038 96.0451C180.994 96.0371 180.917 96.0307 180.808 96.026C180.698 96.019 180.589 96.0202 180.48 96.0297C180.23 96.0516 180.012 96.1242 179.825 96.2474C179.641 96.3681 179.501 96.5266 179.404 96.7228C179.306 96.9166 179.268 97.1315 179.289 97.3673L179.579 100.686L178.521 100.778ZM183.888 100.43C183.544 100.46 183.227 100.424 182.937 100.321C182.648 100.215 182.411 100.047 182.227 99.8159C182.045 99.5847 181.938 99.291 181.907 98.9349C181.88 98.6283 181.917 98.3708 182.018 98.1624C182.118 97.9539 182.264 97.7832 182.454 97.6501C182.644 97.517 182.861 97.4101 183.103 97.3295C183.346 97.2489 183.594 97.182 183.849 97.1288C184.171 97.0626 184.432 97.0088 184.633 96.9675C184.834 96.9238 184.977 96.8697 185.064 96.805C185.151 96.7404 185.189 96.6444 185.178 96.517L185.176 96.4922C185.149 96.1833 185.041 95.9515 184.851 95.797C184.664 95.6423 184.4 95.5799 184.058 95.6098C183.702 95.6409 183.428 95.7445 183.237 95.9205C183.048 96.0939 182.922 96.2795 182.861 96.4773L181.847 96.3379C181.936 95.9974 182.085 95.7158 182.294 95.4932C182.505 95.268 182.755 95.0964 183.044 94.9784C183.333 94.8581 183.641 94.7836 183.969 94.7549C184.186 94.7359 184.418 94.7417 184.666 94.7724C184.915 94.8004 185.152 94.8724 185.376 94.9883C185.602 95.1039 185.795 95.2808 185.954 95.5188C186.112 95.7545 186.209 96.0704 186.243 96.4666L186.559 100.075L185.526 100.165L185.461 99.4225L185.418 99.4262C185.362 99.5689 185.271 99.7123 185.146 99.8564C185.021 100 184.855 100.125 184.648 100.232C184.441 100.338 184.187 100.404 183.888 100.43ZM184.044 99.5607C184.336 99.5351 184.581 99.4555 184.778 99.3218C184.978 99.1878 185.124 99.023 185.216 98.8272C185.311 98.6288 185.348 98.4223 185.33 98.2077L185.268 97.5072C185.234 97.5483 185.164 97.59 185.058 97.6325C184.955 97.6725 184.836 97.7102 184.701 97.7458C184.566 97.779 184.435 97.8107 184.307 97.8409C184.178 97.8688 184.071 97.8924 183.985 97.9118C183.782 97.9557 183.598 98.0158 183.434 98.0919C183.272 98.1679 183.145 98.2681 183.054 98.3925C182.965 98.5144 182.928 98.6697 182.945 98.8584C182.968 99.1201 183.082 99.3098 183.287 99.4273C183.492 99.5424 183.744 99.5869 184.044 99.5607ZM190.011 99.8799C189.573 99.9183 189.171 99.8405 188.807 99.6466C188.446 99.4501 188.149 99.1517 187.916 98.7514C187.686 98.3485 187.545 97.8534 187.494 97.2662C187.443 96.6789 187.497 96.168 187.656 95.7335C187.817 95.2987 188.061 94.9554 188.386 94.7036C188.71 94.4518 189.091 94.3068 189.527 94.2686C189.865 94.2391 190.141 94.272 190.356 94.3672C190.573 94.4599 190.745 94.5756 190.871 94.7143C191 94.8527 191.101 94.9758 191.174 95.0834L191.238 95.0778L191.002 92.3857L192.06 92.2932L192.694 99.5382L191.661 99.6286L191.587 98.7831L191.499 98.7908C191.445 98.912 191.365 99.0521 191.257 99.2112C191.152 99.3701 191.001 99.5141 190.803 99.6431C190.605 99.7721 190.341 99.851 190.011 99.8799ZM190.166 98.9574C190.47 98.9308 190.72 98.8281 190.916 98.6493C191.114 98.468 191.255 98.2288 191.338 97.9316C191.424 97.6341 191.45 97.2944 191.416 96.9123C191.383 96.535 191.3 96.2095 191.167 95.936C191.034 95.6625 190.855 95.4559 190.631 95.3163C190.408 95.1766 190.141 95.1203 189.832 95.1473C189.514 95.1752 189.256 95.281 189.058 95.4646C188.86 95.6483 188.72 95.8875 188.636 96.1824C188.555 96.4771 188.53 96.8036 188.561 97.1621C188.593 97.5253 188.676 97.8472 188.81 98.1278C188.944 98.4084 189.124 98.6243 189.351 98.7755C189.581 98.9242 189.852 98.9848 190.166 98.9574ZM196.555 99.3109C196.02 99.3578 195.549 99.2837 195.142 99.0888C194.737 98.8913 194.412 98.593 194.165 98.1939C193.921 97.7923 193.774 97.3096 193.725 96.746C193.676 96.1894 193.737 95.6898 193.908 95.2471C194.08 94.8042 194.344 94.4473 194.698 94.1763C195.054 93.9051 195.485 93.7474 195.99 93.7032C196.296 93.6764 196.598 93.7011 196.895 93.7773C197.191 93.8536 197.463 93.9902 197.711 94.1871C197.959 94.3841 198.164 94.6501 198.326 94.9853C198.489 95.3181 198.591 95.7309 198.634 96.2238L198.667 96.5988L194.348 96.9767L194.278 96.1843L197.561 95.897C197.537 95.6188 197.459 95.3773 197.327 95.1725C197.195 94.9655 197.02 94.8084 196.804 94.7014C196.591 94.5941 196.347 94.5525 196.073 94.5764C195.776 94.6024 195.523 94.6982 195.314 94.8638C195.107 95.0269 194.954 95.2304 194.854 95.4744C194.757 95.7158 194.72 95.9722 194.743 96.2434L194.798 96.8625C194.829 97.2257 194.92 97.5291 195.07 97.7726C195.222 98.016 195.419 98.1948 195.662 98.309C195.905 98.4208 196.18 98.4632 196.489 98.4362C196.69 98.4187 196.87 98.3744 197.03 98.3033C197.19 98.2299 197.325 98.1302 197.435 98.0041C197.546 97.878 197.625 97.7273 197.674 97.5519L198.691 97.6447C198.636 97.9465 198.515 98.2174 198.327 98.4572C198.141 98.6945 197.898 98.8881 197.597 99.038C197.299 99.1853 196.951 99.2763 196.555 99.3109Z" fill="white"/>
<path d="M189.867 106.077L195.284 110.622L190.739 116.039" stroke="white" stroke-width="1.5" stroke-miterlimit="10" stroke-linecap="round" stroke-linejoin="round"/>
<path d="M178.352 112.104L195.118 110.638" stroke="white" stroke-width="1.5" stroke-miterlimit="10" stroke-linecap="round" stroke-linejoin="round"/>
<path d="M215.198 108.423L214.512 100.589L216.29 100.434L216.975 108.267L215.198 108.423ZM211.905 105.66L211.749 103.882L219.583 103.197L219.738 104.974L211.905 105.66ZM226.845 108.316C225.913 108.398 225.092 108.232 224.383 107.819C223.678 107.402 223.106 106.761 222.67 105.898C222.236 105.031 221.964 103.966 221.854 102.702C221.747 101.437 221.832 100.346 222.109 99.4284C222.39 98.5065 222.842 97.7825 223.465 97.2565C224.092 96.7302 224.869 96.4264 225.798 96.3452C226.726 96.264 227.545 96.4281 228.253 96.8376C228.962 97.2471 229.533 97.8815 229.966 98.741C230.402 99.6002 230.675 100.66 230.786 101.92C230.897 103.188 230.812 104.287 230.532 105.216C230.256 106.142 229.804 106.869 229.177 107.4C228.555 107.929 227.777 108.235 226.845 108.316ZM226.69 106.545C227.415 106.481 227.955 106.075 228.312 105.325C228.671 104.571 228.791 103.498 228.669 102.106C228.588 101.185 228.424 100.42 228.177 99.8101C227.93 99.2005 227.617 98.7526 227.238 98.4664C226.859 98.1763 226.43 98.0523 225.951 98.0942C225.23 98.1572 224.692 98.5656 224.335 99.3192C223.979 100.069 223.859 101.135 223.976 102.516C224.053 103.441 224.214 104.21 224.458 104.824C224.705 105.437 225.019 105.889 225.398 106.179C225.776 106.465 226.207 106.587 226.69 106.545ZM234.017 107.592C233.673 107.622 233.368 107.527 233.102 107.307C232.836 107.087 232.689 106.803 232.662 106.456C232.629 106.117 232.724 105.815 232.948 105.552C233.173 105.289 233.456 105.143 233.8 105.113C234.132 105.084 234.431 105.179 234.697 105.399C234.968 105.619 235.119 105.899 235.153 106.238C235.169 106.468 235.127 106.683 235.027 106.882C234.93 107.081 234.792 107.245 234.614 107.374C234.438 107.5 234.239 107.573 234.017 107.592ZM241.197 107.061C240.264 107.142 239.444 106.977 238.735 106.563C238.029 106.146 237.458 105.506 237.021 104.643C236.588 103.776 236.316 102.71 236.205 101.446C236.098 100.182 236.184 99.0906 236.461 98.1728C236.741 97.2509 237.193 96.5269 237.816 96.0009C238.443 95.4746 239.221 95.1708 240.149 95.0896C241.077 95.0084 241.896 95.1725 242.605 95.582C243.314 95.9915 243.884 96.626 244.317 97.4855C244.753 98.3446 245.027 99.4044 245.137 100.665C245.248 101.933 245.163 103.031 244.884 103.961C244.607 104.886 244.156 105.614 243.529 106.144C242.906 106.674 242.129 106.979 241.197 107.061ZM241.042 105.289C241.766 105.226 242.307 104.819 242.663 104.069C243.023 103.316 243.142 102.242 243.02 100.85C242.94 99.9292 242.776 99.1641 242.528 98.5545C242.281 97.945 241.968 97.497 241.59 97.2108C241.211 96.9207 240.781 96.7967 240.302 96.8386C239.581 96.9017 239.043 97.31 238.687 98.0636C238.33 98.8134 238.211 99.879 238.328 101.26C238.405 102.185 238.565 102.955 238.809 103.568C239.057 104.182 239.37 104.633 239.749 104.923C240.128 105.21 240.559 105.332 241.042 105.289ZM251.828 106.131C250.896 106.212 250.075 106.046 249.366 105.633C248.66 105.216 248.089 104.576 247.652 103.713C247.219 102.846 246.947 101.78 246.836 100.516C246.73 99.2516 246.815 98.1605 247.092 97.2427C247.373 96.3208 247.824 95.5968 248.448 95.0708C249.075 94.5445 249.852 94.2407 250.78 94.1595C251.709 94.0783 252.527 94.2424 253.236 94.6519C253.945 95.0613 254.516 95.6958 254.948 96.5553C255.385 97.4145 255.658 98.4743 255.768 99.7346C255.879 101.002 255.795 102.101 255.515 103.031C255.238 103.956 254.787 104.684 254.16 105.214C253.537 105.744 252.76 106.049 251.828 106.131ZM251.673 104.359C252.397 104.296 252.938 103.889 253.294 103.139C253.654 102.385 253.773 101.312 253.651 99.9198C253.571 98.9991 253.407 98.234 253.16 97.6244C252.912 97.0148 252.599 96.5669 252.221 96.2807C251.842 95.9906 251.413 95.8666 250.933 95.9085C250.213 95.9715 249.674 96.3799 249.318 97.1335C248.962 97.8833 248.842 98.9489 248.959 100.33C249.036 101.255 249.197 102.024 249.44 102.638C249.688 103.251 250.001 103.703 250.38 103.993C250.759 104.279 251.19 104.401 251.673 104.359ZM262.199 105.161C261.444 105.227 260.756 105.144 260.135 104.913C259.514 104.679 259.006 104.328 258.612 103.86C258.221 103.393 257.986 102.839 257.907 102.2L259.945 102.021C260.024 102.493 260.264 102.864 260.664 103.133C261.064 103.399 261.526 103.509 262.05 103.463C262.462 103.427 262.819 103.3 263.124 103.084C263.428 102.867 263.658 102.582 263.813 102.23C263.969 101.878 264.026 101.487 263.984 101.058C263.95 100.62 263.823 100.239 263.605 99.9159C263.387 99.5928 263.105 99.3494 262.76 99.1857C262.414 99.0182 262.028 98.9531 261.602 98.9904C261.255 99.017 260.919 99.111 260.594 99.2725C260.27 99.4339 260.019 99.6308 259.842 99.863L257.918 99.7176L258.001 93.6874L264.725 93.0991L264.879 94.8538L259.892 95.2901L259.827 98.3928L259.895 98.3868C260.088 98.1152 260.374 97.8792 260.752 97.6788C261.129 97.4747 261.552 97.3522 262.02 97.3112C262.722 97.2498 263.363 97.361 263.943 97.6449C264.522 97.925 264.996 98.3399 265.363 98.8895C265.731 99.4391 265.947 100.086 266.012 100.829C266.079 101.595 265.961 102.293 265.659 102.924C265.36 103.551 264.913 104.064 264.317 104.462C263.724 104.856 263.018 105.089 262.199 105.161ZM272.104 105.595L270.836 91.1044L271.765 91.0232L273.032 105.513L272.104 105.595ZM273.919 95.5059C273.823 95.0162 273.567 94.6508 273.15 94.4096C272.737 94.1682 272.22 94.0747 271.597 94.1292C271.159 94.1675 270.79 94.2663 270.488 94.4258C270.186 94.5853 269.962 94.7855 269.816 95.0264C269.67 95.2674 269.608 95.5333 269.629 95.8242C269.65 96.0657 269.724 96.2703 269.848 96.4381C269.977 96.6055 270.143 96.7431 270.347 96.8508C270.55 96.9547 270.772 97.0379 271.013 97.1005C271.254 97.163 271.496 97.2122 271.739 97.248L272.849 97.4246C273.296 97.4882 273.729 97.5891 274.148 97.7274C274.57 97.8653 274.954 98.0523 275.298 98.2884C275.645 98.5241 275.93 98.8205 276.151 99.1776C276.372 99.5347 276.505 99.9641 276.549 100.466C276.608 101.145 276.487 101.759 276.185 102.306C275.883 102.849 275.416 103.295 274.785 103.643C274.157 103.987 273.379 104.2 272.451 104.281C271.549 104.36 270.754 104.289 270.065 104.068C269.381 103.846 268.828 103.484 268.408 102.981C267.991 102.477 267.734 101.842 267.636 101.075L269.702 100.894C269.768 101.295 269.922 101.62 270.164 101.869C270.406 102.118 270.709 102.293 271.071 102.394C271.437 102.495 271.839 102.526 272.277 102.488C272.734 102.448 273.128 102.345 273.459 102.179C273.794 102.009 274.049 101.793 274.224 101.531C274.398 101.264 274.473 100.965 274.447 100.633C274.417 100.331 274.307 100.09 274.116 99.9089C273.925 99.7241 273.667 99.5793 273.342 99.4747C273.021 99.3659 272.648 99.2768 272.224 99.2075L270.875 98.9833C269.899 98.8215 269.112 98.5159 268.514 98.0663C267.919 97.6126 267.585 96.9707 267.513 96.1405C267.453 95.4575 267.585 94.8433 267.91 94.2977C268.239 93.7519 268.712 93.3094 269.328 92.9702C269.945 92.6273 270.659 92.4204 271.47 92.3494C272.292 92.2774 273.026 92.3578 273.67 92.5904C274.317 92.8189 274.84 93.1705 275.239 93.6451C275.638 94.116 275.871 94.6773 275.94 95.3291L273.919 95.5059Z" fill="#5FA6FF"/>
<path d="M252.027 122.681L252.661 129.926L251.783 130.003L251.23 123.678L251.187 123.682L249.521 125.011L249.443 124.119L251.149 122.758L252.027 122.681ZM254.445 128.273L254.381 127.551L257.124 122.235L257.648 122.189L257.746 123.307L257.392 123.338L255.32 127.355L255.325 127.412L259.612 127.037L259.68 127.815L254.445 128.273ZM257.985 129.461L257.836 127.755L257.806 127.419L257.351 122.215L258.186 122.142L258.82 129.388L257.985 129.461ZM261.423 129.217C261.248 129.232 261.093 129.183 260.957 129.069C260.821 128.955 260.746 128.81 260.731 128.636C260.715 128.461 260.765 128.306 260.879 128.17C260.993 128.034 261.137 127.959 261.312 127.943C261.486 127.928 261.641 127.977 261.777 128.091C261.913 128.205 261.989 128.35 262.004 128.524C262.014 128.64 261.994 128.749 261.943 128.85C261.895 128.952 261.825 129.037 261.734 129.104C261.645 129.169 261.541 129.206 261.423 129.217ZM265.658 128.889C265.125 128.936 264.658 128.83 264.258 128.573C263.857 128.313 263.533 127.915 263.287 127.378C263.04 126.839 262.882 126.176 262.813 125.388C262.745 124.605 262.785 123.928 262.935 123.356C263.087 122.782 263.337 122.332 263.687 122.007C264.038 121.679 264.478 121.492 265.007 121.446C265.535 121.4 265.999 121.508 266.4 121.77C266.803 122.029 267.128 122.428 267.375 122.968C267.624 123.504 267.782 124.164 267.851 124.947C267.92 125.735 267.88 126.416 267.73 126.99C267.581 127.561 267.331 128.01 266.982 128.335C266.632 128.658 266.191 128.842 265.658 128.889ZM265.59 128.111C266.118 128.065 266.506 127.774 266.754 127.239C267.002 126.704 267.084 125.965 267.002 125.021C266.947 124.394 266.833 123.866 266.66 123.437C266.489 123.007 266.269 122.688 265.999 122.478C265.731 122.269 265.422 122.179 265.073 122.21C264.55 122.256 264.163 122.55 263.914 123.092C263.664 123.632 263.58 124.373 263.662 125.314C263.717 125.941 263.83 126.468 264 126.895C264.171 127.322 264.39 127.639 264.657 127.847C264.927 128.053 265.238 128.142 265.59 128.111ZM271.841 128.348C271.356 128.391 270.919 128.342 270.531 128.202C270.146 128.06 269.836 127.846 269.602 127.56C269.367 127.272 269.234 126.932 269.202 126.54C269.173 126.234 269.208 125.945 269.308 125.675C269.408 125.403 269.556 125.17 269.753 124.977C269.953 124.781 270.182 124.648 270.442 124.578L270.438 124.535C270.084 124.476 269.791 124.306 269.56 124.024C269.328 123.74 269.197 123.406 269.165 123.021C269.131 122.654 269.195 122.316 269.358 122.01C269.522 121.703 269.761 121.452 270.077 121.255C270.395 121.059 270.766 120.942 271.19 120.905C271.61 120.868 271.992 120.919 272.337 121.058C272.682 121.196 272.961 121.402 273.176 121.676C273.392 121.949 273.517 122.27 273.552 122.637C273.583 123.022 273.508 123.374 273.327 123.694C273.148 124.012 272.893 124.23 272.561 124.35L272.565 124.392C272.831 124.416 273.076 124.508 273.302 124.666C273.527 124.822 273.713 125.026 273.861 125.277C274.009 125.525 274.097 125.803 274.127 126.109C274.159 126.501 274.083 126.859 273.9 127.184C273.719 127.507 273.451 127.771 273.096 127.978C272.743 128.182 272.325 128.306 271.841 128.348ZM271.773 127.57C272.101 127.541 272.38 127.463 272.608 127.336C272.837 127.209 273.008 127.043 273.121 126.839C273.234 126.634 273.28 126.402 273.26 126.142C273.233 125.869 273.142 125.633 272.984 125.436C272.827 125.238 272.622 125.089 272.371 124.99C272.122 124.891 271.845 124.854 271.538 124.881C271.229 124.908 270.959 124.992 270.726 125.134C270.496 125.275 270.321 125.457 270.2 125.679C270.081 125.901 270.035 126.149 270.062 126.422C270.082 126.682 270.164 126.903 270.309 127.085C270.455 127.267 270.653 127.4 270.903 127.485C271.153 127.571 271.443 127.599 271.773 127.57ZM271.473 124.131C271.732 124.109 271.957 124.037 272.149 123.915C272.342 123.794 272.489 123.635 272.588 123.438C272.688 123.242 272.727 123.019 272.708 122.768C272.684 122.523 272.608 122.315 272.479 122.143C272.349 121.969 272.18 121.841 271.971 121.76C271.762 121.676 271.524 121.646 271.257 121.669C270.986 121.693 270.753 121.764 270.559 121.883C270.365 122 270.221 122.155 270.126 122.349C270.031 122.54 269.995 122.759 270.019 123.004C270.039 123.254 270.113 123.467 270.243 123.643C270.375 123.82 270.547 123.951 270.758 124.037C270.97 124.123 271.208 124.154 271.473 124.131ZM276.055 127.937C275.88 127.952 275.725 127.903 275.589 127.788C275.453 127.674 275.377 127.53 275.362 127.356C275.347 127.181 275.396 127.026 275.51 126.89C275.624 126.754 275.769 126.678 275.943 126.663C276.118 126.648 276.273 126.697 276.409 126.811C276.545 126.925 276.62 127.07 276.636 127.244C276.646 127.36 276.626 127.468 276.575 127.57C276.527 127.672 276.457 127.757 276.366 127.824C276.276 127.889 276.173 127.926 276.055 127.937ZM278.17 127.695L278.115 127.058L280.277 124.231C280.531 123.9 280.739 123.613 280.901 123.371C281.062 123.126 281.178 122.899 281.248 122.691C281.319 122.481 281.346 122.265 281.326 122.043C281.304 121.788 281.223 121.573 281.084 121.397C280.948 121.222 280.77 121.092 280.551 121.009C280.333 120.926 280.092 120.896 279.831 120.919C279.552 120.943 279.314 121.022 279.117 121.156C278.922 121.287 278.776 121.46 278.681 121.675C278.588 121.89 278.554 122.136 278.578 122.412L277.743 122.485C277.706 122.06 277.771 121.679 277.939 121.341C278.107 121.003 278.351 120.73 278.673 120.521C278.997 120.312 279.37 120.189 279.792 120.152C280.217 120.115 280.601 120.172 280.944 120.322C281.288 120.473 281.566 120.692 281.779 120.98C281.992 121.268 282.114 121.598 282.147 121.971C282.17 122.238 282.145 122.502 282.07 122.766C281.998 123.026 281.858 123.322 281.649 123.654C281.443 123.984 281.151 124.389 280.775 124.872L279.3 126.754L279.305 126.811L282.673 126.516L282.741 127.295L278.17 127.695ZM286.574 127.059C286.041 127.106 285.574 127 285.174 126.743C284.773 126.484 284.45 126.085 284.203 125.548C283.956 125.009 283.798 124.346 283.73 123.558C283.661 122.775 283.702 122.098 283.851 121.526C284.003 120.952 284.254 120.502 284.603 120.177C284.954 119.849 285.394 119.662 285.923 119.616C286.451 119.57 286.916 119.678 287.316 119.94C287.719 120.199 288.044 120.598 288.291 121.138C288.54 121.674 288.699 122.334 288.767 123.117C288.836 123.905 288.796 124.586 288.646 125.16C288.497 125.731 288.247 126.18 287.898 126.505C287.548 126.828 287.107 127.013 286.574 127.059ZM286.506 126.281C287.034 126.235 287.422 125.944 287.67 125.409C287.918 124.874 288.001 124.135 287.918 123.191C287.863 122.564 287.749 122.036 287.576 121.607C287.406 121.177 287.185 120.858 286.915 120.648C286.647 120.439 286.339 120.35 285.99 120.38C285.466 120.426 285.079 120.72 284.83 121.262C284.58 121.802 284.496 122.543 284.579 123.484C284.633 124.111 284.746 124.638 284.917 125.065C285.087 125.492 285.306 125.81 285.574 126.017C285.844 126.224 286.154 126.312 286.506 126.281ZM290.428 126.622L290.373 125.985L292.535 123.158C292.789 122.827 292.997 122.54 293.158 122.298C293.32 122.053 293.436 121.827 293.505 121.619C293.577 121.408 293.604 121.192 293.584 120.97C293.562 120.716 293.481 120.501 293.342 120.325C293.206 120.149 293.028 120.02 292.809 119.937C292.59 119.854 292.35 119.824 292.088 119.847C291.81 119.871 291.572 119.95 291.375 120.084C291.18 120.215 291.034 120.388 290.939 120.603C290.846 120.818 290.812 121.063 290.836 121.339L290.001 121.412C289.964 120.988 290.029 120.607 290.197 120.269C290.365 119.931 290.609 119.657 290.931 119.449C291.255 119.24 291.628 119.117 292.05 119.08C292.474 119.043 292.858 119.099 293.202 119.25C293.545 119.401 293.824 119.62 294.037 119.908C294.249 120.196 294.372 120.526 294.405 120.899C294.428 121.165 294.403 121.43 294.328 121.693C294.256 121.954 294.116 122.25 293.907 122.582C293.7 122.911 293.409 123.317 293.033 123.799L291.558 125.682L291.563 125.739L294.931 125.444L294.999 126.222L290.428 126.622ZM298.917 125.979C298.45 126.02 298.026 125.976 297.647 125.848C297.27 125.719 296.961 125.522 296.722 125.255C296.484 124.986 296.339 124.662 296.287 124.284L297.179 124.206C297.218 124.438 297.316 124.633 297.472 124.79C297.628 124.945 297.825 125.059 298.062 125.131C298.299 125.203 298.556 125.227 298.834 125.202C299.146 125.175 299.417 125.097 299.648 124.967C299.879 124.838 300.055 124.67 300.174 124.465C300.294 124.259 300.343 124.029 300.321 123.775C300.297 123.508 300.211 123.279 300.061 123.088C299.911 122.894 299.704 122.751 299.439 122.658C299.174 122.564 298.858 122.534 298.49 122.566L297.91 122.617L297.841 121.838L298.422 121.788C298.709 121.763 298.957 121.689 299.165 121.566C299.375 121.443 299.533 121.282 299.64 121.082C299.748 120.883 299.791 120.656 299.769 120.401C299.747 120.156 299.675 119.947 299.55 119.775C299.426 119.603 299.26 119.475 299.053 119.39C298.849 119.306 298.613 119.276 298.346 119.299C298.096 119.321 297.865 119.388 297.651 119.499C297.44 119.608 297.272 119.754 297.148 119.939C297.023 120.121 296.966 120.332 296.975 120.574L296.126 120.648C296.107 120.267 296.192 119.925 296.382 119.621C296.571 119.314 296.832 119.066 297.165 118.875C297.5 118.684 297.876 118.57 298.294 118.534C298.742 118.494 299.134 118.552 299.471 118.705C299.807 118.856 300.074 119.072 300.272 119.352C300.47 119.631 300.584 119.942 300.614 120.284C300.65 120.692 300.573 121.049 300.384 121.356C300.197 121.662 299.925 121.887 299.569 122.03L299.574 122.086C300.038 122.122 300.413 122.285 300.697 122.576C300.981 122.865 301.144 123.239 301.184 123.699C301.218 124.093 301.142 124.456 300.955 124.789C300.77 125.118 300.501 125.389 300.149 125.601C299.797 125.812 299.386 125.938 298.917 125.979Z" fill="#A3A3A3"/>
</g>
<defs>
<filter id="filter0_d_645_61061" x="105" y="64" width="325" height="120" filterUnits="userSpaceOnUse" color-interpolation-filters="sRGB">
<feFlood flood-opacity="0" result="BackgroundImageFix"/>
<feColorMatrix in="SourceAlpha" type="matrix" values="0 0 0 0 0 0 0 0 0 0 0 0 0 0 0 0 0 0 127 0" result="hardAlpha"/>
<feOffset dy="4"/>
<feGaussianBlur stdDeviation="10"/>
<feComposite in2="hardAlpha" operator="out"/>
<feColorMatrix type="matrix" values="0 0 0 0 0.0705882 0 0 0 0 0.0705882 0 0 0 0 0.0705882 0 0 0 0.32 0"/>
<feBlend mode="normal" in2="BackgroundImageFix" result="effect1_dropShadow_645_61061"/>
<feBlend mode="normal" in="SourceGraphic" in2="effect1_dropShadow_645_61061" result="shape"/>
</filter>
<filter id="filter1_d_645_61061" x="105" y="328" width="325" height="120" filterUnits="userSpaceOnUse" color-interpolation-filters="sRGB">
<feFlood flood-opacity="0" result="BackgroundImageFix"/>
<feColorMatrix in="SourceAlpha" type="matrix" values="0 0 0 0 0 0 0 0 0 0 0 0 0 0 0 0 0 0 127 0" result="hardAlpha"/>
<feOffset dy="4"/>
<feGaussianBlur stdDeviation="10"/>
<feComposite in2="hardAlpha" operator="out"/>
<feColorMatrix type="matrix" values="0 0 0 0 0.0705882 0 0 0 0 0.0705882 0 0 0 0 0.0705882 0 0 0 0.32 0"/>
<feBlend mode="normal" in2="BackgroundImageFix" result="effect1_dropShadow_645_61061"/>
<feBlend mode="normal" in="SourceGraphic" in2="effect1_dropShadow_645_61061" result="shape"/>
</filter>
<filter id="filter2_d_645_61061" x="2" y="39" width="330.887" height="144.535" filterUnits="userSpaceOnUse" color-interpolation-filters="sRGB">
<feFlood flood-opacity="0" result="BackgroundImageFix"/>
<feColorMatrix in="SourceAlpha" type="matrix" values="0 0 0 0 0 0 0 0 0 0 0 0 0 0 0 0 0 0 127 0" result="hardAlpha"/>
<feOffset dy="4"/>
<feGaussianBlur stdDeviation="10"/>
<feComposite in2="hardAlpha" operator="out"/>
<feColorMatrix type="matrix" values="0 0 0 0 0.0705882 0 0 0 0 0.0705882 0 0 0 0 0.0705882 0 0 0 0.32 0"/>
<feBlend mode="normal" in2="BackgroundImageFix" result="effect1_dropShadow_645_61061"/>
<feBlend mode="normal" in="SourceGraphic" in2="effect1_dropShadow_645_61061" result="shape"/>
</filter>
<clipPath id="clip0_645_61061">
<rect x="77" width="760" height="510" rx="14" fill="white"/>
</clipPath>
</defs>
</svg>
