<svg width="168" height="25" viewBox="0 0 168 25" fill="none" xmlns="http://www.w3.org/2000/svg">
<path d="M115.649 2.61012L112.275 7.52193C110.263 10.4522 108.962 12.5883 109.051 12.8169C109.401 13.7182 117.461 24.8906 117.669 24.7639C117.795 24.6868 119.32 22.5356 121.059 19.983L124.22 15.3419L115.649 2.61012Z" fill="#A762FF"/>
<path d="M120.938 1.28294L115.649 2.61012L124.22 15.3419L129.84 13.9824C132.931 13.2349 135.606 12.5795 135.785 12.5261L126.809 0.000781871C126.489 -0.0242053 123.847 0.552843 120.938 1.28294Z" fill="#FFCD4C"/>
<path d="M121.059 19.983C119.32 22.5356 117.795 24.6868 117.669 24.7639L129.129 21.4458L135.785 12.5261C135.606 12.5795 132.931 13.2349 129.84 13.9824L124.22 15.3419L121.059 19.983Z" fill="#1E4FFF"/>
<path d="M158.583 15.8276C157.979 17.3117 157.486 18.6597 157.486 18.8232C157.487 18.9869 158.219 19.7888 159.113 20.6056L160.738 22.0905L161.831 19.3971L162.923 16.7039L159.681 13.1295L158.583 15.8276Z" fill="#A762FF"/>
<path fill-rule="evenodd" clip-rule="evenodd" d="M0 5.12133V7.98445H2.50608H5.01216V15.1422V22.3H8.57343H12.1347V15.1422V7.98445H14.6408H17.1469V5.12133V2.25822H8.57343H0V5.12133ZM21.1038 12.2791V22.3H24.5332H27.9626V18.7862V15.2724H30.7325H33.5023V18.7862V22.3H36.9317H40.3611V12.2791V2.25822H36.9317H33.5023V5.6419V9.02558H30.7325H27.9626V5.6419V2.25822H24.5332H21.1038V12.2791ZM45.3732 12.2791V22.3H52.8915H60.4097V19.4369V16.5738H56.3209H52.232V15.7929V15.0121H55.1338H58.0356V12.4093V9.80643H55.1338H52.232V8.89544V7.98445H56.3209H60.4097V5.12133V2.25822H52.8915H45.3732V12.2791ZM71.4893 12.2682V22.3326L78.1501 22.2511L84.811 22.1699L86.2619 21.4458C88.5446 20.3068 89.6562 18.522 89.6797 15.9585C89.6929 14.5324 88.9218 12.914 87.921 12.2669L87.3055 11.8692L87.9344 11.0329C89.7512 8.61746 89.4497 5.72936 87.1887 3.89045C85.6578 2.64552 84.5953 2.46983 77.7544 2.3311L71.4893 2.20408V12.2682ZM94.1759 12.2791V22.3H101.43H108.685V19.4369V16.5738H104.86H101.035V9.41601V2.25822H97.6053H94.1759V12.2791ZM135.102 3.10414C135.432 3.56953 137.049 5.79677 138.694 8.05369C140.562 10.6154 141.61 12.2778 141.486 12.4785C141.376 12.6552 139.768 14.8866 137.911 17.4374C136.056 19.9882 134.537 22.1259 134.537 22.1876C134.537 22.2495 136.288 22.2987 138.428 22.2972L142.319 22.2943L143.872 20.0848C144.726 18.8695 145.509 17.8752 145.613 17.8752C145.717 17.8752 146.502 18.8664 147.358 20.078L148.914 22.2808L152.821 22.2904C155.88 22.2979 156.683 22.2295 156.523 21.9747C156.411 21.7959 154.884 19.6582 153.129 17.2245C151.375 14.7909 149.849 12.6521 149.739 12.4715C149.582 12.2135 153.954 5.82332 156.504 2.58357C156.707 2.32641 155.933 2.25822 152.819 2.25822H148.878L147.339 4.47063C146.493 5.68745 145.721 6.68303 145.624 6.68303C145.527 6.68303 144.756 5.68745 143.909 4.47063L142.371 2.25822H138.436H134.501L135.102 3.10414ZM81.531 7.21271C82.1158 7.52167 82.2401 8.9855 81.7246 9.49409C81.5505 9.66588 80.7195 9.80643 79.878 9.80643H78.348V8.37487V6.94332H79.6844C80.4193 6.94332 81.2503 7.06461 81.531 7.21271ZM82.5147 15.3375C82.8012 15.9288 82.8012 16.1776 82.5147 16.769C82.1897 17.44 82.048 17.4895 80.2579 17.5613L78.348 17.6378V16.0532V14.4686L80.2579 14.5451C82.048 14.617 82.1897 14.6664 82.5147 15.3375Z" fill="white"/>
<path d="M162.923 16.7039L165.461 16.5738L168 16.4437L166.212 14.9697L164.424 13.4954L162.052 13.3124L159.681 13.1295L162.923 16.7039Z" fill="#FFCD4C"/>
<path d="M161.831 19.3971L160.738 22.0905L165.929 21.2131L168 16.4437L165.461 16.5738L162.923 16.7039L161.831 19.3971Z" fill="#1E4FFF"/>
</svg>
