<svg width="20" height="20" viewBox="0 0 20 20" fill="none" xmlns="http://www.w3.org/2000/svg">
<path d="M20 3.77567C19.2511 4.08185 18.4567 4.28284 17.6433 4.37193C18.4905 3.90328 19.1411 3.16116 19.4474 2.27693C18.642 2.71803 17.7608 3.02881 16.8419 3.19584C16.0934 2.45992 15.027 2 13.8468 2C11.5807 2 9.74344 3.69549 9.74344 5.78666C9.74344 6.0835 9.77977 6.37247 9.84969 6.64969C6.43953 6.49172 3.41609 4.9842 1.39227 2.69316C1.03914 3.25244 0.836797 3.90299 0.836797 4.59688C0.836797 5.91067 1.56125 7.06967 2.66219 7.74878C2.01059 7.72994 1.37332 7.56753 0.803594 7.27508C0.803359 7.29095 0.803359 7.30681 0.803359 7.32274C0.803359 9.15746 2.21773 10.688 4.09477 11.0359C3.49054 11.1875 2.85674 11.2097 2.2418 11.1008C2.76391 12.6052 4.2793 13.6999 6.07477 13.7306C4.67047 14.7462 2.90117 15.3516 0.978828 15.3516C0.647578 15.3516 0.321016 15.3336 0 15.2987C1.81586 16.3731 3.97266 17 6.28984 17C13.8373 17 17.9644 11.2298 17.9644 6.22582C17.9644 6.06158 17.9605 5.89827 17.9525 5.7359C18.7558 5.19998 19.4492 4.53618 20 3.77567Z" fill="white"/>
</svg>
