<svg width="47" height="47" viewBox="0 0 47 47" fill="none" xmlns="http://www.w3.org/2000/svg">
<g clip-path="url(#clip0_661_81919)">
<path d="M14.9555 29.9091C16.1306 29.9091 17.092 30.8704 17.092 32.0454C17.092 33.2204 16.1306 34.1818 14.9555 34.1818C13.7804 34.1818 12.819 33.2204 12.819 32.0454C12.819 30.8704 13.7804 29.9091 14.9555 29.9091ZM30.0605 7.88318L33.1157 10.8955L30.0605 13.8864L27.0481 10.8955L30.0605 7.88318ZM36.1068 13.8864L39.1193 16.9414L36.1068 19.9536L33.1157 16.9414L36.1068 13.8864ZM14.9555 25.6364C11.4089 25.6364 8.546 28.4991 8.546 32.0454C8.546 35.5918 11.4089 38.4545 14.9555 38.4545C18.5021 38.4545 21.365 35.5918 21.365 32.0454C21.365 28.4991 18.5021 25.6364 14.9555 25.6364ZM18.7371 7.11409L20.2967 8.71636L28.3941 0.619545C28.7787 0.235 29.3128 0 29.911 0C30.5092 0 31.0433 0.235 31.4279 0.619545L46.533 15.7236V15.745C46.8754 16.1799 47.0395 16.7289 46.9919 17.2805C46.9443 17.832 46.6885 18.3447 46.2766 18.7145L38.3074 26.7045L39.8885 28.2641L25.5312 42.6204C24.144 44.0113 22.4955 45.1143 20.6806 45.8659C18.8656 46.6175 16.9199 47.0029 14.9555 47C6.68724 47 0 40.3132 0 32.0454C0 27.9223 1.66647 24.1836 4.37982 21.4704L18.7371 7.11409ZM41.854 17.0909L29.911 5.14863L23.3519 11.75L35.2522 23.6709L41.854 17.0909Z" fill="#5FA6FF"/>
</g>
<defs>
<clipPath id="clip0_661_81919">
<rect width="47" height="47" fill="white"/>
</clipPath>
</defs>
</svg>
