<svg width="40" height="40" viewBox="0 0 40 40" fill="none" xmlns="http://www.w3.org/2000/svg">
<path d="M18.332 3.33398H14.9987C6.66536 3.33398 3.33203 6.66732 3.33203 15.0007V25.0007C3.33203 33.334 6.66536 36.6673 14.9987 36.6673H24.9987C33.332 36.6673 36.6654 33.334 36.6654 25.0007V21.6673" stroke="#5FA6FF" stroke-width="3" stroke-linecap="round" stroke-linejoin="round"/>
<path d="M26.7351 5.03278L13.6018 18.1661C13.1018 18.6661 12.6018 19.6494 12.5018 20.3661L11.7851 25.3828C11.5184 27.1994 12.8018 28.4661 14.6184 28.2161L19.6351 27.4994C20.3351 27.3994 21.3184 26.8994 21.8351 26.3994L34.9684 13.2661C37.2351 10.9994 38.3017 8.36611 34.9684 5.03278C31.6351 1.69944 29.0018 2.76611 26.7351 5.03278Z" stroke="#5FA6FF" stroke-width="3" stroke-miterlimit="10" stroke-linecap="round" stroke-linejoin="round"/>
<path d="M24.8516 6.91602C25.9682 10.8993 29.0849 14.016 33.0849 15.1493" stroke="#5FA6FF" stroke-width="3" stroke-miterlimit="10" stroke-linecap="round" stroke-linejoin="round"/>
</svg>
