<svg width="40" height="40" viewBox="0 0 40 40" fill="none" xmlns="http://www.w3.org/2000/svg">
<path d="M0 12C0 5.37258 5.37258 0 12 0H28C34.6274 0 40 5.37258 40 12V28C40 34.6274 34.6274 40 28 40H12C5.37258 40 0 34.6274 0 28V12Z" fill="white" fill-opacity="0.05"/>
<path d="M17 30H23C28 30 30 28 30 23V17C30 12 28 10 23 10H17C12 10 10 12 10 17V23C10 28 12 30 17 30Z" stroke="#A6FB75" stroke-width="1.4" stroke-linecap="round" stroke-linejoin="round"/>
<path d="M18 10V30" stroke="#A6FB75" stroke-width="1.4" stroke-linecap="round" stroke-linejoin="round"/>
<path d="M18 16.5H30" stroke="#A6FB75" stroke-width="1.4" stroke-linecap="round" stroke-linejoin="round"/>
<path d="M18 23.5H30" stroke="#A6FB75" stroke-width="1.4" stroke-linecap="round" stroke-linejoin="round"/>
</svg>
